<svg width="40" height="40" viewBox="0 0 40 40" xmlns="http://www.w3.org/2000/svg"><title>Shape</title><path d="M20 0C8.955 0 0 8.955 0 20s8.955 20 20 20 20-8.955 20-20S31.045 0 20 0zm10.259 13.313L17.839 29.25c-.098.098-.259.313-.455.313-.205 0-.34-.143-.455-.26-.116-.116-7.045-6.776-7.045-6.776l-.134-.134a.523.523 0 0 1-.098-.286c0-.107.044-.205.098-.286.036-.035.063-.062.098-.107.688-.723 2.08-2.187 2.17-2.276.116-.117.214-.268.428-.268.224 0 .367.187.474.294.107.107 4.018 3.866 4.018 3.866l9.937-12.767a.51.51 0 0 1 .313-.126.5.5 0 0 1 .312.117l2.732 2.151a.5.5 0 0 1 .116.313.463.463 0 0 1-.09.294z" fill="#222" fill-rule="evenodd"/></svg>