<svg width="40" height="40" viewBox="0 0 40 40" xmlns="http://www.w3.org/2000/svg"><title>Close</title><path d="M20 0C8.955 0 0 8.955 0 20s8.955 20 20 20 20-8.955 20-20S31.045 0 20 0zm9.67 26.741a.702.702 0 0 1 .205.5.687.687 0 0 1-.205.5L27.74 29.68a.695.695 0 0 1-.5.205.718.718 0 0 1-.5-.205L20 22.929l-6.732 6.759a.68.68 0 0 1-.5.205.718.718 0 0 1-.5-.206l-1.929-1.937a.702.702 0 0 1-.205-.5c0-.188.071-.375.205-.5l6.76-6.786-6.778-6.696a.717.717 0 0 1 0-1.01l1.929-1.937a.702.702 0 0 1 .5-.205c.188 0 .366.072.5.205l6.759 6.67 6.759-6.67a.702.702 0 0 1 .5-.205c.187 0 .366.072.5.205l1.928 1.938a.717.717 0 0 1 0 1.009l-6.776 6.696 6.75 6.777z" fill="#222" fill-rule="evenodd"/></svg>