<svg width="20" height="20" viewBox="0 0 20 20" xmlns="http://www.w3.org/2000/svg"><title>Contact</title><g fill-rule="evenodd"><path d="M1.216 16.49a.938.938 0 0 1 .135.49L.769 20l2.702-1.063a1.135 1.135 0 0 1 .803-.014h.01c.019.01.038.015.057.024a7.33 7.33 0 0 0 2.784.548 7.212 7.212 0 0 0 5.52-2.529 8.57 8.57 0 0 1-2.121.274c-4.61 0-8.35-3.605-8.35-8.052 0-.568.062-1.116.177-1.65C.909 8.793 0 10.606 0 12.625a6.7 6.7 0 0 0 1.13 3.726c.029.038.058.091.086.14z"/><path d="M11.649 0C7.625 0 4.264 2.75 3.476 6.404a7.771 7.771 0 0 0-.178 1.649c0 4.447 3.736 8.053 8.351 8.053.736 0 1.442-.101 2.12-.274.39-.101.774-.217 1.144-.366l.068-.028c.005 0 .01 0 .01-.005a1.271 1.271 0 0 1 .932.014l3.298 1.24-.817-3.548c0-.211.058-.413.159-.586.028-.053.067-.101.1-.15a7.817 7.817 0 0 0 1.323-4.35C20 3.606 16.264 0 11.649 0z"/></g></svg>