<svg width="24" height="24" viewBox="0 0 24 24" xmlns="http://www.w3.org/2000/svg"><title>Email</title><path d="M17.762 14.72c0 1.051.3 1.47 1.08 1.47 1.742 0 2.85-2.221 2.85-5.916 0-5.647-4.11-8.35-9.24-8.35-5.28 0-10.08 3.544-10.08 10.242 0 6.398 4.2 9.883 10.65 9.883 2.19 0 3.66-.24 5.908-.991l.483 2.01c-2.22.723-4.593.932-6.422.932C4.531 24 0 19.344 0 12.165 0 4.926 5.251 0 12.481 0 20.011 0 24 4.506 24 10.033c0 4.685-1.469 8.26-6.089 8.26-2.101 0-3.48-.841-3.66-2.705-.54 2.073-1.98 2.705-3.931 2.705-2.61 0-4.8-2.014-4.8-6.068 0-4.085 1.921-6.608 5.371-6.608 1.83 0 2.97.72 3.478 1.862l.871-1.592h2.52v8.833h.002zm-3.688-3.965c0-1.651-1.232-2.343-2.252-2.343-1.11 0-2.338.9-2.338 3.544 0 2.103.93 3.274 2.338 3.274.99 0 2.252-.63 2.252-2.373v-2.102z" fill="#222" fill-rule="evenodd"/></svg>