<svg width="16" height="11" viewBox="0 0 16 11" xmlns="http://www.w3.org/2000/svg"><title>Shape</title><path d="M.51 1.179l6.667 3.693a1.7 1.7 0 0 0 .805.183 1.7 1.7 0 0 0 .806-.183l6.666-3.693C15.89.938 16.3 0 15.502 0H.463C-.334 0 .076.938.51 1.179zm15.146 2.02l-6.868 3.69c-.303.164-.514.183-.806.183-.291 0-.503-.02-.805-.182C6.875 6.727.837 3.462.343 3.197-.004 3.01 0 3.23 0 3.398v6.685c0 .385.503.917.889.917H15.11c.386 0 .889-.532.889-.917V3.4c0-.169.004-.388-.344-.2z" fill="#FFF" fill-rule="evenodd"/></svg>