<svg width="40" height="40" viewBox="0 0 40 40" xmlns="http://www.w3.org/2000/svg"><title>Shape</title><path d="M20 .8C9.396.8.8 9.396.8 20S9.396 39.2 20 39.2c10.602 0 19.2-8.596 19.2-19.202C39.2 9.396 30.602.8 20 .8zm-.302 30.398h-.102c-1.564-.046-2.668-1.2-2.622-2.742.044-1.516 1.174-2.618 2.686-2.618l.092.004c1.608.046 2.7 1.188 2.654 2.774-.046 1.52-1.156 2.582-2.708 2.582zm6.582-13.062c-.368.52-1.176 1.172-2.196 1.966l-1.124.774c-.616.48-.988.934-1.126 1.376-.112.348-.164.442-.174 1.152v.18h-4.29l.012-.364c.054-1.488.09-2.368.708-3.094.97-1.136 3.11-2.516 3.2-2.574a3.3 3.3 0 0 0 .758-.774c.45-.622.648-1.11.648-1.586 0-.668-.196-1.286-.586-1.832-.376-.532-1.09-.796-2.122-.796-1.024 0-1.726.324-2.144.992-.432.682-.65 1.4-.65 2.134v.184h-4.422l.008-.192c.114-2.706 1.082-4.656 2.87-5.794 1.126-.722 2.528-1.088 4.162-1.088 2.136 0 3.944.52 5.364 1.544 1.442 1.038 2.172 2.594 2.172 4.622-.002 1.134-.36 2.2-1.068 3.17z" fill="#222" fill-rule="evenodd"/></svg>