<svg width="40" height="40" viewBox="0 0 40 40" xmlns="http://www.w3.org/2000/svg"><title>Informative</title><path d="M20.001 0C8.954 0 0 8.954 0 19.999 0 31.046 8.954 40 20.001 40 31.044 40 40 31.046 40 19.999 40 8.954 31.044 0 20.001 0zm1.867 7.22c1.95 0 2.522 1.132 2.522 2.425 0 1.615-1.291 3.109-3.497 3.109-1.846 0-2.725-.928-2.671-2.463 0-1.294 1.081-3.07 3.646-3.07zm-4.996 24.758c-1.333 0-2.306-.81-1.375-4.363l1.527-6.302c.265-1.008.308-1.412 0-1.412-.398 0-2.129.696-3.15 1.383l-.664-1.09c3.24-2.705 6.964-4.293 8.558-4.293 1.333 0 1.554 1.575.89 4l-1.75 6.625c-.311 1.17-.178 1.575.133 1.575.4 0 1.708-.484 2.995-1.498l.754 1.012c-3.152 3.15-6.587 4.363-7.918 4.363z" fill="#222" fill-rule="evenodd"/></svg>