<svg width="24" height="24" viewBox="0 0 24 24" xmlns="http://www.w3.org/2000/svg"><title>Phone</title><path d="M17.225 14.475c-.43 0-.804.095-1.11.293-.907.58-1.63 1.03-1.978 1.03-.19 0-.395-.17-.845-.56l-.075-.068c-1.248-1.084-1.514-1.363-1.998-1.868l-.122-.13c-.089-.088-.164-.17-.239-.245-.423-.436-.73-.75-1.813-1.977l-.048-.055c-.518-.586-.859-.968-.88-1.247-.02-.273.219-.716.825-1.541.737-.996.764-2.223.089-3.648-.539-1.125-1.418-2.202-2.195-3.15l-.068-.082C6.1.41 5.322 0 4.457 0c-.962 0-1.76.518-2.182.79-.034.021-.068.049-.102.07-.948.6-1.636 1.424-1.895 2.263-.389 1.261-.648 2.897 1.213 6.3 1.609 2.945 3.068 4.922 5.386 7.302 2.181 2.236 3.15 2.96 5.317 4.527C14.608 22.998 16.925 24 18.548 24c1.507 0 2.693 0 4.383-2.039 1.773-2.14 1.037-3.45-.027-4.547-.995-1.023-3.824-2.939-5.679-2.939z" fill="#222" fill-rule="evenodd"/></svg>