<svg width="40" height="40" viewBox="0 0 40 40" xmlns="http://www.w3.org/2000/svg"><title>Search</title><path d="M29.219 24.375a15.814 15.814 0 0 0 2.479-8.51C31.698 7.105 24.604 0 15.854 0 7.094 0 0 7.104 0 15.865c0 8.76 7.094 15.864 15.844 15.864a15.81 15.81 0 0 0 8.614-2.541l.72-.5L36.49 40 40 36.427 28.698 25.115l.52-.74zM24.729 7a12.442 12.442 0 0 1 3.667 8.854c0 3.344-1.302 6.49-3.667 8.854a12.442 12.442 0 0 1-8.854 3.667c-3.344 0-6.49-1.302-8.854-3.667a12.442 12.442 0 0 1-3.667-8.854c0-3.344 1.302-6.49 3.667-8.854a12.442 12.442 0 0 1 8.854-3.667c3.344 0 6.49 1.302 8.854 3.667z" fill="#000" fill-rule="evenodd"/></svg>