<?xml version="1.0" encoding="UTF-8" standalone="no"?>
<svg width="22px" height="22px" viewBox="0 0 22 22" version="1.1" xmlns="http://www.w3.org/2000/svg" xmlns:xlink="http://www.w3.org/1999/xlink">
    <!-- Generator: Sketch 40.1 (33804) - http://www.bohemiancoding.com/sketch -->
    <title>Icon</title>
    <desc>Created with Sketch.</desc>
    <defs></defs>
    <g id="Symbols" stroke="none" stroke-width="1" fill="none" fill-rule="evenodd">
        <g id="Components/Header/Primary-Navigation" transform="translate(-1258.000000, -20.000000)" fill="#FFFFFF">
            <g id="Primary-Navigation">
                <g id="Search" transform="translate(1238.000000, 0.000000)">
                    <path d="M36.0703125,33.40625 C36.9296875,32.0541667 37.4338542,30.45 37.4338542,28.7255208 C37.4338542,23.9072917 33.5322917,20 28.7197917,20 C23.9015625,20 20,23.9072917 20,28.7255208 C20,33.54375 23.9015625,37.4510417 28.7140625,37.4510417 C30.4614583,37.4510417 32.0885417,36.9354167 33.4520833,36.053125 L33.8473958,35.778125 L40.0692708,42 L42,40.0348958 L35.7838542,33.8130208 L36.0703125,33.40625 L36.0703125,33.40625 Z M33.6010417,23.85 C34.9015625,25.1505208 35.6177083,26.8807292 35.6177083,28.7197917 C35.6177083,30.5588542 34.9015625,32.2890625 33.6010417,33.5895833 C32.3005208,34.8901042 30.5703125,35.60625 28.73125,35.60625 C26.8921875,35.60625 25.1619792,34.8901042 23.8614583,33.5895833 C22.5609375,32.2890625 21.8447917,30.5588542 21.8447917,28.7197917 C21.8447917,26.8807292 22.5609375,25.1505208 23.8614583,23.85 C25.1619792,22.5494792 26.8921875,21.8333333 28.73125,21.8333333 C30.5703125,21.8333333 32.3005208,22.5494792 33.6010417,23.85 L33.6010417,23.85 Z" id="Icon"></path>
                </g>
            </g>
        </g>
    </g>
</svg>