<svg width="22" height="18" viewBox="0 0 22 18" xmlns="http://www.w3.org/2000/svg"><title>service</title><g fill="none" fill-rule="evenodd"><path d="M-1-3h24v24H-1z"/><path d="M20 0H2C.89 0 0 .89 0 2v12a2 2 0 0 0 2 2h5v2h8v-2h5c1.1 0 1.99-.9 1.99-2L22 2a2 2 0 0 0-2-2zm0 14H2V2h18v12z" fill="#000"/><path d="M14.038 8.4c.02-.12.02-.26.02-.4s-.02-.26-.02-.4l.859-.66c.082-.06.102-.16.04-.26L14.12 5.3c-.04-.08-.163-.12-.245-.08l-1.023.4c-.204-.16-.45-.3-.695-.4l-.143-1.06a.22.22 0 0 0-.205-.16h-1.636a.22.22 0 0 0-.205.16l-.164 1.06c-.245.1-.47.24-.695.4l-1.023-.4c-.102-.04-.205 0-.246.08l-.818 1.38c-.04.08-.02.2.041.26l.88.66c0 .14-.02.26-.02.4s.02.26.02.4l-.86.66c-.081.06-.101.16-.04.26l.818 1.38c.041.08.164.12.246.08l1.022-.4c.205.16.45.3.696.4l.163 1.06c.02.1.103.16.205.16h1.636a.22.22 0 0 0 .205-.16l.164-1.06c.245-.1.47-.24.695-.4l1.023.4c.102.04.205 0 .245-.08l.819-1.38c.04-.08.02-.2-.041-.26l-.9-.66zm-3.048 1c-.798 0-1.432-.62-1.432-1.4 0-.78.634-1.4 1.432-1.4.798 0 1.432.62 1.432 1.4 0 .78-.634 1.4-1.432 1.4z" fill="#000"/></g></svg>