<svg width="16" height="13" viewBox="0 0 16 13" xmlns="http://www.w3.org/2000/svg"><title>Shape</title><path d="M14.362 3.236c.007.14.01.284.01.424C14.371 8 11.07 13 5.031 13A9.285 9.285 0 0 1 0 11.525a6.589 6.589 0 0 0 4.86-1.358 3.286 3.286 0 0 1-3.067-2.28 3.355 3.355 0 0 0 1.483-.056 3.286 3.286 0 0 1-2.633-3.22v-.04c.442.246.95.394 1.487.41A3.282 3.282 0 0 1 1.114.6 9.318 9.318 0 0 0 7.88 4.03 3.28 3.28 0 0 1 11.077 0c.945 0 1.798.397 2.397 1.036a6.611 6.611 0 0 0 2.084-.797 3.294 3.294 0 0 1-1.443 1.816A6.567 6.567 0 0 0 16 1.538a6.628 6.628 0 0 1-1.638 1.698z" fill="#FFF" fill-rule="evenodd"/></svg>