<?xml version="1.0" encoding="utf-8"?><svg xmlns="http://www.w3.org/2000/svg" xmlns:xlink="http://www.w3.org/1999/xlink"><symbol viewBox="0 0 8 4" id="arrow-down"><title>android arrow dropdown</title><path d="M0 0l4 4 4-4z" fill="#222" fill-rule="evenodd"/></symbol><symbol viewBox="0 0 8 4" id="arrow-up"><title>android arrow dropdown</title><path d="M8 4L4 0 0 4z" fill="#222" fill-rule="evenodd"/></symbol><symbol viewBox="0 0 40 40" id="check"><title>Shape</title><path d="M20 0C8.955 0 0 8.955 0 20s8.955 20 20 20 20-8.955 20-20S31.045 0 20 0zm10.259 13.313L17.839 29.25c-.098.098-.259.313-.455.313-.205 0-.34-.143-.455-.26a9975.16 9975.16 0 0 0-7.045-6.776l-.134-.134a.523.523 0 0 1-.098-.286c0-.107.044-.205.098-.286a.937.937 0 0 0 .098-.107c.688-.723 2.08-2.187 2.17-2.276.116-.117.214-.268.428-.268.224 0 .367.187.474.294.107.107 4.018 3.866 4.018 3.866l9.937-12.767a.51.51 0 0 1 .313-.126.5.5 0 0 1 .312.117l2.732 2.151a.5.5 0 0 1 .116.313.463.463 0 0 1-.09.294z" fill="#222" fill-rule="evenodd"/></symbol><symbol viewBox="0 0 7 12" id="chevron-left"><title>Chevron_left</title><path d="M6.452.317c.446.436.481 1.043 0 1.576L2.705 5.801l3.747 3.908c.481.533.446 1.141 0 1.574-.445.436-1.197.408-1.615 0C4.419 10.877.335 6.588.335 6.588a1.095 1.095 0 0 1 0-1.576S4.419.725 4.837.317c.418-.409 1.17-.436 1.615 0z" fill="#FFF" fill-rule="evenodd"/></symbol><symbol viewBox="0 0 7 12" id="chevron-right"><title>Chevron_left</title><path d="M.348 11.283c-.446-.436-.481-1.043 0-1.576l3.747-3.908L.348 1.89C-.133 1.358-.098.75.348.317c.445-.436 1.197-.408 1.615 0 .418.406 4.502 4.695 4.502 4.695a1.095 1.095 0 0 1 0 1.576s-4.084 4.287-4.502 4.695c-.418.409-1.17.436-1.615 0z" fill="#FFF" fill-rule="evenodd"/></symbol><symbol viewBox="0 0 40 40" id="close"><title>Close</title><path d="M20 0C8.955 0 0 8.955 0 20s8.955 20 20 20 20-8.955 20-20S31.045 0 20 0zm9.67 26.741a.702.702 0 0 1 .205.5.687.687 0 0 1-.205.5l-1.93 1.939a.695.695 0 0 1-.5.205.718.718 0 0 1-.5-.205L20 22.929l-6.732 6.759a.68.68 0 0 1-.5.205.718.718 0 0 1-.5-.206l-1.929-1.937a.702.702 0 0 1-.205-.5c0-.188.071-.375.205-.5l6.76-6.786-6.778-6.696a.717.717 0 0 1 0-1.01l1.929-1.937a.702.702 0 0 1 .5-.205c.188 0 .366.072.5.205l6.759 6.67 6.759-6.67a.702.702 0 0 1 .5-.205c.187 0 .366.072.5.205l1.928 1.938a.717.717 0 0 1 0 1.009l-6.776 6.696 6.75 6.777z" fill="#222" fill-rule="evenodd"/></symbol><symbol viewBox="0 0 20 20" id="close-simple"><title>Shape</title><path d="M20 2l-2-2-8 8-8-8-2 2 8 8-8 8 2 2 8-8 8 8 2-2-8-8z" fill="#FFF" fill-rule="evenodd"/></symbol><symbol viewBox="0 0 20 20" id="contact"><title>Contact</title><g fill-rule="evenodd"><path d="M1.216 16.49a.938.938 0 0 1 .135.49L.769 20l2.702-1.063a1.135 1.135 0 0 1 .803-.014h.01c.019.01.038.015.057.024a7.33 7.33 0 0 0 2.784.548 7.212 7.212 0 0 0 5.52-2.529 8.57 8.57 0 0 1-2.121.274c-4.61 0-8.35-3.605-8.35-8.052 0-.568.062-1.116.177-1.65C.909 8.793 0 10.606 0 12.625a6.7 6.7 0 0 0 1.13 3.726c.029.038.058.091.086.14z"/><path d="M11.649 0C7.625 0 4.264 2.75 3.476 6.404a7.771 7.771 0 0 0-.178 1.649c0 4.447 3.736 8.053 8.351 8.053.736 0 1.442-.101 2.12-.274.39-.101.774-.217 1.144-.366l.068-.028c.005 0 .01 0 .01-.005a1.271 1.271 0 0 1 .932.014l3.298 1.24-.817-3.548c0-.211.058-.413.159-.586.028-.053.067-.101.1-.15a7.817 7.817 0 0 0 1.323-4.35C20 3.606 16.264 0 11.649 0z"/></g></symbol><symbol viewBox="0 0 20 19" id="easy-read"><title>Book</title><path d="M10.595 4.196l.446 1.371a4.135 4.135 0 0 1 1.441-.795c.59-.192 1.111-.3 1.582-.362l-.43-1.323a9.465 9.465 0 0 0-1.58.368 5.25 5.25 0 0 0-1.459.741zm.927 2.855l.446 1.371a4.135 4.135 0 0 1 1.441-.795c.59-.192 1.111-.3 1.582-.362l-.43-1.323a9.465 9.465 0 0 0-1.58.368 5.21 5.21 0 0 0-1.459.741zm.928 2.854l.446 1.371a4.135 4.135 0 0 1 1.441-.795c.59-.192 1.111-.3 1.582-.362l-.43-1.323a9.465 9.465 0 0 0-1.58.368 5.21 5.21 0 0 0-1.459.741zm-7.062 2.172l.43 1.323a8.745 8.745 0 0 1 1.492-.636 4.141 4.141 0 0 1 1.633-.203l-.446-1.371a5.25 5.25 0 0 0-1.615.257 9.406 9.406 0 0 0-1.494.63zM3.533 6.368l.43 1.323a8.825 8.825 0 0 1 1.492-.636 4.141 4.141 0 0 1 1.633-.203L6.643 5.48a5.263 5.263 0 0 0-1.616.258 9.406 9.406 0 0 0-1.494.63zm.927 2.855l.43 1.323a8.745 8.745 0 0 1 1.492-.636 4.141 4.141 0 0 1 1.633-.203L7.57 8.335a5.25 5.25 0 0 0-1.615.257 9.417 9.417 0 0 0-1.495.631zM11.064.41a5.26 5.26 0 0 0-3.053 2.559 5.257 5.257 0 0 0-3.973-.275C1.515 3.514.069 5.321.069 5.321l4.095 12.587c.126.387.646.477.878.143.499-.719 1.46-1.658 3.257-2.242 1.718-.558 2.969.054 3.655.578.272.208.662.06.762-.268.252-.827.907-2.04 2.61-2.593 1.799-.585 3.129-.389 3.956-.1.385.134.75-.242.625-.629L15.819.203s-2.232-.612-4.755.207zm-.113 13.846a5.208 5.208 0 0 0-3.141.044c-1.251.406-2.127.949-2.699 1.404L1.866 5.722c.358-.358 1.187-1.042 2.662-1.521 1.389-.451 2.528-.065 3.279.378l3.144 9.677zm6.894-2.689c-.731-.032-1.759.044-3.01.451a5.205 5.205 0 0 0-2.567 1.81L9.124 4.151c.346-.8 1.04-1.782 2.43-2.233 1.474-.479 2.547-.413 3.047-.334l3.244 9.983z" fill-rule="evenodd"/></symbol><symbol viewBox="0 0 16 11" id="email"><title>Shape</title><path d="M.51 1.179l6.667 3.693a1.7 1.7 0 0 0 .805.183 1.7 1.7 0 0 0 .806-.183l6.666-3.693C15.89.938 16.3 0 15.502 0H.463C-.334 0 .076.938.51 1.179zm15.146 2.02l-6.868 3.69c-.303.164-.514.183-.806.183-.291 0-.503-.02-.805-.182C6.875 6.727.837 3.462.343 3.197-.004 3.01 0 3.23 0 3.398v6.685c0 .385.503.917.889.917H15.11c.386 0 .889-.532.889-.917V3.4c0-.169.004-.388-.344-.2z" fill="#FFF" fill-rule="evenodd"/></symbol><symbol viewBox="0 0 24 24" id="email-sign"><title>Email</title><path d="M17.762 14.72c0 1.051.3 1.47 1.08 1.47 1.742 0 2.85-2.221 2.85-5.916 0-5.647-4.11-8.35-9.24-8.35-5.28 0-10.08 3.544-10.08 10.242 0 6.398 4.2 9.883 10.65 9.883 2.19 0 3.66-.24 5.908-.991l.483 2.01c-2.22.723-4.593.932-6.422.932C4.531 24 0 19.344 0 12.165 0 4.926 5.251 0 12.481 0 20.011 0 24 4.506 24 10.033c0 4.685-1.469 8.26-6.089 8.26-2.101 0-3.48-.841-3.66-2.705-.54 2.073-1.98 2.705-3.931 2.705-2.61 0-4.8-2.014-4.8-6.068 0-4.085 1.921-6.608 5.371-6.608 1.83 0 2.97.72 3.478 1.862l.871-1.592h2.52v8.833h.002zm-3.688-3.965c0-1.651-1.232-2.343-2.252-2.343-1.11 0-2.338.9-2.338 3.544 0 2.103.93 3.274 2.338 3.274.99 0 2.252-.63 2.252-2.373v-2.102z" fill="#222" fill-rule="evenodd"/></symbol><symbol viewBox="0 0 8 16" id="facebook"><title>Facebook icon</title><path d="M5.333 5.333V3.746c0-.717.159-1.08 1.271-1.08H8V0H5.67C2.818 0 1.876 1.308 1.876 3.554v1.78H0V8h1.875v8h3.458V8h2.35L8 5.333H5.333z" fill="#FFF" fill-rule="evenodd"/></symbol><symbol viewBox="0 0 40 40" id="help"><title>Shape</title><path d="M20 .8C9.396.8.8 9.396.8 20S9.396 39.2 20 39.2c10.602 0 19.2-8.596 19.2-19.202C39.2 9.396 30.602.8 20 .8zm-.302 30.398h-.102c-1.564-.046-2.668-1.2-2.622-2.742.044-1.516 1.174-2.618 2.686-2.618l.092.004c1.608.046 2.7 1.188 2.654 2.774-.046 1.52-1.156 2.582-2.708 2.582zm6.582-13.062c-.368.52-1.176 1.172-2.196 1.966l-1.124.774c-.616.48-.988.934-1.126 1.376-.112.348-.164.442-.174 1.152v.18h-4.29l.012-.364c.054-1.488.09-2.368.708-3.094.97-1.136 3.11-2.516 3.2-2.574a3.3 3.3 0 0 0 .758-.774c.45-.622.648-1.11.648-1.586 0-.668-.196-1.286-.586-1.832-.376-.532-1.09-.796-2.122-.796-1.024 0-1.726.324-2.144.992-.432.682-.65 1.4-.65 2.134v.184h-4.422l.008-.192c.114-2.706 1.082-4.656 2.87-5.794 1.126-.722 2.528-1.088 4.162-1.088 2.136 0 3.944.52 5.364 1.544 1.442 1.038 2.172 2.594 2.172 4.622-.002 1.134-.36 2.2-1.068 3.17z" fill="#222" fill-rule="evenodd"/></symbol><symbol viewBox="0 0 40 40" id="informative"><title>Informative</title><path d="M20.001 0C8.954 0 0 8.954 0 19.999 0 31.046 8.954 40 20.001 40 31.044 40 40 31.046 40 19.999 40 8.954 31.044 0 20.001 0zm1.867 7.22c1.95 0 2.522 1.132 2.522 2.425 0 1.615-1.291 3.109-3.497 3.109-1.846 0-2.725-.928-2.671-2.463 0-1.294 1.081-3.07 3.646-3.07zm-4.996 24.758c-1.333 0-2.306-.81-1.375-4.363l1.527-6.302c.265-1.008.308-1.412 0-1.412-.398 0-2.129.696-3.15 1.383l-.664-1.09c3.24-2.705 6.964-4.293 8.558-4.293 1.333 0 1.554 1.575.89 4l-1.75 6.625c-.311 1.17-.178 1.575.133 1.575.4 0 1.708-.484 2.995-1.498l.754 1.012c-3.152 3.15-6.587 4.363-7.918 4.363z" fill="#222" fill-rule="evenodd"/></symbol><symbol viewBox="0 0 18 18" id="instagram"><title>instagram</title><path d="M17.946 5.29a6.606 6.606 0 0 0-.418-2.185 4.412 4.412 0 0 0-1.039-1.594A4.412 4.412 0 0 0 14.895.472a6.606 6.606 0 0 0-2.184-.418C11.75.01 11.444 0 9 0S6.25.01 5.29.054a6.606 6.606 0 0 0-2.185.418A4.412 4.412 0 0 0 1.51 1.511 4.412 4.412 0 0 0 .472 3.105a6.606 6.606 0 0 0-.418 2.184C.01 6.25 0 6.556 0 9s.01 2.75.054 3.71a6.606 6.606 0 0 0 .418 2.185 4.412 4.412 0 0 0 1.039 1.594 4.411 4.411 0 0 0 1.594 1.039 6.606 6.606 0 0 0 2.184.418C6.25 17.99 6.556 18 9 18s2.75-.01 3.71-.054a6.606 6.606 0 0 0 2.185-.418 4.602 4.602 0 0 0 2.633-2.633 6.606 6.606 0 0 0 .418-2.184C17.99 11.75 18 11.444 18 9s-.01-2.75-.054-3.71zm-1.62 7.347a4.978 4.978 0 0 1-.31 1.67 2.98 2.98 0 0 1-1.708 1.709 4.979 4.979 0 0 1-1.671.31c-.95.043-1.234.052-3.637.052s-2.688-.009-3.637-.052a4.979 4.979 0 0 1-1.67-.31 2.788 2.788 0 0 1-1.036-.673 2.788 2.788 0 0 1-.673-1.035 4.978 4.978 0 0 1-.31-1.671c-.043-.95-.052-1.234-.052-3.637s.009-2.688.052-3.637a4.979 4.979 0 0 1 .31-1.67 2.788 2.788 0 0 1 .673-1.036 2.788 2.788 0 0 1 1.035-.673 4.979 4.979 0 0 1 1.671-.31c.95-.043 1.234-.052 3.637-.052s2.688.009 3.637.052a4.979 4.979 0 0 1 1.67.31 2.788 2.788 0 0 1 1.036.673 2.788 2.788 0 0 1 .673 1.035 4.979 4.979 0 0 1 .31 1.671c.043.95.052 1.234.052 3.637s-.009 2.688-.052 3.637zM9 4.378A4.622 4.622 0 1 0 13.622 9 4.622 4.622 0 0 0 9 4.378zM9 12a3 3 0 1 1 3-3 3 3 0 0 1-3 3zm5.884-7.804a1.08 1.08 0 1 1-1.08-1.08 1.08 1.08 0 0 1 1.08 1.08z" fill="#FFF"/></symbol><symbol viewBox="0 0 14 14" id="link-arrow"><title>Link Arrow</title><g fill="none" fill-rule="evenodd"><circle fill="#0872B9" cx="7" cy="7" r="7"/><path d="M6.402 3.211c.299.272 3.216 3.13 3.216 3.13.159.146.239.336.239.526s-.08.38-.24.525c0 0-2.916 2.86-3.215 3.13-.299.272-.836.29-1.154 0-.318-.29-.343-.694 0-1.05l2.677-2.605-2.677-2.605c-.343-.355-.318-.76 0-1.05.318-.291.855-.273 1.154 0z" fill="#FFF"/></g></symbol><symbol viewBox="0 0 20 20" id="linkedin"><path d="M5 3c0 1.1-.7 2-2 2-1.2 0-2-.9-2-1.9C1 2 1.8 1 3 1s2 .9 2 2zM1 19h4V6H1v13zM14.6 6.2c-2.1 0-3.3 1.2-3.8 2h-.1l-.2-1.7H6.9c0 1.1.1 2.4.1 3.9V19h4v-7.1c0-.4 0-.7.1-1 .3-.7.8-1.6 1.9-1.6 1.4 0 2 1.2 2 2.8V19h4v-7.4c0-3.7-1.9-5.4-4.4-5.4z"/></symbol><symbol viewBox="0 0 24 24" id="listen"><path d="M3 9v6h4l5 5V4L7 9H3zm13.5 3A4.5 4.5 0 0 0 14 7.97v8.05c1.48-.73 2.5-2.25 2.5-4.02zM14 3.23v2.06c2.89.86 5 3.54 5 6.71s-2.11 5.85-5 6.71v2.06c4.01-.91 7-4.49 7-8.77s-2.99-7.86-7-8.77z"/><path d="M0 0h24v24H0z" fill="none"/></symbol><symbol viewBox="0 0 20 20" id="map"><title>Map</title><path d="M19.447 3.718l-6-3a1 1 0 0 0-.895 0l-5.63 2.815-5.606-1.869A1 1 0 0 0 0 2.613v13.001c0 .379.214.725.553.894l6 3a1.006 1.006 0 0 0 .894 0l5.63-2.814 5.606 1.869a.999.999 0 0 0 1.316-.949V4.612a.996.996 0 0 0-.552-.894zM8 5.231l4-2v11.763l-4 2V5.231zM2 4l4 1.333v11.661l-4-2V4zm16 12.227l-4-1.334V3.231l4 2v10.996z" fill-rule="evenodd"/></symbol><symbol viewBox="0 0 20 20" id="menu"><title>menu</title><path d="M0 3h20v2H0V3zm0 6h20v2H0V9zm0 6h20v2H0v-2z" fill-rule="evenodd"/></symbol><symbol viewBox="0 0 40 40" id="new-window"><title>New Window</title><g fill="#0872B9" fill-rule="evenodd"><path d="M20 0l7.143 7.143-10 10c-3.429 3.428-3.429 8 0 11.428l15.714-15.714L40 20V0H20z"/><path d="M34.286 34.286H8.57c-1.714 0-2.857-1.143-2.857-2.857V5.714h8.572L8.57 0H0v31.429C0 36.286 3.714 40 8.571 40H40v-8.571l-5.714-5.715v8.572z"/></g></symbol><symbol viewBox="0 0 24 24" id="phone"><title>Phone</title><path d="M17.225 14.475c-.43 0-.804.095-1.11.293-.907.58-1.63 1.03-1.978 1.03-.19 0-.395-.17-.845-.56l-.075-.068c-1.248-1.084-1.514-1.363-1.998-1.868l-.122-.13c-.089-.088-.164-.17-.239-.245-.423-.436-.73-.75-1.813-1.977l-.048-.055c-.518-.586-.859-.968-.88-1.247-.02-.273.219-.716.825-1.541.737-.996.764-2.223.089-3.648-.539-1.125-1.418-2.202-2.195-3.15l-.068-.082C6.1.41 5.322 0 4.457 0c-.962 0-1.76.518-2.182.79-.034.021-.068.049-.102.07-.948.6-1.636 1.424-1.895 2.263-.389 1.261-.648 2.897 1.213 6.3 1.609 2.945 3.068 4.922 5.386 7.302 2.181 2.236 3.15 2.96 5.317 4.527C14.608 22.998 16.925 24 18.548 24c1.507 0 2.693 0 4.383-2.039 1.773-2.14 1.037-3.45-.027-4.547-.995-1.023-3.824-2.939-5.679-2.939z" fill="#222" fill-rule="evenodd"/></symbol><symbol viewBox="0 0 24 24" id="plus-sign"><title>Shape</title><path d="M12 0C5.373 0 0 5.373 0 12s5.373 12 12 12 12-5.373 12-12S18.627 0 12 0zm7.143 13.429h-5.714v5.714H10.57v-5.714H4.857V10.57h5.714V4.857h2.858v5.714h5.714v2.858z" fill="#222" fill-rule="evenodd"/></symbol><symbol viewBox="0 0 40 36" id="print"><title>Shape</title><path d="M34 10H6c-3.32 0-6 2.68-6 6v12h8v8h24v-8h8V16c0-3.32-2.68-6-6-6zm-6 22H12V22h16v10zm6-14c-1.1 0-2-.9-2-2s.9-2 2-2 2 .9 2 2-.9 2-2 2zM32 0H8v8h24V0z" fill="#222" fill-rule="evenodd"/></symbol><symbol viewBox="0 0 40 40" id="search"><title>Search</title><path d="M29.219 24.375a15.814 15.814 0 0 0 2.479-8.51C31.698 7.105 24.604 0 15.854 0 7.094 0 0 7.104 0 15.865c0 8.76 7.094 15.864 15.844 15.864a15.81 15.81 0 0 0 8.614-2.541l.72-.5L36.49 40 40 36.427 28.698 25.115l.52-.74zM24.729 7a12.442 12.442 0 0 1 3.667 8.854c0 3.344-1.302 6.49-3.667 8.854a12.442 12.442 0 0 1-8.854 3.667c-3.344 0-6.49-1.302-8.854-3.667a12.442 12.442 0 0 1-3.667-8.854c0-3.344 1.302-6.49 3.667-8.854a12.442 12.442 0 0 1 8.854-3.667c3.344 0 6.49 1.302 8.854 3.667z" fill-rule="evenodd"/></symbol><symbol viewBox="0 0 22 22" id="search-inverted"><title>Icon</title><path d="M16.07 13.406a8.698 8.698 0 0 0 1.364-4.68C17.434 3.907 13.532 0 8.72 0 3.902 0 0 3.907 0 8.726c0 4.818 3.902 8.725 8.714 8.725a8.695 8.695 0 0 0 4.738-1.398l.395-.275L20.07 22 22 20.035l-6.216-6.222.286-.407zM13.601 3.85a6.843 6.843 0 0 1 2.017 4.87 6.84 6.84 0 0 1-2.017 4.87 6.843 6.843 0 0 1-4.87 2.016 6.846 6.846 0 0 1-4.87-2.016 6.843 6.843 0 0 1-2.016-4.87c0-1.84.716-3.57 2.016-4.87a6.843 6.843 0 0 1 4.87-2.017c1.84 0 3.57.716 4.87 2.017z" fill="#FFF" fill-rule="evenodd"/></symbol><symbol viewBox="0 0 22 18" id="services"><title>service</title><g fill="none" fill-rule="evenodd"><path d="M-1-3h24v24H-1z"/><path d="M20 0H2C.89 0 0 .89 0 2v12a2 2 0 0 0 2 2h5v2h8v-2h5c1.1 0 1.99-.9 1.99-2L22 2a2 2 0 0 0-2-2zm0 14H2V2h18v12z" fill="#000"/><path d="M14.038 8.4c.02-.12.02-.26.02-.4s-.02-.26-.02-.4l.859-.66c.082-.06.102-.16.04-.26L14.12 5.3c-.04-.08-.163-.12-.245-.08l-1.023.4c-.204-.16-.45-.3-.695-.4l-.143-1.06a.22.22 0 0 0-.205-.16h-1.636a.22.22 0 0 0-.205.16l-.164 1.06c-.245.1-.47.24-.695.4l-1.023-.4c-.102-.04-.205 0-.246.08l-.818 1.38c-.04.08-.02.2.041.26l.88.66c0 .14-.02.26-.02.4s.02.26.02.4l-.86.66c-.081.06-.101.16-.04.26l.818 1.38c.041.08.164.12.246.08l1.022-.4c.205.16.45.3.696.4l.163 1.06c.02.1.103.16.205.16h1.636a.22.22 0 0 0 .205-.16l.164-1.06c.245-.1.47-.24.695-.4l1.023.4c.102.04.205 0 .245-.08l.819-1.38c.04-.08.02-.2-.041-.26l-.9-.66zm-3.048 1c-.798 0-1.432-.62-1.432-1.4 0-.78.634-1.4 1.432-1.4.798 0 1.432.62 1.432 1.4 0 .78-.634 1.4-1.432 1.4z" fill="#000"/></g></symbol><symbol viewBox="0 0 24 24" id="translate"><path fill="none" d="M0 0h24v24H0zm20 6h-8.82L15 19l-2 2h7c.55 0 1-.45 1-1V7c0-.55-.45-1-1-1z"/><path d="M20 5h-9.12L10 2H4c-1.1 0-2 .9-2 2v13c0 1.1.9 2 2 2h7l1 3h8c1.1 0 2-.9 2-2V7c0-1.1-.9-2-2-2zM7.17 14.59c-2.25 0-4.09-1.83-4.09-4.09s1.83-4.09 4.09-4.09c1.04 0 1.99.37 2.74 1.07l.07.06-1.23 1.18-.06-.05c-.29-.27-.78-.59-1.52-.59-1.31 0-2.38 1.09-2.38 2.42s1.07 2.42 2.38 2.42c1.37 0 1.96-.87 2.12-1.46H7.08V9.91h3.95l.01.07c.04.21.05.4.05.61 0 2.35-1.61 4-3.92 4zm6.03-1.71c.33.6.74 1.18 1.19 1.7l-.54.53-.65-2.23zm.77-.76h-.99l-.31-1.04h3.99s-.34 1.31-1.56 2.74c-.52-.62-.89-1.23-1.13-1.7zM21 20c0 .55-.45 1-1 1h-7l2-2-.81-2.77.92-.92L17.79 18l.73-.73-2.71-2.68c.9-1.03 1.6-2.25 1.92-3.51H19v-1.04h-3.64V9h-1.04v1.04h-1.96L11.18 6H20c.55 0 1 .45 1 1v13z"/></symbol><symbol viewBox="0 0 16 13" id="twitter"><title>Shape</title><path d="M14.362 3.236c.007.14.01.284.01.424C14.371 8 11.07 13 5.031 13A9.285 9.285 0 0 1 0 11.525a6.589 6.589 0 0 0 4.86-1.358 3.286 3.286 0 0 1-3.067-2.28 3.355 3.355 0 0 0 1.483-.056 3.286 3.286 0 0 1-2.633-3.22v-.04c.442.246.95.394 1.487.41A3.282 3.282 0 0 1 1.114.6 9.318 9.318 0 0 0 7.88 4.03 3.28 3.28 0 0 1 11.077 0c.945 0 1.798.397 2.397 1.036a6.611 6.611 0 0 0 2.084-.797 3.294 3.294 0 0 1-1.443 1.816A6.567 6.567 0 0 0 16 1.538a6.628 6.628 0 0 1-1.638 1.698z" fill="#FFF" fill-rule="evenodd"/></symbol><symbol viewBox="0 0 40 32" id="warning"><title>Icon/Warning</title><path d="M39.022 33.96L21.208.696A1.393 1.393 0 0 0 20 0c-.502 0-.962.266-1.208.696L.98 33.96a1.35 1.35 0 0 0 .01 1.36c.25.422.704.68 1.196.68h35.628c.49 0 .948-.258 1.196-.68.248-.418.252-.938.012-1.36zM22 32h-4v-4h4v4zm0-7h-4V12h4v13z" fill="#222" fill-rule="evenodd"/></symbol><symbol viewBox="0 0 512 385" id="youtube"><title>youtube</title><g fill="#FFF" fill-rule="evenodd"><path d="M265 32c65.3 0 118.7 1.1 168.1 3.3h1.4c23.1 0 42 22 42 49.1v1.1l.1 1.1c2.3 34 3.4 69.3 3.4 104.9.1 35.6-1.1 70.9-3.4 104.9l-.1 1.1v1.1c0 13.8-4.7 26.6-13.4 36.1-7.8 8.6-18 13.4-28.6 13.4h-1.6c-52.9 2.5-108.8 3.8-166.4 3.8h-10.6.1-10.9c-57.8 0-113.7-1.3-166.2-3.7h-1.6c-10.6 0-20.7-4.8-28.5-13.4-8.6-9.5-13.4-22.3-13.4-36.1v-1.1l-.1-1.1c-2.4-34.1-3.5-69.4-3.3-104.7v-.2c-.1-35.3 1-70.5 3.3-104.6l.1-1.1v-1.1c0-27.2 18.8-49.3 41.9-49.3h1.4c49.5-2.3 102.9-3.3 168.2-3.3H265V32zm0-32h-18C189.4 0 132.8.8 77.4 3.3 36.6 3.3 3.5 39.6 3.5 84.6 1 120.4-.1 156 0 191.7c-.1 35.7.9 71.3 3.4 107 0 45 33.1 81.6 73.9 81.6 54.8 2.6 110.7 3.8 167.8 3.8h21.6c57.1 0 113-1.2 167.9-3.8 40.9 0 74-36.6 74-81.6 2.4-35.7 3.5-71.4 3.4-107.1.1-35.7-1-71.3-3.4-107.1 0-45-33.1-81.1-74-81.1C379.2.8 322.7 0 265 0z"/><path d="M207 289.8V93.4l145 98.2z"/></g></symbol></svg>