<?xml version="1.0" encoding="UTF-8" standalone="no"?>
<svg width="14px" height="14px" viewBox="0 0 14 14" version="1.1" xmlns="http://www.w3.org/2000/svg" xmlns:xlink="http://www.w3.org/1999/xlink">
    <!-- Generator: Sketch 39.1 (31720) - http://www.bohemiancoding.com/sketch -->
    <title>Link Arrow</title>
    <desc>Created with Sketch.</desc>
    <defs></defs>
    <g id="Symbols" stroke="none" stroke-width="1" fill="none" fill-rule="evenodd">
        <g id="Link-Arrow">
            <g>
                <circle id="Oval" fill="#0872B9" cx="7" cy="7" r="7"></circle>
                <g id="Group-2" transform="translate(5.000000, 3.000000)" fill="#FFFFFF">
                    <path d="M1.40196343,0.211303893 C1.70053486,0.483303893 4.61767771,3.34130389 4.61767771,3.34130389 C4.77696343,3.48730389 4.85696343,3.67730389 4.85696343,3.86730389 C4.85696343,4.05730389 4.77696343,4.24730389 4.61767771,4.39197056 C4.61767771,4.39197056 1.70053486,7.25130389 1.40196343,7.52197056 C1.103392,7.79397056 0.566249142,7.81263723 0.248392,7.52197056 C-0.070179429,7.23263723 -0.095179429,6.82797056 0.248392,6.47263723 L2.92482057,3.86730389 L0.248392,1.26197056 C-0.095179429,0.906637226 -0.070179429,0.501303893 0.248392,0.211303893 C0.566249142,-0.079362774 1.103392,-0.061362774 1.40196343,0.211303893 L1.40196343,0.211303893 Z" id="Shape"></path>
                </g>
            </g>
        </g>
    </g>
</svg>