<?xml version="1.0" encoding="utf-8"?><svg width="40" height="36" viewBox="-10 -10 40 36" xmlns="http://www.w3.org/2000/svg"><title>Group</title><path d="M17.316 4.246c.008.162.011.326.011.488 0 4.99-3.797 10.742-10.74 10.742-2.133 0-4.116-.625-5.787-1.697a7.577 7.577 0 0 0 5.588-1.562 3.779 3.779 0 0 1-3.526-2.621 3.858 3.858 0 0 0 1.705-.065 3.779 3.779 0 0 1-3.028-3.703v-.047c.524.292 1.11.454 1.71.473a3.775 3.775 0 0 1-1.168-5.041 10.716 10.716 0 0 0 7.781 3.945A3.773 3.773 0 0 1 13.539.524a3.77 3.77 0 0 1 2.756 1.191 7.602 7.602 0 0 0 2.397-.916 3.789 3.789 0 0 1-1.66 2.088 7.55 7.55 0 0 0 2.168-.594 7.623 7.623 0 0 1-1.884 1.953z" fill-rule="evenodd"/></svg>