<?xml version="1.0" encoding="UTF-8" standalone="no"?><svg width="16" height="8.82" viewBox="0 0 185 102" xmlns="http://www.w3.org/2000/svg"><title>Page 1</title><g fill="none" fill-rule="evenodd"><path d="M182.888 37.364c-2.357-.477-5.04-.255-7.915.354-.265-.819-.092-1.14-.198-2.308-.31-.22-.669-.199-1.047-.08-2.213-3.838-4.754-2.726-7.094-3.269-.277-.029.101 1.018-.26.85-1.898-.703-3.04 2.056-4.852.6.003-1.212 1.39-.15 1.27-1.563-2.464 1.032-4.82 1.368-7.415 1.863-.223.51.416.753.185 1.036-.265.04-.584.354-.639-.687-1.75.966-3.67 1.162-5.28 2.008l-.216.051c-1.665.375-3.554-.12-5.244.14-.533.08-.96.735-1.509.803-3.869.478-7.464-.332-10.312 1.988-1.55-.286-3.048-.656-4.447-.345-.443.1-.933.414-1.368.48-20.865 3.171-41.457 6.833-62.44 10.934-1.29.666-2.742 1.168-4.295 1.582-25.273 4.252-32.164 7.74-57.763 9.55-2.296 5.486-2.072 16.6 2.734 20.95-.616 4.402 1.81 6.346 2.762 9.713.896 1.614 3.27 1.107 4.082 2.842-.719 2.732 1.665 2.686.391 5.035 2.105 1.125 4.565 1.736 7.863 1.143 8.016-2.308 9.111-2.374 18.258-3.856.163.243.332.472.56.601a3.17 3.17 0 0 1 .012-.694c7.41-1.202 6.8-1.075 13.655-2.845 10.931-1.902 6.308-1.13 15.84-2.259 2.2.94 4.112-.466 6.278-.793 7.062-1.063 29.798-3.937 36.706-6.227.865.281 1.77.29 2.705.161-2.48 1.225-7.16 2.75 1.288.107.625-.195 1.232-.495 1.836-.833 1.062-.29 2.154-.575 3.267-.696 4.347-.47 9.682-1.93 13.644-2.52 2.13-.319 4.25-.613 6.358-.96.773.051 1.543.056 2.293.23.175.02.088-.393.093-.655.172-.033.345-.065.517-.099.52.085.984-.079 1.428-.304a51.64 51.64 0 0 0 2.655-.655c.136.066.275.147.42.263-.004 1.211-1.39.15-1.27 1.564 2.462-1.034 4.82-1.37 7.414-1.864.222-.51-.417-.753-.186-1.034.266-.042.584-.354.64.685 1.737-.96 3.642-1.159 5.246-1.989.083-.022.167-.04.251-.06 1.665-.374 3.554.12 5.244-.139.533-.08.96-.735 1.51-.804 4.516-.558 8.663.654 11.678-3.429-.266.043-.563.25-.693-.41.347-.465 1.073-.305 1.116-1.268-.46-.948-1.077-1.089-1.626-1.579.53-2.842 3.418-1.803 4.055-4.468a.51.51 0 0 1-.225-.159c.535-.194.983-.526 1.191-1.3.096-1.118-.867-.394-.849-1.373.953-.913 3.19-.702 3.094-2.533-1.338-.506-2.925-.179-4.412.018.01-.018.02-.033.027-.053-.172-.235-.452-.023-.75.132a8.377 8.377 0 0 1-.645.031.54.54 0 0 1-.153-.153c.74-.768 1.422-.582 1.723-1.91 1.1.825 1.125-1.182 1.77-1.656-.016-.333-.095-.582-.168-.844.063-.066.128-.13.182-.204a1.76 1.76 0 0 0-.255-.095 2.857 2.857 0 0 1-.03-.945c-.15-.444-.33-.743-.528-.945.813-.33 1.513-.76 1.892-1.473-.923.34-1.429-.045-2.254.123.018-.875-.396-.999-.648-1.405-1.604.331-10.743 1.275-11.607.32 1.708-.32 11.823-1.65 13.186-3.306-.1-.97-.508-.37-.686-.946.308-.103.564-.289.415-1.144-.503-.359-.954-.99-1.487-1.198 1.693-1.466 2.853-3.303 3.032-5.823zm-21.66-4.334c.196.803-.046 1.1.332 1.276-.102.972-.549-.449-.847-.116-.153-.922.145-1.1.515-1.16zm-13.242 46.452c-.107-.44-.085-.724-.103-.924.208-.06.416-.127.623-.19.135.877-.156 1.055-.52 1.114z" fill="#13387F"/><path d="M169.7 63.13c-.404.095-1.016-.322-1.003.805.56-.227.982.753 1.004-.805M171.434 63.365c-.232-.326-1.157-.615-1.216.282.364.124.949.493 1.216-.282M172.14 63.091c-.268.007-.6-.137-.6.535.17.428.643.305.6-.535" fill="#13387F"/><path d="M60.149 77.817c-.224.368-.45.736-.671 1.105-.03.05-.036.124-.075.157-.434.365-.846.78-1.316 1.07-.486.299-.832-.003-1.098-.311-.333-.385-.628-.805-.933-1.214a.359.359 0 0 1-.067-.202c-.02-.942.069-1.87.686-2.78 1.145-1.692 2.268-3.398 3.4-5.1.034-.048.066-.098.115-.172-.067-.043-.123-.106-.198-.122-.933-.204-1.905-.26-2.913.024-1.003.28-1.803.958-2.392 1.876-.884 1.378-1.648 2.796-2.03 4.344a78.998 78.998 0 0 1-1.101 4.054 11.466 11.466 0 0 1-1.825 3.59c-.387.517-.786.653-1.157.555-.363-.097-.743-.25-.998-.606-.903-1.266-1.075-2.832-1.13-4.455-.05-1.494-.094-2.99-.141-4.484-.002-.04-.013-.078-.035-.213l-.231.5-1.263.243-.162-.827c-.591.312-1.041.747-1.42 1.244-.45.594-.84 1.23-1.29 1.826-.157.209-.126.609-.532.606l-.25.747c-.071.136-.356.164-.178.468.055.094-.192.403-.297.615-.146.293-.435.538-.378.903.015.1-.125.28-.23.39-.264.28-.37.597-.468.937-.122.419-.3.832-.443 1.25-.22.639-.315 1.267-.164 1.86-.546.465-1.261.354-1.59-.101-.16-.221-.35-.418-.465-.68-.296-.668-.298-.667-.26-1.407l-.64.505c.13.098.229.17.339.254-.074.193-.148.4-.236.603-.028.066-.092.162-.145.176-.48.124-.621.508-.682.892-.046.288-.172.449-.427.502-.532.11-.986.438-1.452.734-.172.109-.334.24-.507.345a.392.392 0 0 1-.221.044c-.233-.02-.46-.061-.693-.074-.216-.012-.441-.006-.57.368-.176-.41-.555-.413-.9-.508-.358-.1-.673-.308-.99-.495-.25-.146-.476-.327-.705-.502-.068-.053-.14-.124-.161-.208-.152-.61-.311-1.217-.428-1.841-.183-.974.12-1.985.429-2.981a23.419 23.419 0 0 1 1.882-4.442c.5-.903 1.023-1.82 1.793-2.557.366-.351.79-.646 1.204-.936.36-.253 1.036-.002 1.098.382.03.193.073.325.337.158.17-.107.432.068.44.289.014.38.113.669.464.83.112.05.168.309.14.474-.227 1.315-.41 2.644-1.286 3.853-.926 1.277-1.86 2.549-2.79 3.825-.19.263-.373.53-.561.797-.145.206-.115.357.046.479.568.432 1.227.49 1.997.169.238-.1.492-.13.738-.2.118-.033.238-.072.35-.128.567-.28 1.129-.573 1.696-.847.159-.077.33-.11.599-.123.328-2.04.673-4.08.977-6.118.21-1.405.367-2.81.536-4.213.028-.238.134-.316.345-.34.503-.058 1.073.279 1.25.75.257.687.397 1.406.176 2.224.403-.46.757-.93 1.174-1.328 1.355-1.3 2.274-1.631 4.027-.986.365.134.672.383.96.553.168-.811.386-1.668.499-2.52.048-.357-.055-.686.323-.982.059-.047.069-.168.124-.317l.134.407c.146-.12.272-.268.42-.334.354-.157.565-.044.72.272.175.355.268.712.276 1.14.045 2.45.118 4.896.188 7.342.008.29.057.574.098.957.104-.178.16-.282.224-.383.788-1.248 1.043-2.614 1.506-3.934.112-.32.185-.645.31-.96.075-.191.229-.361.322-.55.07-.145.106-.303.152-.455.042-.142.035-.321.123-.421.322-.366.447-.84.826-1.183.2-.181.29-.486.456-.72.28-.4.564-.8.88-1.171.13-.152.322-.341.557-.22.037.02.179-.068.228-.136.787-1.067 1.897-1.34 2.969-1.685.979-.316 1.962-.596 2.945-.88a1.02 1.02 0 0 1 .48-.031c.552.122 1.118.042 1.708-.076.619-.123 1.239-.147 1.859-.211.204-.021.408-.033.615-.05-.082.587.53.292.704.56l-.304.092c-.03.113-.058.232-.092.368.159.027.309.05.527.088-.188.163-.324.293-.471.405a1.085 1.085 0 0 0-.45.799 6.268 6.268 0 0 1-.285 1.256c-.787 2.343-1.427 4.696-1.84 7.067-.174 1.005.502 2.108 1.436 2.449.787.286 1.603.153 2.452-.203.202-.085.407-.158.607-.234.004-.037.016-.065.007-.076-.621-.846-.32-1.887-.09-2.931.547-2.47.872-4.933 1.12-7.393.065-.645.178-1.294.262-1.94.024-.188.118-.251.289-.28.506-.084 1.114.248 1.293.73.239.646.392 1.318.217 2.086-.011.05-.002.1-.002.222.45-.765 1.017-1.328 1.634-1.852.82-.695 1.685-.974 2.6-.796.872.17 1.69.416 2.106 1.26.086.175.068.3-.063.477-.145.195-.264.408-.407.634l-1.222.235c-.05-.254-.1-.521-.17-.89-.374.318-.763.555-1.023.886-.633.802-1.201 1.65-1.807 2.473-.101.138-.084.442-.383.368-.073.229-.148.458-.218.687-.008.027.01.058.019.104-.186.099-.403.157-.247.443.05.09-.17.364-.266.555-.156.314-.457.578-.413.964.012.105-.155.259-.227.395-.156.298-.328.594-.45.9-.19.48-.348.966-.512 1.45-.194.575-.241 1.134-.111 1.688-.24.224-.512.389-.786.297-.342-.116-.626.049-.97.272.077.113.145.214.22.329-.277.158-.566.308-.843.485-.174.11-.33.26-.493.396-.027.022-.042.064-.07.08-.594.37-1.224.63-1.853.617-1.142-.025-1.981-.598-2.707-1.33-.202-.204-.367-.447-.548-.672-.025-.031-.038-.081-.071-.095-.641-.272-.63-.987-.831-1.553-.092-.26-.146-.538-.218-.807l-.095-.033m-26.617-1.3c-1.37 1.438-2.1 3.137-2.637 4.913 1.01-1.584 2.366-3.024 2.637-4.913M15.972 83.125l.27.15c-.01-.188-.025-.334-.025-.483 0-.14.017-.283.028-.451.074.04.123.069.264.147-.033-.294-.05-.517-.084-.734-.024-.152-.195-.311.06-.45.232-.126.388.013.47.183.15.31.264.645.407.96.034.074.13.11.162.137.17.6.274 1.216.516 1.747.226.494.518 1 .933 1.31.41.307.995.419 1.533.538.677.149 1.384.13 2.136.018.944-.141 1.77-1.247 1.65-2.307-.257-2.302-1.347-4.151-2.132-6.17a72.112 72.112 0 0 1-1.365-3.916c-.246-.758-.434-1.546-.612-2.335-.284-1.256-.082-2.556.469-3.873.13-.315.29-.621.423-.935.053-.125.064-.26.109-.458.088-.085.226-.24.385-.363.07-.053.183-.037.276-.056.049-.01.1-.017.144-.042a.433.433 0 0 0 .137-.114c.47-.657 1.125-.786 1.783-1.003 1.123-.371 2.078-.14 3.039.137.196.057.395.132.604.13.51-.006.845.236 1.099.604.618.895.86 1.98 1.04 3.099a4.467 4.467 0 0 1-.365 2.643c-.395-.073-.704.152-.948.412-.237-.193-.455-.385-.69-.556-.214-.156-.281-.372-.243-.664.015-.11-.053-.213-.057-.326-.01-.251-.097-.492.127-.767.098-.121.172-.34.143-.467-.123-.552-.246-1.11-.448-1.621-.221-.56-.777-.732-1.341-.817-.218-.033-.464.033-.69-.048-.112-.04-.34.054-.466.157-.496.396-.995.795-1.446 1.243-.21.206-.327.52-.46.795-.487 1.02-.57 2.018-.307 2.966a51.494 51.494 0 0 0 1.409 4.324 96.926 96.926 0 0 0 1.7 4.286c.54 1.263.78 2.634.845 4.074.02.46-.09.952-.141 1.43-.028.265.008.548-.1.79-.185.423-.442.83-.7 1.227-.142.218-.352.397-.522.6-.386.458-.907.638-1.393.853-.81.358-1.62.518-2.414.312-.278-.072-.567-.218-.931-.015-.081.045-.243-.107-.361-.178-.237-.144-.45-.332-.708-.435-1.136-.452-1.867-1.306-2.367-2.403-.101-.223-.228-.43-.336-.65-.085-.171-.29-.3-.115-.572-.347-.42-.026-1.113-.352-1.55-.07-.092-.027-.278-.042-.513M152.931 58.058l-.268.417a10.632 10.632 0 0 1-.13-.126c-.027.033-.05.059-.07.087-.409.595-.824 1.186-1.219 1.789-.092.14-.114.318-.17.478-.046.128-.067.273-.144.38-.53.73-1.065 1.46-1.614 2.177-.44.575-.907 1.129-1.349 1.702-.075.097-.082.24-.132.4-1.012.738-1.905.505-2.745-.792-.283.234-.573.456-.843.703-.333.303-.68.525-1.1.542a.25.25 0 0 0-.066.013c-1.18.406-1.934-.065-2.517-.877-.135-.187-.258-.383-.382-.58-.246-.388-.4-.812-.366-1.336.02-.313-.038-.616-.129-.93-.295.513-.588 1.025-.885 1.535-.615 1.057-1.263 2.095-2.107 3.008-.634.685-1.389 1.01-2.202.952-.304-.023-.57-.2-.909-.326-.267.239-.629.493-.9.82-.453.544-1.022.815-1.604 1.084-.07.032-.159 0-.238-.008-.05-.005-.1-.043-.143-.026-.29.113-.576.243-.867.352-.079.03-.17.01-.253.004-2.019-.152-3.116-1.341-3.662-3.18-.372-1.254-.327-2.6-.08-3.965.295-1.638.615-3.288 1.09-4.913.744-2.542 1.216-5.118 2.22-7.628.351-.878.78-1.737 1.155-2.61.161-.374.281-.76.45-1.222.17-.122.408-.136.65-.025.116.053.266.135.381.093.361-.133.418.097.544.31.243.413.33.887.36 1.383.011.174-.078.375-.133.563-.963 3.315-1.882 6.637-2.913 9.944a34.61 34.61 0 0 0-1.18 4.97c-.18 1.142-.315 2.276-.189 3.378.07.605.795.918 1.367.574.08-.047.174-.116.247-.112.686.035 1.222-.413 1.772-.834.08-.062.187-.13.272-.133.442-.015.89-.412.986-.865.276-1.295.807-2.542 1.41-3.766.533-1.084 1.117-2.151 1.7-3.217.487-.89 1.15-1.651 1.904-2.347.314-.29.677-.577.788-1.035.015-.066.187-.115.278-.185.228-.177.485-.335.667-.551.165-.197.271-.192.453-.151.266.06.548.104.832.083.094-.007.248-.222.315-.361.182-.378.227-.403.523-.22.05.03.154.006.226-.024.535-.226 1.521.166 1.591.684.044.32.045.686-.054 1.017-.803 2.689-1.196 5.373-1.455 8.057-.033.35.03.694.078 1.03.01.07.161.15.241.13.347-.093.706-.181 1.035-.347.49-.246.962-.55 1.433-.848a.593.593 0 0 0 .227-.313c.367-1.533.998-3 1.825-4.41.967-1.65 1.945-3.296 2.96-4.922.581-.934 1.303-1.767 2.28-2.313.205-.115.42-.21.63-.305.376-.17.672-.152.877.183.133.217.347.365.327.692-.006.1.142.215.253.26.291.117.588.236.905.288.521.086.785.46 1.048.836.218.31.128.724.058 1.11-.387 2.144-.758 4.288-1.187 6.43-.605 3.023-.278 3.248-.976 6.267-.299 1.296-.829 2.58-1.255 3.87-.073.22-.15.44-.224.66-.154.47-.228.957-.619 1.364-.122.127-.183.336-.229.512-.217.828-.684 1.545-1.236 2.228-.152.188-.313.37-.456.563-.716.968-1.679 1.214-2.567 1.055-.939-.167-1.838-.57-2.425-1.305-.569-.714-1.005-1.548-1.472-2.35-.106-.182-.122-.44-.142-.673-.038-.474-.025-.963-.079-1.431-.087-.747.07-1.495.35-2.277l.161.054c.023-.043.063-.088.063-.126.002-.786.613-1.391.938-2.08.16-.337-.504 2.16-.285 1.84l.086.042c-.106.256.72-2.29.614-2.033l.05.058.434-.438c-.03.225-.019.373-.074.503-.185.432-.416.853-.582 1.289-.075.195-.024.415-.06.624-.013.074-.116.15-.15.192-.033.325-.039.649-.1.973-.312 1.628.161 2.935.914 4.128.198.315.4.63.634.915.37.45 1.425.356 1.788-.231.652-1.055 1.48-2.028 1.915-3.191.96-2.566.9-2.345 1.37-4.966.473-2.634.886-5.268 1.326-7.902.038-.23.078-.46.135-.79m-1.043-3.937c-1.572 2.404-2.899 4.894-3.78 7.552a98.943 98.943 0 0 0 1.714-2.238c.983-1.326 1.884-2.7 2.621-4.155.116-.23.17-.482.236-.68-.187.023-.346.088-.399.039-.147-.137-.25-.322-.392-.518m-15.073 8.524l.154.008 2.6-4.798-.187-.222c-1.037 1.496-1.853 3.085-2.609 4.699-.04.087.026.208.042.313M122.678 58.799l-.218 1.033-1.035.698.36.108c-.226.52-.637.745-1.054.914-.373.15-.677.338-.869.721a.655.655 0 0 1-.212.243c-.094.062-.21.08-.3.11-.158.122-.299.261-.46.35-.464.255-.953.454-1.399.743-.62.401-1.294.64-1.909 1.042-.079.052-.202.091-.232.157-.207.467-.692.605-.998.946-.103.116-.209.27-.236.407-.184.926-.412 1.858-.494 2.776-.05.557.123 1.095.215 1.634.068.4-.28 1.009-.664 1.149-.21.077-.334.023-.425-.136-.055-.096-.099-.211-.183-.273-.568-.413-.825-1.024-.846-1.772-.022-.739-.015-1.485-.01-2.229.004-.473.037-.951.037-1.423a.63.63 0 0 0-.117-.342c-.16-.231-.357-.433-.509-.669-.124-.193-.205-.419-.33-.685l-.194-.052.04.074c-.152.113-.296.246-.457.334-.526.288-1.082.516-1.583.848-.559.37-1.18.549-1.724.939-.078.056-.202.094-.23.16-.192.447-.654.577-.943.9-.126.14-.26.323-.293.489-.186.914-.406 1.836-.485 2.742-.048.558.128 1.094.22 1.634.066.396-.292 1.036-.68 1.127-.13.031-.295-.037-.395-.118a1.794 1.794 0 0 1-.383-.451c-.205-.328-.463-.639-.564-1.018-.237-.887-.22-1.849-.11-2.824.011-.1.014-.2.027-.3.112-.861.003-1.614-.625-2.13-.236-.194-.262-.482-.179-.821.057-.232.063-.468.09-.702.034-.321.322-.596.624-.595.36.003.527-.105.625-.485.17-.656.353-1.316.443-1.971.357-2.585 1.057-5.15 1.768-7.717.36-1.299.708-2.599 1.056-3.899.138-.517.343-.987.835-1.32.241-.163.424-.169.62-.02.161.124.366.194.627.326.073.167.152.468.317.699.383.536.286 1.148.053 1.813-.065.184-.043.383-.062.574-.018.187-.009.377-.062.56-.572 1.985-1.178 3.967-1.726 5.954-.294 1.065-.493 2.138-.739 3.208-.042.181.03.258.185.233.195-.031.392-.091.587-.151.243-.075.48-.231.718-.08.067.043.232-.039.35-.079 1.215-.403 2.427-.822 3.645-1.205.327-.103.498-.216.545-.585.326-2.583 1.042-5.15 1.754-7.716.357-1.288.7-2.577 1.045-3.866.138-.513.332-.989.823-1.328.253-.174.442-.187.648-.027.161.123.37.187.614.304.078.181.155.472.312.697.38.544.307 1.162.058 1.842-.067.181-.038.382-.056.574-.016.175-.008.354-.058.526-.58 2.007-1.193 4.011-1.748 6.021-.29 1.053-.49 2.116-.715 3.175-.015.073.093.216.158.211.192-.013.391-.075.585-.134.254-.077.501-.237.75-.086.07.042.232-.046.35-.084 1.434-.466 2.866-.938 4.3-1.397.385-.124.775-.211 1.127-.305M98.064 72.046c1.445-.948 2.677-2.124 3.883-3.496-.129.727.106 1.347-.376 1.975.087.052.225.088.222.146-.003.093-.097.202-.158.302-.079.13-.234.271-.233.383.002.346-.239.515-.459.738-.38.386-.725.807-1.085 1.214-.032.036-.08.076-.087.114-.156.838-.868.966-1.43 1.152-1.166.39-1.941-.127-2.545-.925-.067-.088-.124-.183-.187-.274-.004-.008-.015-.01-.025-.018-.017.01-.047.016-.05.027-.153.516-.617.726-.969 1.064-.743.713-1.6 1.035-2.474 1.312-.32.1-.678.1-.988.05-1.448-.229-2.206-1.192-2.544-2.565-.136-.555-.231-1.128-.365-1.788-.261.504-.499.915-.692 1.341-.524 1.158-1.137 2.27-1.965 3.281a1.4 1.4 0 0 0-.222.326c-.047.113-.046.238-.08.436-.22.275-.513.627-.788.99-.278.367-.6.505-1.022.59-.662.131-1.07-.136-1.468-.499-.48-.436-.813-.955-.856-1.674-.069-1.128.22-2.26.579-3.394.602-1.909 1.42-3.764 2.357-5.582.381-.738.83-1.463 1.535-1.975.323-.235.668-.468 1.013-.19.044.036.197-.055.287-.107.754-.012 1.397.226 1.879.877.117-.262.2-.412.251-.566.684-2.086 1.319-4.18 2.059-6.255.492-1.38 1.132-2.734 1.714-4.096.037-.088.162-.224.221-.222.54.018 1.115-.028 1.602.12.7.21.72.83.313 1.597-.212.4-.329.78-.438 1.194-.2.763-.496 1.518-.763 2.274-.174.494-.405.982-.542 1.48-.18.65-.27 1.307-.434 1.96-.382 1.512-.822 3.021-1.167 4.535-.193.844-.266 1.697-.351 2.542-.034.341.09.667.063 1.01-.046.564-.158 1.136-.243 1.705-.008.056-.026.112-.03.168-.035.497.052.58.528.623.444.04.875-.082 1.29-.32a59.933 59.933 0 0 0 2.058-1.26c.085-.054.191-.238.173-.31-.229-.882-.113-1.82.104-2.759.311-1.347.685-2.692 1.04-4.037.118-.452.257-.903.39-1.354.174-.576.865-1.052 1.495-.999a2 2 0 0 1 1.433.767c.175.218.202.486.13.82-.197.912-.3 1.831-.526 2.742-.281 1.143-.645 2.281-.978 3.421-.194.661-.222 1.016-.08 1.39m-13.597 1.24c.284-.39.562-.76.827-1.14.102-.148.18-.31.263-.469.07-.132.11-.344.201-.385.32-.146.41-.44.547-.69.09-.16.081-.348.319-.428.06-.02.103-.212.141-.327.028-.082.005-.21.05-.244.532-.394.419-.874.409-1.328-.007-.238-.085-.46-.138-.725-.248.23-.472.38-.615.583-.157.224-.21.512-.36.743-.594.913-1.058 1.867-1.343 2.872-.142.503-.201 1.015-.301 1.538M160.694 54.8l.159-1.306c-.42.448-.396.946-.552 1.397l-.087.003c.022-.176.025-.353.068-.527.562-2.225 1.129-4.45 1.696-6.675l.836-3.27c.008-.033 0-.083.02-.098.46-.37.25-.886.504-1.315.265-.449.436-.942.65-1.415.21-.462.41-.928.64-1.382.237-.465.505-.919.759-1.377.006-.01.016-.018.017-.019.614.065.633-.515.897-.902l.222.398.359-.367c.264.256.377.717.858.693.193.92-.138 1.825-.491 2.72-.378.958-.835 1.9-1.186 2.861-.664 1.818-1.25 3.653-1.917 5.47-.49 1.334-1.058 2.653-1.58 3.95-.82.031-.75.728-.996 1.112l-.876.048M97.674 56.783c.737-.283 1.44-.558 2.146-.817a.375.375 0 0 1 .306.029c.305.21.51.472.592.9.066.347.095.676.076 1.039-.013.25.064.486.082.734.026.378-.074.528-.438.704-.553.267-1.296.103-1.69-.194-.78-.588-.972-1.49-1.074-2.395M160.094 59.965c.039-.016.06-.026.08-.032.726-.22 1.315-.158 1.5.495-.007.293-.052.525-.01.724.113.543-.143 1.005-.507 1.445-.181.219-.886.4-1.091.246a3.149 3.149 0 0 1-.71-.743c-.152-.224-.253-.452-.583-.26.019-.216.032-.418.055-.62.025-.208.612-.852.799-.82.364.064.359-.22.467-.435" fill="#FC0"/><path d="M151.68 59.768l.644-.86.056.038-.605.884a5.063 5.063 0 0 1-.094-.062" fill="#FC0"/><path fill="#13387F" d="M22.159 44.71h129.284V.635H22.159z"/><path fill="#4DC2EF" d="M68.266 18.72h15.978v-3.398H68.266z"/><path fill="#FC0" d="M68.258 24.117h15.977v-3.079H68.258z"/><path fill="#E52729" d="M68.265 29.976h15.979v-3.482H68.265z"/><path fill="#FFF" d="M36.83 15.359h6.896l5.077 9.42 5.075-9.42h6.893v14.635h-4.368V19.483h-.04l-5.885 10.51h-3.354l-5.885-10.51H41.2v10.51h-4.37zM91.208 20.518c0-4.223 2.37-5.221 6.356-5.221h5.205c6.298 0 7.115 1.355 7.075 5.444h-4.425v-.402c0-1.034-.757-1.335-2.069-1.335h-4.83c-2.33 0-2.767 1.097-2.767 2.889v1.559c0 2.092.436 2.891 2.533 2.891h4.722c1.99 0 2.59-.202 2.59-1.996h4.425v1.359c0 2.431-.877 4.342-5.32 4.342h-7.139c-3.987 0-6.356-.995-6.356-5.221v-4.309zM122.88 15.359h5.846l8.046 14.635h-4.988l-1.395-2.584h-9.102l-1.315 2.584h-5.013l7.921-14.635zm.085 8.898h5.745l-2.915-5.501-2.83 5.501z"/></g></svg>