<?xml version="1.0" encoding="UTF-8" standalone="no"?>
<svg width="40px" height="40px" viewBox="0 0 40 40" version="1.1" xmlns="http://www.w3.org/2000/svg" xmlns:xlink="http://www.w3.org/1999/xlink">
    <!-- Generator: Sketch 39.1 (31720) - http://www.bohemiancoding.com/sketch -->
    <title>Search</title>
    <desc>Created with Sketch.</desc>
    <defs></defs>
    <g id="Symbols" stroke="none" stroke-width="1" fill="none" fill-rule="evenodd">
        <g id="Icons/Search" fill="#000000">
            <g id="Search">
                <path d="M29.21875,24.375 C30.78125,21.9166667 31.6979167,19 31.6979167,15.8645833 C31.6979167,7.10416667 24.6041667,0 15.8541667,0 C7.09375,0 0,7.10416667 0,15.8645833 C0,24.625 7.09375,31.7291667 15.84375,31.7291667 C19.0208333,31.7291667 21.9791667,30.7916667 24.4583333,29.1875 L25.1770833,28.6875 L36.4895833,40 L40,36.4270833 L28.6979167,25.1145833 L29.21875,24.375 L29.21875,24.375 Z M24.7291667,7 C27.09375,9.36458333 28.3958333,12.5104167 28.3958333,15.8541667 C28.3958333,19.1979167 27.09375,22.34375 24.7291667,24.7083333 C22.3645833,27.0729167 19.21875,28.375 15.875,28.375 C12.53125,28.375 9.38541667,27.0729167 7.02083333,24.7083333 C4.65625,22.34375 3.35416667,19.1979167 3.35416667,15.8541667 C3.35416667,12.5104167 4.65625,9.36458333 7.02083333,7 C9.38541667,4.63541667 12.53125,3.33333333 15.875,3.33333333 C19.21875,3.33333333 22.3645833,4.63541667 24.7291667,7 L24.7291667,7 Z" id="Icon"></path>
            </g>
        </g>
    </g>
</svg>