<?xml version="1.0" encoding="utf-8"?><svg width="16" height="16" viewBox="0 0 22 22" xmlns="http://www.w3.org/2000/svg"><title>Icon</title><path d="M16.07 13.406a8.698 8.698 0 0 0 1.364-4.68C17.434 3.907 13.532 0 8.72 0 3.902 0 0 3.907 0 8.726c0 4.818 3.902 8.725 8.714 8.725a8.695 8.695 0 0 0 4.738-1.398l.395-.275L20.07 22 22 20.035l-6.216-6.222.286-.407zM13.601 3.85a6.843 6.843 0 0 1 2.017 4.87 6.84 6.84 0 0 1-2.017 4.87 6.843 6.843 0 0 1-4.87 2.016 6.846 6.846 0 0 1-4.87-2.016 6.843 6.843 0 0 1-2.016-4.87c0-1.84.716-3.57 2.016-4.87a6.843 6.843 0 0 1 4.87-2.017c1.84 0 3.57.716 4.87 2.017z" fill="#FFF" fill-rule="evenodd"/></svg>