<?xml version="1.0" encoding="utf-8"?><svg width="16" height="13.74" viewBox="0 0 85 73" xmlns="http://www.w3.org/2000/svg"><title>images</title><g fill="#DFDFDF" fill-rule="evenodd"><path d="M80.58 14.448l-15.583-.758-.907-10.201c-.189-2.143-2.097-3.64-4.326-3.47L3.854 4.626C1.623 4.816.018 6.617.188 8.741l4.004 44.71c.19 2.143 2.116 3.64 4.326 3.47l2.833-.227-.453 8.684c-.113 2.389 1.738 4.323 4.231 4.456L77.5 72.81c2.493.114 4.552-1.63 4.685-4.02l2.625-49.924c.113-2.37-1.757-4.304-4.231-4.418zm-67.056 1.005l-1.34 25.56-3.287 4.683-3.023-33.75v-.19c.095-.948.813-1.707 1.795-1.782l49.3-4.058c.982-.076 1.832.569 1.983 1.498 0 .038.057.038.057.076 0 .019.057.038.057.075l.51 5.84-41.367-1.99c-2.493-.076-4.571 1.668-4.685 4.038zm63.108 44.919l-8.82-10.486-5.195-6.2c-.454-.55-1.19-1.005-2.003-1.043-.812-.038-1.416.285-2.096.778l-3.098 2.256c-.661.398-1.171.664-1.87.626a2.685 2.685 0 0 1-1.719-.72c-.151-.152-.434-.418-.661-.645l-8.084-9.272c-.586-.74-1.55-1.214-2.607-1.27-1.077-.058-2.116.398-2.796 1.061l-19.096 20.63-1.285 1.403.057-1.29 1.284-24.44.624-11.927v-.189c.264-1.024 1.17-1.764 2.247-1.707l38.572 1.858 5.42.266 11.013.53c1.095.058 1.945.892 1.964 1.935 0 .038.057.057.057.095 0 .037.057.056.057.094l-1.965 37.657z"/><path d="M64.638 37.6c3.664 0 6.649-2.996 6.649-6.675 0-3.678-2.966-6.674-6.65-6.674-3.664 0-6.648 2.977-6.648 6.674 0 3.698 2.965 6.675 6.649 6.675z"/></g></svg>