<?xml version="1.0" standalone="no"?>
<!DOCTYPE svg PUBLIC "-//W3C//DTD SVG 1.1//EN" "http://www.w3.org/Graphics/SVG/1.1/DTD/svg11.dtd" >
<svg xmlns="http://www.w3.org/2000/svg">
<metadata></metadata>
<defs>
<font id="karbonlight" horiz-adv-x="1665" >
<font-face units-per-em="2048" ascent="1649" descent="-399" />
<missing-glyph horiz-adv-x="454" />
<glyph horiz-adv-x="0" />
<glyph unicode="&#xd;" horiz-adv-x="595" />
<glyph horiz-adv-x="0" />
<glyph horiz-adv-x="0" />
<glyph unicode=" "  horiz-adv-x="454" />
<glyph unicode="&#x09;" horiz-adv-x="454" />
<glyph unicode="&#xa0;" horiz-adv-x="454" />
<glyph unicode="!" horiz-adv-x="563" d="M215 61q0 29 18.5 48.5t49.5 19.5q27 0 46 -19.5t19 -48.5t-19.5 -47t-45.5 -18q-31 0 -49.5 18t-18.5 47zM242 375v1042h80v-1042h-80z" />
<glyph unicode="&#x22;" horiz-adv-x="585" d="M139 1090l41 446h72l-47 -446h-66zM344 1090l37 446h76l-47 -446h-66z" />
<glyph unicode="#" horiz-adv-x="1142" d="M59 467v63h242l76 375h-240v66h252l90 446h74l-90 -446h319l90 446h76l-92 -446h225v-66h-235l-78 -375h240v-63h-252l-94 -467h-76l96 467h-320l-96 -467h-73l96 467h-230zM375 530h319l76 375h-319z" />
<glyph unicode="$" horiz-adv-x="1007" d="M98 1094q0 80 29 140t77 103t112.5 68t138.5 29v186h65v-184q88 -4 166 -32t131 -75v-92q-72 61 -142.5 92t-154.5 35v-600q86 -31 154.5 -65.5t118 -81t76 -110t26.5 -153.5q0 -88 -29.5 -152.5t-81 -111.5t-120 -73.5t-144.5 -32.5v-211h-65v207q-111 4 -202 35.5 t-153 82.5v95q84 -70 170 -104t185 -36v658q-80 31 -145.5 62.5t-112.5 76.5t-73 103.5t-26 140.5zM176 1094q0 -111 62.5 -177.5t216.5 -128.5v574q-115 -10 -197 -77.5t-82 -190.5zM520 55q123 12 209 85t86 214q0 68 -21.5 118t-59.5 88t-93 66.5t-121 59.5v-631z" />
<glyph unicode="%" horiz-adv-x="1476" d="M94 1130q0 66 23.5 122.5t66.5 97.5t99.5 63.5t117.5 22.5t117.5 -22.5t97.5 -63.5t66 -97.5t25 -122.5t-25 -122t-66 -97t-97 -63.5t-118 -22.5q-61 0 -117.5 22.5t-99.5 63.5t-66.5 97t-23.5 122zM170 1130q0 -111 65.5 -174t165.5 -63q96 0 164 63.5t68 173.5 q0 109 -67.5 172.5t-164.5 63.5q-100 0 -165.5 -63.5t-65.5 -172.5zM266 0l864 1419h78l-862 -1419h-80zM768 287q0 70 23.5 125t65.5 96t98.5 63.5t117.5 22.5q63 0 119.5 -22.5t98.5 -63.5t65.5 -96t23.5 -125q0 -68 -23.5 -124.5t-65.5 -96t-98 -61t-120 -21.5 q-61 0 -117.5 21.5t-98.5 61t-65.5 96t-23.5 124.5zM842 287q0 -106 66.5 -172t164.5 -66q100 0 167 66t67 172q0 111 -66.5 174t-167.5 63q-98 0 -164.5 -63.5t-66.5 -173.5z" />
<glyph unicode="&#x26;" horiz-adv-x="1290" d="M98 344q0 68 18.5 124t59.5 108.5t108.5 99.5t161.5 100l-69 72q-20 20 -46 49t-47.5 65.5t-36 82t-14.5 98.5q0 57 20.5 110.5t60.5 94.5t96.5 64.5t130.5 23.5q154 0 235.5 -87t81.5 -216q0 -66 -23.5 -119t-63.5 -98.5t-94 -83t-116 -72.5l422 -441q47 82 69.5 174.5 t22.5 192.5h70q0 -111 -29 -219.5t-84 -196.5l258 -270h-98l-203 209q-80 -104 -195.5 -166.5t-271.5 -62.5q-90 0 -168 25.5t-135 72.5t-89 112.5t-32 153.5zM176 344q0 -72 28.5 -127t77 -92t111 -57.5t129.5 -20.5q141 0 245.5 57.5t176.5 151.5l-450 469 q-152 -82 -235 -167t-83 -214zM309 1143q0 -76 33 -129t90 -117l82 -86q47 25 94 54.5t86 67.5t63.5 87t24.5 113q-2 106 -67.5 168.5t-173.5 64.5q-57 0 -99.5 -18.5t-71 -51t-45 -72.5t-16.5 -81z" />
<glyph unicode="'" horiz-adv-x="382" d="M139 1090l41 446h72l-47 -446h-66z" />
<glyph unicode="(" horiz-adv-x="667" d="M125 643q0 168 34 311.5t93 265t137 223t164 177.5h90q-84 -84 -165 -180.5t-144.5 -212t-101 -260t-37.5 -324.5q0 -176 37.5 -321.5t101 -263t144.5 -213t165 -181.5h-90q-86 80 -164 180.5t-137 222t-93 266t-34 310.5z" />
<glyph unicode=")" horiz-adv-x="667" d="M25 -336q86 86 166.5 181.5t144 213t99.5 263t36 321.5q0 180 -36 324.5t-99.5 260t-144 212t-166.5 180.5h90q84 -76 162.5 -177.5t137 -223t93.5 -265t35 -311.5q0 -166 -35 -310.5t-93.5 -266t-137 -222t-162.5 -180.5h-90z" />
<glyph unicode="*" horiz-adv-x="722" d="M59 1380l19 58l254 -86l-2 268h61l-2 -268l254 86l21 -58l-258 -82l163 -213l-51 -34l-160 213l-153 -213l-49 30l157 215z" />
<glyph unicode="+" horiz-adv-x="1036" d="M94 664v69h389v389h70v-389h389v-69h-389v-390h-70v390h-389z" />
<glyph unicode="," horiz-adv-x="466" d="M-2 -305q84 76 144.5 198.5t60.5 262.5h86q0 -72 -19.5 -140.5t-50.5 -130t-72 -111.5t-81 -79h-68z" />
<glyph unicode="-" horiz-adv-x="847" d="M152 588v69h542v-69h-542z" />
<glyph unicode="." horiz-adv-x="466" d="M168 61q0 29 18.5 48.5t46.5 19.5q29 0 48.5 -19.5t19.5 -48.5t-19.5 -47t-48.5 -18t-47 18t-18 47z" />
<glyph unicode="/" horiz-adv-x="913" d="M43 -330l739 1950h76l-739 -1950h-76z" />
<glyph unicode="0" horiz-adv-x="1249" d="M106 709q0 162 38 295t103.5 230t163 149.5t214.5 52.5q119 0 215 -52.5t162.5 -149.5t103.5 -230.5t37 -294.5q0 -162 -37 -296t-103.5 -231.5t-163 -149.5t-214.5 -52q-117 0 -214.5 52t-163 149.5t-103.5 231.5t-38 296zM186 709q0 -154 32 -276t90.5 -208t139 -131 t177.5 -45q98 0 178 45t138 131t91 208t33 276q0 152 -33 273.5t-91 207.5t-138 131t-178 45q-96 0 -177 -45t-139.5 -131t-90.5 -207.5t-32 -273.5z" />
<glyph unicode="1" horiz-adv-x="651" d="M35 1296v68l389 72v-1436h-78v1348z" />
<glyph unicode="2" horiz-adv-x="974" d="M12 0v57q143 123 279.5 246t243 248t171 248t64.5 245q0 158 -81 239t-222 81q-123 0 -221.5 -59.5t-171.5 -155.5v92q61 78 161.5 136.5t231.5 58.5q164 0 273.5 -95.5t109.5 -296.5q0 -129 -68.5 -261t-173 -259t-233.5 -243.5t-248 -210.5h756v-70h-871z" />
<glyph unicode="3" horiz-adv-x="921" d="M47 106v87q78 -70 164 -107t186 -37q166 0 258.5 85t92.5 228t-111 222.5t-315 105.5v53q197 51 294 134.5t97 226.5q0 121 -79 191.5t-200 70.5q-123 0 -211 -56.5t-157 -142.5v86q51 74 145 128.5t223 54.5q170 0 265.5 -94.5t95.5 -237.5q0 -72 -28 -134.5t-75 -110.5 t-110.5 -82t-141.5 -52q76 -6 144.5 -33.5t124 -73t88 -110t32.5 -146.5q0 -174 -116.5 -278t-315.5 -104q-106 0 -201.5 37.5t-148.5 88.5z" />
<glyph unicode="4" horiz-adv-x="1134" d="M25 420v53l716 944h101v-934h245v-63h-245v-420h-76v420h-741zM119 483h647v858z" />
<glyph unicode="5" horiz-adv-x="940" d="M53 90v84q74 -61 152 -93t174 -32q176 0 275.5 94.5t99.5 249.5q0 102 -44 175t-123 121t-188.5 77t-238.5 43l43 608h596v-74h-529l-32 -473q119 -14 228 -46.5t191 -90t130.5 -141.5t48.5 -199q0 -86 -29 -161.5t-86 -131t-143 -88t-199 -32.5q-104 0 -190.5 32.5 t-135.5 77.5z" />
<glyph unicode="6" horiz-adv-x="1097" d="M94 432q0 129 44 237.5t106 202.5l354 545h88l-367 -555l-100 -153q55 72 143.5 121t190.5 49q98 0 181 -31t145.5 -88.5t98.5 -140t36 -187.5q0 -88 -30 -169t-88 -143.5t-144 -101t-199 -38.5q-109 0 -195 38.5t-144 101t-89 143.5t-31 169zM172 432q0 -86 29.5 -156.5 t81 -121t120 -78t150.5 -27.5q80 0 149.5 27.5t120.5 78t82 121t31 156.5t-28.5 154.5t-80 119t-123 77t-151.5 26.5t-149.5 -26.5t-121 -77t-81 -119t-29.5 -154.5z" />
<glyph unicode="7" horiz-adv-x="907" d="M25 1343v74h835v-67l-641 -1350h-82l641 1343h-753z" />
<glyph unicode="8" horiz-adv-x="1155" d="M119 381q0 78 26.5 141.5t70.5 111.5t102.5 78.5t119.5 41.5q-45 14 -88 38.5t-76.5 64.5t-55 94.5t-21.5 121.5q0 86 29.5 152.5t80.5 113.5t121 72t147 25q80 0 150 -25t121 -72t80.5 -113.5t29.5 -152.5q0 -68 -20.5 -122t-54 -94t-77.5 -64.5t-89 -38.5 q63 -10 121.5 -41t102.5 -79t69.5 -111.5t25.5 -141.5q0 -94 -35.5 -169t-96 -127t-144 -78.5t-183.5 -26.5q-94 0 -179 26.5t-144 78.5t-96 127t-37 169zM199 381q0 -82 30.5 -144.5t81.5 -104.5t120.5 -63.5t143.5 -21.5q78 0 148 21.5t121 63.5t80.5 104.5t29.5 144.5 q0 86 -30.5 148.5t-81.5 104.5t-120 61.5t-147 19.5q-72 0 -141 -19.5t-120.5 -61.5t-83 -104.5t-31.5 -148.5zM276 1073q0 -68 24 -123t67 -92t97 -56.5t111 -19.5q63 0 116.5 19.5t95.5 56.5t67 92.5t25 122.5q0 72 -25 126t-67 92t-95 57.5t-117 19.5q-57 0 -111 -19.5 t-97 -57.5t-67 -92t-24 -126z" />
<glyph unicode="9" horiz-adv-x="1097" d="M82 985q0 88 29.5 169t89 144.5t145.5 100.5t197 37t196.5 -37t144 -100.5t88 -144.5t29.5 -169q0 -129 -43 -237.5t-106 -204.5l-354 -543h-86l366 553l101 156q-55 -72 -144.5 -121t-191.5 -49q-94 0 -179 29.5t-146.5 87t-98.5 141.5t-37 188zM162 985 q0 -86 28.5 -155.5t80 -118.5t122 -76t150.5 -27t150.5 27t121.5 76t81 118.5t30 155.5q0 84 -30 155.5t-81 121t-120.5 77t-151.5 27.5q-80 0 -149.5 -27.5t-121 -77t-81 -121t-29.5 -155.5z" />
<glyph unicode=":" horiz-adv-x="466" d="M168 61q0 29 18.5 48.5t46.5 19.5q29 0 48.5 -19.5t19.5 -48.5t-19.5 -47t-48.5 -18t-47 18t-18 47zM168 920q0 31 18.5 49t46.5 18q29 0 48.5 -18.5t19.5 -48.5q0 -27 -19.5 -47.5t-48.5 -20.5t-47 20.5t-18 47.5z" />
<glyph unicode=";" horiz-adv-x="466" d="M-2 -305q84 76 144.5 198.5t60.5 262.5h86q0 -72 -19.5 -140.5t-50.5 -130t-72 -111.5t-81 -79h-68zM174 920q0 31 19.5 49t48.5 18t47 -18.5t18 -48.5q0 -27 -18.5 -47.5t-46.5 -20.5q-29 0 -48.5 20.5t-19.5 47.5z" />
<glyph unicode="&#x3c;" horiz-adv-x="759" d="M59 688v10l619 379v-82l-496 -301l496 -301v-84z" />
<glyph unicode="=" horiz-adv-x="1050" d="M100 522v70h850v-70h-850zM100 809v70h850v-70h-850z" />
<glyph unicode="&#x3e;" horiz-adv-x="759" d="M82 309v84l498 301l-498 301v82l618 -379v-10z" />
<glyph unicode="?" horiz-adv-x="905" d="M68 1180v92q49 70 147 117t213 47q100 0 176 -30t126 -82t74.5 -123t24.5 -148q0 -111 -38.5 -190t-99 -132t-133.5 -88t-134 -59v-209h-80v254q88 29 162 66.5t127 88t84 115t31 156.5q0 61 -19.5 117.5t-58.5 97.5t-98.5 66.5t-143.5 25.5q-211 0 -360 -182zM322 61 q0 29 18 48.5t49 19.5q27 0 47.5 -19.5t20.5 -48.5t-20.5 -47t-47.5 -18q-31 0 -49 18t-18 47z" />
<glyph unicode="@" horiz-adv-x="1832" d="M106 520q0 180 61.5 337t175.5 270.5t273.5 179t356.5 65.5q172 0 310 -51t236.5 -143.5t150.5 -221.5t52 -282q0 -152 -52 -269.5t-145 -198.5t-222 -125t-283 -44q-111 0 -202 32.5t-157.5 92t-103.5 145.5t-37 195q0 217 130 341t356 124q72 0 147.5 -14.5 t132.5 -43.5v-764q158 57 259.5 183.5t101.5 345.5q0 141 -49.5 259t-137.5 199.5t-212 126t-275 44.5q-184 0 -331.5 -61.5t-249 -170t-154 -250t-52.5 -301.5q0 -219 80 -368.5t203 -243.5t273.5 -137t289.5 -43q150 0 263.5 22.5t228.5 67.5v-72q-88 -41 -209 -65.5 t-283 -24.5q-154 0 -318.5 47t-299.5 149.5t-221.5 267.5t-86.5 400zM598 502q0 -182 114.5 -289t305.5 -107q51 0 102 6.5t88 16.5v733q-31 12 -87 23.5t-115 11.5q-88 0 -163 -23.5t-128 -72.5t-85 -123t-32 -176z" />
<glyph unicode="A" horiz-adv-x="1282" d="M33 0l555 1417h98l561 -1417h-82l-170 428h-712l-166 -428h-84zM309 502h656l-332 841z" />
<glyph unicode="B" horiz-adv-x="1120" d="M221 8v1411q66 6 129.5 11.5t116.5 5.5q133 0 229.5 -26t153.5 -74t84 -114.5t27 -148.5q0 -152 -92.5 -242t-239.5 -108q82 -4 151.5 -29.5t122.5 -69.5t82 -105.5t29 -141.5q0 -184 -130 -290.5t-411 -106.5q-57 0 -122.5 8t-129.5 20zM301 70q43 -8 88 -11.5t84 -3.5 q240 0 348.5 80t108.5 242q0 154 -124 229.5t-347 75.5h-158v-612zM301 754h156q195 0 308.5 80.5t113.5 238.5q0 154 -108.5 222.5t-303.5 68.5q-74 0 -166 -8v-602z" />
<glyph unicode="C" horiz-adv-x="1351" d="M119 709q0 162 54 295t148.5 229t225.5 149.5t282 53.5q109 0 208.5 -26t183.5 -81v-96q-78 70 -181.5 99.5t-210.5 29.5q-129 0 -243.5 -45t-199.5 -130t-136 -206t-51 -272q0 -150 51 -273t140 -207t209 -129t253 -45q109 0 209 24.5t184 88.5v-86q-66 -51 -175 -76.5 t-218 -25.5q-158 0 -293 52t-232.5 148t-152.5 229.5t-55 299.5z" />
<glyph unicode="D" horiz-adv-x="1462" d="M221 2v1417q80 10 139.5 12.5t100.5 2.5q236 0 402.5 -51.5t272 -144.5t156.5 -222t51 -281q0 -162 -49 -299t-153.5 -237.5t-263 -157.5t-381.5 -57q-74 0 -137.5 4t-137.5 14zM301 68q51 -6 97 -9.5t98 -3.5q362 0 564 171t202 509q0 289 -197 458t-604 169 q-41 0 -77 -1t-83 -7v-1286z" />
<glyph unicode="E" horiz-adv-x="1116" d="M221 0v1417h764v-74h-684v-579h643v-74h-643v-618h692v-72h-772z" />
<glyph unicode="F" horiz-adv-x="1007" d="M221 0v1417h697v-74h-617v-598h571v-69h-571v-676h-80z" />
<glyph unicode="G" horiz-adv-x="1423" d="M119 700q0 162 54 297.5t148.5 232.5t225.5 151.5t282 54.5q109 0 208.5 -26t183.5 -81v-96q-78 70 -181.5 99.5t-210.5 29.5q-129 0 -243.5 -46t-199.5 -132t-136 -209t-51 -275q0 -150 51 -270.5t141 -204.5t210 -127t251 -43q111 0 186.5 14.5t155.5 53.5v465h80v-510 q-86 -47 -185.5 -72.5t-236.5 -25.5q-158 0 -293 52t-232.5 148t-152.5 228.5t-55 291.5z" />
<glyph unicode="H" horiz-adv-x="1574" d="M221 0v1417h80v-653h973v653h80v-1417h-80v690h-973v-690h-80z" />
<glyph unicode="I" horiz-adv-x="524" d="M221 0v1417h80v-1417h-80z" />
<glyph unicode="J" horiz-adv-x="817" d="M31 100v97q70 -70 143.5 -106t149.5 -36q123 0 177 63.5t54 207.5v1091h82v-1104q0 -172 -83 -252.5t-230 -80.5q-90 0 -167 34.5t-126 85.5z" />
<glyph unicode="K" horiz-adv-x="1187" d="M221 0v1417h80v-1417h-80zM311 694l707 723h106l-702 -717l756 -700h-119z" />
<glyph unicode="L" horiz-adv-x="983" d="M221 0v1417h80v-1345h635v-72h-715z" />
<glyph unicode="M" horiz-adv-x="1820" d="M90 0l262 1417h115l442 -1313l443 1313h116l261 -1417h-82l-246 1341l-447 -1341h-88l-452 1331l-242 -1331h-82z" />
<glyph unicode="N" horiz-adv-x="1544" d="M221 0v1417h80l940 -1300v1300h80v-1417h-82l-938 1298v-1298h-80z" />
<glyph unicode="O" d="M119 709q0 162 54 296t148.5 230t226.5 148.5t286 52.5q152 0 282.5 -52.5t226 -148.5t149.5 -230.5t54 -295.5q0 -162 -54 -297.5t-149.5 -231.5t-226.5 -148t-282 -52q-154 0 -286 52t-226.5 148t-148.5 231.5t-54 297.5zM199 709q0 -150 50 -273t134 -207t199.5 -129 t251.5 -45q131 0 246.5 45t200.5 129t134 207t49 273t-49 271.5t-134 206.5t-200.5 130t-246.5 45q-135 0 -251 -45t-200 -130t-134 -207t-50 -271z" />
<glyph unicode="P" horiz-adv-x="1036" d="M221 0v1419q35 6 92.5 11.5t100.5 5.5q272 0 411.5 -107.5t139.5 -316.5q0 -213 -139.5 -333t-413.5 -120q-35 0 -62.5 1t-48.5 3v-563h-80zM301 633q23 -2 49.5 -2h61.5q229 0 350 93t121 288q0 74 -23.5 138t-79 111.5t-144.5 75t-222 27.5q-25 0 -58.5 -1t-54.5 -3 v-727z" />
<glyph unicode="Q" d="M119 709q0 162 54 296t148.5 230t226.5 148.5t286 52.5q152 0 282.5 -52.5t226 -148.5t149.5 -230.5t54 -295.5q0 -150 -46 -276t-127 -218t-193.5 -151.5t-247.5 -75.5l309 -312h-104l-297 304h-6q-154 0 -286 52t-226.5 148t-148.5 231.5t-54 297.5zM199 709 q0 -150 50 -273t134 -207t199.5 -129t251.5 -45q131 0 246.5 45t200.5 129t134 207t49 273t-49 271.5t-134 206.5t-200.5 130t-246.5 45q-135 0 -251 -45t-200 -130t-134 -207t-50 -271z" />
<glyph unicode="R" horiz-adv-x="1165" d="M221 0v1413q41 10 101.5 16.5t109.5 6.5q254 0 392.5 -105.5t138.5 -316.5q0 -88 -27 -160t-73 -124t-107.5 -86t-132.5 -48l516 -596h-105l-497 580h-236v-580h-80zM301 649h170q186 0 297 93.5t111 271.5q0 174 -119 263t-328 89q-31 0 -66.5 -2t-64.5 -8v-707z" />
<glyph unicode="S" horiz-adv-x="1007" d="M100 98v95q86 -76 176.5 -108t190.5 -32q72 0 134.5 17.5t108.5 54.5t73.5 93t27.5 136q0 72 -23.5 124t-66.5 92t-105.5 70t-138.5 58q-84 35 -153.5 66t-117.5 77t-76 107.5t-28 145.5q0 86 33 149.5t86 106.5t123 64.5t148 21.5q94 0 181 -29t144 -78v-92 q-76 68 -154.5 97.5t-170.5 29.5q-66 0 -122.5 -16.5t-97.5 -51t-65.5 -85t-24.5 -117.5q0 -59 16.5 -104.5t54.5 -82.5t98.5 -69.5t146.5 -65.5q90 -33 163.5 -67.5t124 -82t78 -112t27.5 -156.5q0 -94 -34 -162.5t-92 -116.5t-135 -71.5t-163 -23.5q-113 0 -209 32.5 t-158 85.5z" />
<glyph unicode="T" horiz-adv-x="1122" d="M35 1343v74h1050v-74h-485v-1343h-80v1343h-485z" />
<glyph unicode="U" horiz-adv-x="1411" d="M182 463v954h80v-962q0 -119 41 -196t109.5 -123t160 -63.5t191.5 -17.5q188 0 346 35v1327h80v-1382q-109 -25 -210 -40t-216 -15q-119 0 -224.5 22.5t-185.5 77.5t-126 147t-46 236z" />
<glyph unicode="V" horiz-adv-x="1257" d="M33 1417h86l512 -1327l508 1327h86l-551 -1417h-90z" />
<glyph unicode="W" horiz-adv-x="1787" d="M33 1417h82l370 -1343l363 1343h96l361 -1343l370 1343h80l-395 -1417h-109l-356 1323l-358 -1323h-109z" />
<glyph unicode="X" horiz-adv-x="1193" d="M33 0l516 735l-479 682h92l436 -622l434 622h92l-481 -684l518 -733h-92l-475 670l-467 -670h-94z" />
<glyph unicode="Y" horiz-adv-x="1183" d="M33 1417h92l469 -755l471 755h86l-520 -835v-582h-80v582z" />
<glyph unicode="Z" horiz-adv-x="1120" d="M55 0v66l897 1277h-835v74h934v-63l-901 -1282h915v-72h-1010z" />
<glyph unicode="[" horiz-adv-x="651" d="M188 -330v1950h342v-59h-270v-1827h270v-64h-342z" />
<glyph unicode="\" horiz-adv-x="913" d="M55 1620h76l739 -1950h-75z" />
<glyph unicode="]" horiz-adv-x="651" d="M119 -266h272v1827h-272v59h344v-1950h-344v64z" />
<glyph unicode="^" horiz-adv-x="882" d="M59 846l340 573h82l342 -573h-86l-297 504l-295 -504h-86z" />
<glyph unicode="_" horiz-adv-x="1030" d="M119 -207h790v-65h-790v65z" />
<glyph unicode="`" horiz-adv-x="1191" d="M457 1585h78l202 -360h-80z" />
<glyph unicode="a" horiz-adv-x="989" d="M100 287q0 162 140.5 234.5t377.5 72.5h121v154q0 115 -60.5 177t-174.5 62q-88 0 -159 -19.5t-138 -60.5v76q55 33 132 54.5t167 21.5q150 0 230.5 -73t80.5 -228v-742q-53 -16 -119.5 -26t-126.5 -10q-219 0 -345 77.5t-126 229.5zM180 287q0 -61 30 -106.5t83 -74 t124.5 -44t153.5 -15.5q47 0 86 4t82 17v456h-118q-199 0 -320 -52t-121 -185z" />
<glyph unicode="b" horiz-adv-x="1183" d="M193 27v1593h77v-614q39 18 110 35.5t155 17.5q115 0 214 -33t171.5 -100.5t113.5 -168t41 -233.5q0 -127 -43 -228t-118.5 -171t-182 -107.5t-233.5 -37.5q-70 0 -157 12t-148 35zM270 82q47 -16 107.5 -24.5t120.5 -8.5q238 0 367.5 129t129.5 346q0 115 -36.5 202 t-98 145.5t-145.5 88t-180 29.5q-86 0 -151 -14t-114 -37v-856z" />
<glyph unicode="c" horiz-adv-x="1042" d="M111 522q0 127 41 227.5t112.5 169t164.5 104.5t196 36q170 0 293 -86v-86q-61 51 -138.5 75.5t-154.5 24.5q-88 0 -167 -32.5t-138.5 -92t-93 -145.5t-33.5 -195t33.5 -194.5t92 -147t139.5 -94.5t173 -33q94 0 166.5 20.5t138.5 65.5v-73q-55 -41 -136 -63.5 t-169 -22.5q-106 0 -201.5 38.5t-166 107.5t-111.5 171t-41 225z" />
<glyph unicode="d" horiz-adv-x="1179" d="M111 518q0 133 44 233.5t122.5 169t178 103.5t208.5 35q72 0 144.5 -15.5t111.5 -35.5v612h79v-1608q-148 -32 -288 -32h-9q-129 0 -238.5 36.5t-189 104t-121.5 168t-42 229.5zM193 518q0 -113 35.5 -200t104 -146t162 -91t207.5 -32q63 0 115.5 4t102.5 15v868 q-47 25 -114 39t-142 14q-98 0 -184.5 -30.5t-151 -90t-100 -148.5t-35.5 -202z" />
<glyph unicode="e" horiz-adv-x="1112" d="M111 524q0 106 36.5 204.5t100 171.5t154 116t192.5 43q195 0 304.5 -123t109.5 -330v-65h-822v-17q0 -111 32 -197.5t90.5 -148t138 -93.5t174.5 -32q102 0 183 25.5t159 93.5v-84q-68 -57 -160 -82.5t-182 -25.5q-104 0 -197.5 36.5t-162 106.5t-109.5 170t-41 231z M193 606h735q0 176 -88 279.5t-246 103.5q-74 0 -142.5 -28.5t-122 -80t-89 -122t-47.5 -152.5z" />
<glyph unicode="f" horiz-adv-x="591" d="M57 973v67h158v293q0 147 71.5 227t209.5 80q59 0 103 -13t75 -36v-86q-41 31 -82 47.5t-96 16.5q-98 0 -149.5 -59.5t-51.5 -190.5v-279h297v-67h-297v-973h-80v973h-158z" />
<glyph unicode="g" horiz-adv-x="1179" d="M111 524q0 127 42 226.5t121.5 167t189 104.5t238.5 37q74 0 158 -17.5t139 -42.5v-1013q0 -115 -36.5 -198t-99 -135t-143.5 -77t-171 -25q-92 0 -173 18.5t-130 47.5v82q131 -76 303 -76q74 0 141.5 18.5t118.5 63.5t81 117t30 176v37q-37 -23 -107 -36t-137 -13 q-125 0 -228.5 33.5t-179 101t-116.5 168t-41 235.5zM193 524q0 -217 122.5 -343t360.5 -126q68 0 125 9.5t119 35.5v856q-49 16 -101.5 24.5t-116.5 8.5q-121 0 -216 -33.5t-160.5 -95t-99 -145.5t-33.5 -191z" />
<glyph unicode="h" horiz-adv-x="1179" d="M193 0v1620h77v-621q78 25 160 42.5t156 17.5q199 0 307 -81t108 -263v-715h-79v696q0 88 -27 144.5t-72 88.5t-106.5 44t-130.5 12q-96 0 -178 -17.5t-138 -37.5v-930h-77z" />
<glyph unicode="i" horiz-adv-x="460" d="M164 1343q0 29 19.5 46.5t45.5 17.5q25 0 45.5 -17.5t20.5 -46.5t-20.5 -47t-45.5 -18q-27 0 -46 18.5t-19 46.5zM193 0v1040h77v-1040h-77z" />
<glyph unicode="j" horiz-adv-x="460" d="M-123 -346q31 -10 69 -21.5t70 -11.5q78 0 127.5 44t49.5 173v1202h77v-1198q0 -139 -59 -215t-195 -76q-39 0 -76.5 8.5t-62.5 20.5v74zM164 1343q0 29 19.5 46.5t45.5 17.5q25 0 45.5 -17.5t20.5 -46.5t-20.5 -47t-45.5 -18q-27 0 -46 18.5t-19 46.5z" />
<glyph unicode="k" horiz-adv-x="1034" d="M193 0v1620h77v-1620h-77zM283 563l587 477h115l-594 -477l615 -563h-109z" />
<glyph unicode="l" horiz-adv-x="460" d="M193 0v1620h77v-1620h-77z" />
<glyph unicode="m" horiz-adv-x="1792" d="M193 0v977q188 82 393 82q92 0 160.5 -22.5t115.5 -71.5q98 43 195.5 68.5t195.5 25.5q168 0 265.5 -78t97.5 -260v-721h-80v709q0 82 -22.5 135t-62.5 85t-91 45t-107 13q-104 0 -195 -25.5t-153 -54.5q43 -72 43 -186v-721h-80v709q0 82 -22.5 135t-62.5 85t-91 45 t-106 13q-104 0 -185.5 -16.5t-130.5 -34.5v-936h-77z" />
<glyph unicode="n" horiz-adv-x="1179" d="M193 0v987q98 35 199.5 53.5t193.5 18.5q199 0 307 -81t108 -263v-715h-79v696q0 88 -27 144.5t-72 88.5t-106.5 44t-130.5 12q-96 0 -175 -14.5t-141 -28.5v-942h-77z" />
<glyph unicode="o" horiz-adv-x="1230" d="M111 520q0 119 36.5 218.5t104 170t161 110.5t203.5 40q111 0 202 -40t160 -110.5t106.5 -170t37.5 -218.5t-37.5 -218t-106.5 -171t-160 -111.5t-202 -39.5t-204 39.5t-160.5 111.5t-104 171t-36.5 218zM193 520q0 -106 29.5 -192t86 -148.5t135 -96.5t172.5 -34 q92 0 171 34t134.5 96.5t87 148.5t31.5 192q0 104 -31.5 191.5t-87 149t-134 95t-171.5 33.5q-94 0 -172.5 -33.5t-135 -95t-86 -148.5t-29.5 -192z" />
<glyph unicode="p" horiz-adv-x="1183" d="M193 -428v1427q61 25 144 42.5t171 17.5q260 0 413.5 -133t153.5 -402q0 -125 -40 -227t-112.5 -172t-172 -107.5t-220.5 -37.5q-68 0 -140.5 14t-119.5 39v-461h-77zM270 104q59 -25 123 -40t137 -15q113 0 199 37t144.5 99.5t90 149.5t31.5 189q0 229 -129 347 t-358 118q-70 0 -133.5 -9t-104.5 -26v-850z" />
<glyph unicode="q" horiz-adv-x="1179" d="M111 520q0 125 43 225.5t122.5 170t189 106.5t236.5 37q78 0 156 -17.5t139 -42.5v-1427h-79v461q-37 -18 -105 -35.5t-139 -17.5q-121 0 -224.5 33.5t-179 102t-117.5 170t-42 234.5zM193 520q0 -223 128 -347t353 -124q74 0 128 12.5t116 36.5v858q-49 16 -100.5 24.5 t-115.5 8.5q-115 0 -208 -31.5t-161.5 -93t-104 -147.5t-35.5 -197z" />
<glyph unicode="r" horiz-adv-x="718" d="M193 0v942q160 111 350 111q43 0 77.5 -5.5t73.5 -15.5v-78q-74 20 -151 21q-82 0 -156 -19.5t-117 -50.5v-905h-77z" />
<glyph unicode="s" horiz-adv-x="829" d="M102 84v92q61 -61 135 -94t156 -33q115 0 181.5 51.5t66.5 159.5q0 104 -68.5 155.5t-191.5 92.5q-135 47 -205 110.5t-70 176.5q0 123 84 193.5t213 70.5q82 0 147.5 -22.5t115.5 -61.5v-90q-55 47 -121 75.5t-142 28.5q-104 0 -161.5 -51t-57.5 -143q0 -88 57.5 -132.5 t174.5 -89.5q66 -25 121 -48t96 -58t63.5 -84t22.5 -123q0 -72 -26.5 -125t-72 -87t-103.5 -51t-124 -17q-92 0 -170 30.5t-121 73.5z" />
<glyph unicode="t" horiz-adv-x="706" d="M49 973v67h160v238h80v-238h321v-67h-321v-721q0 -113 41 -155t119 -42q53 0 93 13.5t91 44.5v-78q-35 -20 -81 -34.5t-103 -14.5q-104 0 -172 54t-68 200v733h-160z" />
<glyph unicode="u" horiz-adv-x="1148" d="M172 326v714h78v-708q0 -86 33.5 -140.5t89 -86t126 -42t140.5 -10.5q55 0 119.5 6.5t124.5 18.5v962h78v-1020q-86 -20 -166 -30t-156 -10q-229 0 -348 82.5t-119 263.5z" />
<glyph unicode="v" horiz-adv-x="950" d="M16 1040h84l377 -962l373 962h82l-410 -1040h-94z" />
<glyph unicode="w" horiz-adv-x="1445" d="M16 1040h78l312 -962l276 962h82l278 -962l310 962h78l-340 -1040h-97l-270 940l-268 -940h-99z" />
<glyph unicode="x" horiz-adv-x="905" d="M27 0l379 537l-357 503h90l318 -448l309 448h86l-354 -503l376 -537h-90l-335 479l-332 -479h-90z" />
<glyph unicode="y" horiz-adv-x="985" d="M16 1040h84l408 -1005l383 1005h76l-561 -1468h-80l141 362z" />
<glyph unicode="z" horiz-adv-x="952" d="M88 0v72l672 901h-633v67h725v-67l-680 -905h694v-68h-778z" />
<glyph unicode="{" horiz-adv-x="747" d="M43 616v62h74q35 0 72.5 10t66.5 38t46 74t17 109v389q0 158 70 240t234 82h30v-59h-49q-211 0 -211 -263v-401q0 -68 -18.5 -113t-47 -73.5t-59 -43t-55.5 -22.5q25 -6 55.5 -20.5t59 -43t47 -73.5t18.5 -111v-405q0 -258 211 -258h49v-64h-30q-164 0 -234 83t-70 239 v389q0 70 -17 114t-46 71.5t-66.5 38.5t-72.5 11h-74z" />
<glyph unicode="|" horiz-adv-x="528" d="M229 -330v1950h72v-1950h-72z" />
<glyph unicode="}" horiz-adv-x="747" d="M94 -266h51q211 0 211 258v405q0 66 18.5 111t47.5 73.5t60.5 43t54.5 20.5q-23 8 -54.5 22.5t-60.5 43t-47.5 73.5t-18.5 113v401q0 262 -211 263h-51v59h33q164 0 232.5 -82t68.5 -240v-389q0 -63 19.5 -109t47 -74t64.5 -38t72 -10h76v-62h-76q-35 0 -72 -11 t-64.5 -38.5t-47 -71.5t-19.5 -114v-389q0 -156 -68.5 -239t-232.5 -83h-33v64z" />
<glyph unicode="~" horiz-adv-x="956" d="M125 508q0 102 48 163.5t138 61.5q55 0 96.5 -26.5t78 -57.5t72.5 -57.5t81 -26.5q59 0 89 44t30 116h71q0 -102 -48 -162.5t-140 -60.5q-55 0 -96 25.5t-77 55t-74 56.5t-81 27q-57 0 -87.5 -45.5t-30.5 -112.5h-70z" />
<glyph unicode="&#xa1;" horiz-adv-x="563" d="M215 977q0 31 18.5 49t49.5 18q27 0 46 -18t19 -49q0 -27 -19.5 -47.5t-45.5 -20.5q-31 0 -49.5 20.5t-18.5 47.5zM242 -377v1043h80v-1043h-80z" />
<glyph unicode="&#xa2;" horiz-adv-x="1052" d="M119 516q0 117 37 212t101.5 161.5t149.5 105.5t179 47v218h65v-216q160 -4 277 -83v-91q-57 47 -129 72t-148 31v-920q90 2 161 24.5t132 63.5v-75q-51 -39 -130 -60.5t-163 -25.5v-207h-65v211q-96 8 -182.5 49t-148.5 108.5t-99 162.5t-37 212zM199 514 q0 -102 28.5 -182t81.5 -138.5t124 -93t153 -45.5v916q-80 -8 -150.5 -42t-123 -92.5t-83 -139.5t-30.5 -183z" />
<glyph unicode="&#xa3;" horiz-adv-x="1024" d="M74 0v70q98 82 143 183t45 263v137h-180v66h180v270q0 215 102.5 331t284.5 116q94 0 171 -34t122 -85v-92q-119 139 -293 139q-147 0 -230 -95t-83 -280v-270h389v-66h-389v-137q0 -168 -44 -267t-128 -179h811v-70h-901z" />
<glyph unicode="&#xa4;" horiz-adv-x="1216" d="M131 301l148 150q-45 55 -70 122.5t-25 151.5t24.5 153.5t74.5 122.5l-152 150l53 51l148 -149q55 47 124.5 71.5t151.5 24.5q78 0 148.5 -24.5t126.5 -71.5l149 149l49 -51l-149 -150q47 -53 72.5 -122.5t25.5 -153.5t-25.5 -152.5t-72.5 -123.5l149 -148l-49 -49 l-149 147q-55 -45 -126 -71.5t-149 -26.5q-82 0 -151.5 26.5t-126.5 71.5l-148 -149zM254 725q0 -80 27.5 -145.5t76 -115.5t113 -76t137.5 -26q74 0 137.5 26t111.5 76t76 115.5t28 145.5t-28 147.5t-76 115.5t-111.5 75t-137.5 27t-138 -27t-112.5 -75t-76 -115.5 t-27.5 -147.5z" />
<glyph unicode="&#xa5;" horiz-adv-x="1124" d="M47 1417h88l428 -737l430 737h82l-450 -762h307v-61h-334v-172h334v-64h-334v-358h-76v358h-329v64h329v172h-329v61h303z" />
<glyph unicode="&#xa6;" horiz-adv-x="528" d="M229 -330v813h72v-813h-72zM229 809v811h72v-811h-72z" />
<glyph unicode="&#xa7;" horiz-adv-x="960" d="M78 618q0 61 20.5 112.5t55 89.5t80 65.5t96.5 44.5q-80 45 -121 101t-41 143q0 123 84 192.5t215 69.5q84 0 155.5 -25t125.5 -72v-86q-57 53 -126 84t-155 31q-100 0 -161.5 -52t-61.5 -142q0 -94 67.5 -145.5t206.5 -108.5q90 -35 157.5 -69t115 -73t71 -90t23.5 -123 q0 -61 -21.5 -112.5t-56.5 -90t-81 -65.5t-95 -45q76 -45 114.5 -99.5t38.5 -140.5q0 -125 -84 -193.5t-217 -68.5q-82 0 -156.5 25.5t-129.5 72.5v82q57 -53 129.5 -83.5t156.5 -30.5q100 0 164 51t64 145q0 92 -64.5 142.5t-202.5 107.5q-88 39 -157.5 72t-115.5 72.5 t-69.5 90t-23.5 121.5zM150 618q0 -53 19 -93t61 -71.5t105.5 -63.5t147.5 -68q18 -10 39 -17.5t37 -15.5q98 25 175 96t77 180q0 53 -19.5 92t-61.5 74t-104.5 65.5t-152.5 65.5q-14 8 -35.5 16.5t-34.5 16.5q-102 -27 -177.5 -95.5t-75.5 -181.5z" />
<glyph unicode="&#xa8;" horiz-adv-x="1191" d="M356 1343q0 29 18.5 46.5t45.5 17.5t45 -17.5t18 -46.5t-18 -47t-45 -18t-45.5 18.5t-18.5 46.5zM709 1343q0 29 18 46.5t45 17.5t46.5 -17.5t19.5 -46.5t-19.5 -47t-46.5 -18t-45 18.5t-18 46.5z" />
<glyph unicode="&#xa9;" horiz-adv-x="1652" d="M106 709q0 154 54.5 285.5t152 230t227.5 155t287 56.5q156 0 288 -56.5t227.5 -155t149.5 -230.5t54 -285q0 -154 -54 -286t-149.5 -230.5t-227.5 -153.5t-288 -55q-158 0 -287.5 55t-227 153.5t-152 230.5t-54.5 286zM162 709q0 -145 50 -270.5t138 -213.5t210 -140 t267 -52t267.5 52t210.5 140t138 213t50 271q0 143 -50 268t-138 216t-210 142t-268 51q-145 0 -267 -51t-210 -142t-138 -216t-50 -268zM416 707q0 98 33.5 182t94 143.5t141.5 92t173 32.5q141 0 258 -80v-82q-104 90 -258 90q-78 0 -145.5 -27.5t-115.5 -77.5 t-75.5 -119.5t-27.5 -153.5q0 -86 27.5 -156t77.5 -120t116.5 -77.5t144.5 -27.5q154 0 262 90v-82q-117 -78 -264 -78q-94 0 -176 34t-140.5 92t-92 141t-33.5 184z" />
<glyph unicode="&#xaa;" horiz-adv-x="739" d="M59 825q0 131 112 190.5t300 59.5h98v105q0 184 -186 184q-70 0 -127 -17.5t-111 -50.5v78q47 27 107.5 44.5t130.5 17.5q123 0 192.5 -58.5t69.5 -183.5v-584q-45 -12 -103.5 -20t-105.5 -8q-176 0 -276.5 60t-100.5 183zM141 825q0 -100 85 -138t210 -38q41 0 70 3 t63 14v342h-96q-152 0 -242 -38t-90 -145z" />
<glyph unicode="&#xab;" horiz-adv-x="903" d="M119 514l293 377h90l-295 -377l295 -377h-90zM401 514l293 377h88l-293 -377l293 -377h-88z" />
<glyph unicode="&#xad;" horiz-adv-x="847" d="M152 588v69h542v-69h-542z" />
<glyph unicode="&#xae;" horiz-adv-x="1085" d="M100 989q0 92 34 174t93.5 141.5t139 94.5t174.5 35q96 0 177 -35t139 -94.5t92 -141.5t34 -174t-34 -173t-92 -140.5t-139 -94t-177 -34.5q-94 0 -174 34.5t-139.5 94t-93.5 140.5t-34 173zM152 989q0 -84 28.5 -156.5t79.5 -126t124 -83t157 -29.5q88 0 158.5 29.5 t121.5 83t80 126t29 156.5q0 86 -29 158t-80 126t-121.5 83.5t-158.5 29.5q-84 0 -157 -29.5t-124 -83.5t-79.5 -126t-28.5 -158zM412 764v457q55 12 106 12q86 0 134 -38t48 -114q0 -57 -31.5 -88.5t-74.5 -44.5l149 -184h-73l-135 172h-66v-172h-57zM469 985h55 q49 0 83 23.5t34 72.5t-33 74t-88 25q-12 0 -25.5 -1t-25.5 -5v-189z" />
<glyph unicode="&#xaf;" horiz-adv-x="1191" d="M365 1278v65h460v-65h-460z" />
<glyph unicode="&#xb0;" horiz-adv-x="638" d="M68 1180q0 106 70.5 174.5t180.5 68.5q106 0 180 -68.5t74 -174.5q0 -111 -73.5 -180.5t-180.5 -69.5q-111 0 -181 69.5t-70 180.5zM131 1180q0 -86 53.5 -139.5t134.5 -53.5q84 0 136.5 53.5t52.5 139.5q0 82 -52.5 134t-136.5 52q-82 0 -135 -52t-53 -134z" />
<glyph unicode="&#xb1;" horiz-adv-x="1036" d="M94 276v70h848v-70h-848zM94 778v70h389v291h70v-291h389v-70h-389v-295h-70v295h-389z" />
<glyph unicode="&#xb2;" horiz-adv-x="534" d="M14 664v55q76 57 145.5 118.5t121 124t81 124t29.5 118.5q0 70 -39 113t-112 43q-63 0 -112.5 -27.5t-92.5 -68.5v71q37 41 93 65.5t122 24.5q102 0 159.5 -57t57.5 -154q0 -63 -28.5 -128.5t-79 -128t-114 -121t-132.5 -109.5h379v-63h-478z" />
<glyph unicode="&#xb3;" horiz-adv-x="516" d="M27 711v67q35 -31 83 -48t103 -17q88 0 136 41t48 108q0 76 -56 113t-159 43v57q90 4 142.5 48t52.5 112q0 57 -38 92t-108 35q-61 0 -109 -26.5t-87 -61.5v69q37 35 89 58.5t116 23.5q106 0 158.5 -52t52.5 -134q0 -74 -51.5 -125t-120.5 -63q76 -10 132 -58.5 t56 -132.5q0 -92 -66.5 -149.5t-185.5 -57.5q-55 0 -106.5 16.5t-81.5 41.5z" />
<glyph unicode="&#xb4;" horiz-adv-x="1191" d="M457 1225l200 360h80l-202 -360h-78z" />
<glyph unicode="&#xb5;" horiz-adv-x="1148" d="M172 -428v1468h78v-708q0 -86 33.5 -140.5t89 -86t126 -42t140.5 -10.5q55 0 119.5 6.5t124.5 18.5v962h78v-1020q-86 -20 -166 -30t-156 -10q-135 0 -236.5 31.5t-152.5 105.5v-545h-78z" />
<glyph unicode="&#xb6;" horiz-adv-x="940" d="M47 1085q0 86 34 148.5t89 103.5t128 60.5t157 19.5h75v-1669h-75v1006q-84 0 -157 19.5t-128 59t-89 102t-34 150.5zM670 -252v1669h75v-1669h-75z" />
<glyph unicode="&#xb7;" horiz-adv-x="466" d="M168 623q0 29 18.5 47t46.5 18q29 0 48.5 -18.5t19.5 -46.5q0 -29 -19.5 -48.5t-48.5 -19.5t-47 19.5t-18 48.5z" />
<glyph unicode="&#xb8;" horiz-adv-x="1191" d="M444 -352q82 76 130.5 172t48.5 200h71q0 -113 -48 -214t-120 -158h-82z" />
<glyph unicode="&#xb9;" horiz-adv-x="376" d="M20 1317v67l236 41v-761h-72v679z" />
<glyph unicode="&#xba;" horiz-adv-x="907" d="M47 1010q0 98 29.5 176t85 133t130.5 86t165 31q86 0 161.5 -31t129 -86t83 -133t29.5 -176q0 -96 -29.5 -175t-83 -134.5t-129 -86t-161.5 -30.5q-90 0 -165 30.5t-130.5 86t-85 134.5t-29.5 175zM129 1010q0 -164 90 -260.5t238 -96.5q143 0 233 96.5t90 260.5t-90 259 t-233 95q-147 0 -237.5 -95t-90.5 -259z" />
<glyph unicode="&#xbb;" horiz-adv-x="903" d="M119 137l293 377l-293 377h88l295 -377l-295 -377h-88zM401 137l293 377l-293 377h88l293 -377l-293 -377h-88z" />
<glyph unicode="&#xbc;" horiz-adv-x="1409" d="M94 1317v67l240 41v-761h-74v679zM180 0l803 1419h76l-805 -1419h-74zM670 207v59l385 492h71v-494h140v-57h-140v-207h-67v207h-389zM741 264h318v412z" />
<glyph unicode="&#xbd;" horiz-adv-x="1454" d="M94 1317v67l240 41v-761h-74v679zM180 0l803 1419h76l-805 -1419h-74zM836 0v55q74 57 144.5 120t120.5 123t80.5 122.5t30.5 120.5q0 70 -38.5 112.5t-114.5 42.5q-61 0 -111.5 -27.5t-91.5 -68.5v74q37 39 93.5 64.5t119.5 25.5q102 0 159.5 -57.5t57.5 -157.5 q0 -63 -28.5 -128t-78 -127.5t-114 -120.5t-133.5 -107h379v-66h-475z" />
<glyph unicode="&#xbe;" horiz-adv-x="1536" d="M119 711v67q37 -31 84 -48t102 -17q88 0 136 41t48 108q0 76 -56 113t-159 43v57q90 4 142.5 48t52.5 112q0 57 -38 92t-107 35q-61 0 -108.5 -26.5t-86.5 -61.5v69q35 35 88 58.5t115 23.5q106 0 158.5 -52t52.5 -134q0 -74 -51.5 -125t-120.5 -63q76 -10 133 -58.5 t57 -132.5q0 -92 -67.5 -149.5t-186.5 -57.5q-55 0 -106 16.5t-82 41.5zM305 0l805 1419h74l-803 -1419h-76zM795 207v59l385 492h73v-494h140v-57h-140v-207h-69v207h-389zM868 264h316v412z" />
<glyph unicode="&#xbf;" horiz-adv-x="905" d="M94 -12q0 111 40 188.5t101.5 131.5t132 89t134.5 60v209h80v-254q-88 -31 -162 -68t-127 -87t-85 -114.5t-32 -156.5q0 -63 20.5 -118.5t60.5 -97.5t98.5 -67t140.5 -25q213 0 362 185v-94q-49 -70 -148.5 -118t-213.5 -48q-98 0 -174 30.5t-126.5 83t-76 123 t-25.5 148.5zM469 977q0 31 19.5 49t48.5 18t48 -18t19 -49q0 -27 -19.5 -47.5t-47.5 -20.5q-29 0 -48.5 20.5t-19.5 47.5z" />
<glyph unicode="&#xc0;" horiz-adv-x="1282" d="M33 0l555 1417h98l561 -1417h-82l-170 428h-712l-166 -428h-84zM309 502h656l-332 841zM422 1855h76l176 -311h-78z" />
<glyph unicode="&#xc1;" horiz-adv-x="1282" d="M33 0l555 1417h98l561 -1417h-82l-170 428h-712l-166 -428h-84zM309 502h656l-332 841zM606 1544l174 311h76l-174 -311h-76z" />
<glyph unicode="&#xc2;" horiz-adv-x="1282" d="M33 0l555 1417h98l561 -1417h-82l-170 428h-712l-166 -428h-84zM309 502h656l-332 841zM358 1528l263 317h36l261 -317h-80l-199 241l-199 -241h-82z" />
<glyph unicode="&#xc3;" horiz-adv-x="1282" d="M33 0l555 1417h98l561 -1417h-82l-170 428h-712l-166 -428h-84zM309 502h656l-332 841zM356 1536q0 102 39 164.5t113 62.5q47 0 82 -26.5t63.5 -57t56 -57.5t60.5 -27q45 0 67.5 44t22.5 116h62q0 -104 -37 -165.5t-113 -61.5q-47 0 -82 26.5t-63.5 57t-56 57.5 t-58.5 27q-45 0 -68.5 -44t-23.5 -116h-64z" />
<glyph unicode="&#xc4;" horiz-adv-x="1282" d="M33 0l555 1417h98l561 -1417h-82l-170 428h-712l-166 -428h-84zM309 502h656l-332 841zM399 1626q0 29 18.5 46.5t45.5 17.5t45 -17.5t18 -46.5t-18 -46t-45 -17t-45.5 17t-18.5 46zM752 1626q0 29 19.5 46.5t43.5 17.5q27 0 46.5 -17.5t19.5 -46.5t-19.5 -46t-46.5 -17 q-25 0 -44 17t-19 46z" />
<glyph unicode="&#xc5;" horiz-adv-x="1282" d="M33 0l555 1417h98l561 -1417h-82l-170 428h-712l-166 -428h-84zM309 502h656l-332 841zM457 1673q0 78 53 129t129 51t130 -51t54 -129q0 -76 -54 -127t-130 -51t-129 51t-53 127zM518 1673q0 -53 32 -87t89 -34q59 0 90 34t31 87q0 55 -31 89t-90 34q-57 0 -89 -33.5 t-32 -89.5z" />
<glyph unicode="&#xc6;" horiz-adv-x="1927" d="M33 0l960 1417h803v-74h-682v-579h641v-74h-641v-618h688v-72h-770v428h-620l-293 -428h-86zM459 502h573v850z" />
<glyph unicode="&#xc7;" horiz-adv-x="1351" d="M119 709q0 162 54 295t148.5 229t225.5 149.5t282 53.5q109 0 208.5 -26t183.5 -81v-96q-78 70 -181.5 99.5t-210.5 29.5q-129 0 -243.5 -45t-199.5 -130t-136 -206t-51 -272q0 -150 51 -273t140 -207t209 -129t253 -45q109 0 209 24.5t184 88.5v-86q-66 -51 -175 -76.5 t-218 -25.5q-4 -98 -50 -188.5t-114 -143.5h-82q76 70 123 155.5t53 180.5q-145 12 -267 67t-210 151.5t-137 223.5t-49 283z" />
<glyph unicode="&#xc8;" horiz-adv-x="1116" d="M221 0v1417h764v-74h-684v-579h643v-74h-643v-618h692v-72h-772zM406 1855h75l174 -311h-75z" />
<glyph unicode="&#xc9;" horiz-adv-x="1116" d="M221 0v1417h764v-74h-684v-579h643v-74h-643v-618h692v-72h-772zM573 1544l172 311h78l-174 -311h-76z" />
<glyph unicode="&#xca;" horiz-adv-x="1116" d="M221 0v1417h764v-74h-684v-579h643v-74h-643v-618h692v-72h-772zM336 1528l260 317h37l262 -317h-82l-197 241l-200 -241h-80z" />
<glyph unicode="&#xcb;" horiz-adv-x="1116" d="M221 0v1417h764v-74h-684v-579h643v-74h-643v-618h692v-72h-772zM375 1626q0 29 18.5 46.5t44.5 17.5q29 0 47.5 -17.5t18.5 -46.5t-18.5 -46t-47.5 -17q-27 0 -45 17t-18 46zM727 1626q0 29 19.5 46.5t46.5 17.5q25 0 44 -17.5t19 -46.5t-19 -46t-44 -17q-27 0 -46.5 17 t-19.5 46z" />
<glyph unicode="&#xcc;" horiz-adv-x="524" d="M53 1855h76l172 -311h-74zM221 0v1417h80v-1417h-80z" />
<glyph unicode="&#xcd;" horiz-adv-x="524" d="M219 1544l174 311h76l-172 -311h-78zM221 0v1417h80v-1417h-80z" />
<glyph unicode="&#xce;" horiz-adv-x="524" d="M-16 1528l260 317h39l258 -317h-80l-199 241l-196 -241h-82zM221 0v1417h80v-1417h-80z" />
<glyph unicode="&#xcf;" horiz-adv-x="524" d="M23 1626q0 29 18 46.5t43 17.5q29 0 47.5 -17.5t18.5 -46.5t-18.5 -46t-47.5 -17q-25 0 -43 17t-18 46zM221 0v1417h80v-1417h-80zM375 1626q0 29 18.5 46.5t44.5 17.5q29 0 47.5 -17.5t18.5 -46.5t-18.5 -46t-47.5 -17q-27 0 -45 17t-18 46z" />
<glyph unicode="&#xd0;" horiz-adv-x="1478" d="M94 690v74h146v655q78 10 137 12.5t100 2.5q236 0 403 -51.5t273.5 -144.5t156.5 -222t50 -281q0 -162 -49 -299t-152.5 -237.5t-263.5 -157.5t-381 -57q-76 0 -140.5 4t-133.5 14v688h-146zM319 68q47 -6 94.5 -9.5t100.5 -3.5q360 0 562 171t202 509q0 289 -196.5 458 t-604.5 169q-41 0 -76.5 -1t-81.5 -7v-590h363v-74h-363v-622z" />
<glyph unicode="&#xd1;" horiz-adv-x="1544" d="M221 0v1417h80l940 -1300v1300h80v-1417h-82l-938 1298v-1298h-80zM489 1536q0 102 38 164.5t112 62.5q47 0 82 -26.5t63.5 -57t56 -57.5t62.5 -27q45 0 67.5 44t22.5 116h62q0 -104 -39 -165.5t-111 -61.5q-49 0 -83 26.5t-62.5 57t-56 57.5t-62.5 27q-45 0 -67.5 -44 t-22.5 -116h-62z" />
<glyph unicode="&#xd2;" d="M119 709q0 162 54 296t148.5 230t226.5 148.5t286 52.5q152 0 282.5 -52.5t226 -148.5t149.5 -230.5t54 -295.5q0 -162 -54 -297.5t-149.5 -231.5t-226.5 -148t-282 -52q-154 0 -286 52t-226.5 148t-148.5 231.5t-54 297.5zM199 709q0 -150 50 -273t134 -207t199.5 -129 t251.5 -45q131 0 246.5 45t200.5 129t134 207t49 273t-49 271.5t-134 206.5t-200.5 130t-246.5 45q-135 0 -251 -45t-200 -130t-134 -207t-50 -271zM623 1855h75l174 -311h-77z" />
<glyph unicode="&#xd3;" d="M119 709q0 162 54 296t148.5 230t226.5 148.5t286 52.5q152 0 282.5 -52.5t226 -148.5t149.5 -230.5t54 -295.5q0 -162 -54 -297.5t-149.5 -231.5t-226.5 -148t-282 -52q-154 0 -286 52t-226.5 148t-148.5 231.5t-54 297.5zM199 709q0 -150 50 -273t134 -207t199.5 -129 t251.5 -45q131 0 246.5 45t200.5 129t134 207t49 273t-49 271.5t-134 206.5t-200.5 130t-246.5 45q-135 0 -251 -45t-200 -130t-134 -207t-50 -271zM791 1544l172 311h77l-174 -311h-75z" />
<glyph unicode="&#xd4;" d="M119 709q0 162 54 296t148.5 230t226.5 148.5t286 52.5q152 0 282.5 -52.5t226 -148.5t149.5 -230.5t54 -295.5q0 -162 -54 -297.5t-149.5 -231.5t-226.5 -148t-282 -52q-154 0 -286 52t-226.5 148t-148.5 231.5t-54 297.5zM199 709q0 -150 50 -273t134 -207t199.5 -129 t251.5 -45q131 0 246.5 45t200.5 129t134 207t49 273t-49 271.5t-134 206.5t-200.5 130t-246.5 45q-135 0 -251 -45t-200 -130t-134 -207t-50 -271zM553 1528l260 317h37l262 -317h-82l-196 241l-201 -241h-80z" />
<glyph unicode="&#xd5;" d="M119 709q0 162 54 296t148.5 230t226.5 148.5t286 52.5q152 0 282.5 -52.5t226 -148.5t149.5 -230.5t54 -295.5q0 -162 -54 -297.5t-149.5 -231.5t-226.5 -148t-282 -52q-154 0 -286 52t-226.5 148t-148.5 231.5t-54 297.5zM199 709q0 -150 50 -273t134 -207t199.5 -129 t251.5 -45q131 0 246.5 45t200.5 129t134 207t49 273t-49 271.5t-134 206.5t-200.5 130t-246.5 45q-135 0 -251 -45t-200 -130t-134 -207t-50 -271zM551 1536q0 102 39 164.5t110 62.5q47 0 82 -26.5t63.5 -57t56.5 -57.5t61 -27q47 0 69.5 44t22.5 116h61 q0 -104 -38 -165.5t-113 -61.5q-47 0 -81 26.5t-62.5 57t-56.5 57.5t-63 27q-45 0 -67.5 -44t-22.5 -116h-61z" />
<glyph unicode="&#xd6;" d="M119 709q0 162 54 296t148.5 230t226.5 148.5t286 52.5q152 0 282.5 -52.5t226 -148.5t149.5 -230.5t54 -295.5q0 -162 -54 -297.5t-149.5 -231.5t-226.5 -148t-282 -52q-154 0 -286 52t-226.5 148t-148.5 231.5t-54 297.5zM199 709q0 -150 50 -273t134 -207t199.5 -129 t251.5 -45q131 0 246.5 45t200.5 129t134 207t49 273t-49 271.5t-134 206.5t-200.5 130t-246.5 45q-135 0 -251 -45t-200 -130t-134 -207t-50 -271zM592 1626q0 29 19.5 46.5t43.5 17.5q27 0 46.5 -17.5t19.5 -46.5t-19.5 -46t-46.5 -17q-25 0 -44 17t-19 46zM944 1626 q0 29 19.5 46.5t46.5 17.5q25 0 44 -17.5t19 -46.5t-19 -46t-44 -17q-27 0 -46.5 17t-19.5 46z" />
<glyph unicode="&#xd7;" horiz-adv-x="862" d="M94 403l289 291l-289 291l51 47l287 -291l287 291l49 -47l-287 -291l287 -291l-49 -47l-287 287l-287 -287z" />
<glyph unicode="&#xd8;" d="M94 0l205 207q-84 94 -132 221t-48 281q0 162 54 296t148.5 230t226.5 148.5t286 52.5q141 0 266 -47.5t219 -135.5l158 164h92l-203 -209q84 -94 132 -221t48 -278q0 -162 -54 -297.5t-149.5 -231.5t-226.5 -148t-282 -52q-147 0 -271.5 47t-218.5 133l-156 -160h-94z M199 709q0 -139 40 -252t109 -197l922 944q-86 78 -197.5 118t-238.5 40q-135 0 -251 -45t-200 -130t-134 -207t-50 -271zM393 213q172 -158 441 -158q131 0 246.5 45t200.5 129t134 207t49 273q0 141 -39 252.5t-110 195.5z" />
<glyph unicode="&#xd9;" horiz-adv-x="1411" d="M182 463v954h80v-962q0 -119 41 -196t109.5 -123t160 -63.5t191.5 -17.5q188 0 346 35v1327h80v-1382q-109 -25 -210 -40t-216 -15q-119 0 -224.5 22.5t-185.5 77.5t-126 147t-46 236zM473 1855h78l174 -311h-76z" />
<glyph unicode="&#xda;" horiz-adv-x="1411" d="M182 463v954h80v-962q0 -119 41 -196t109.5 -123t160 -63.5t191.5 -17.5q188 0 346 35v1327h80v-1382q-109 -25 -210 -40t-216 -15q-119 0 -224.5 22.5t-185.5 77.5t-126 147t-46 236zM641 1544l174 311h78l-174 -311h-78z" />
<glyph unicode="&#xdb;" horiz-adv-x="1411" d="M182 463v954h80v-962q0 -119 41 -196t109.5 -123t160 -63.5t191.5 -17.5q188 0 346 35v1327h80v-1382q-109 -25 -210 -40t-216 -15q-119 0 -224.5 22.5t-185.5 77.5t-126 147t-46 236zM406 1528l260 317h36l261 -317h-80l-197 241l-201 -241h-79z" />
<glyph unicode="&#xdc;" horiz-adv-x="1411" d="M182 463v954h80v-962q0 -119 41 -196t109.5 -123t160 -63.5t191.5 -17.5q188 0 346 35v1327h80v-1382q-109 -25 -210 -40t-216 -15q-119 0 -224.5 22.5t-185.5 77.5t-126 147t-46 236zM444 1626q0 29 18.5 46.5t45.5 17.5t46 -17.5t19 -46.5t-19 -46t-46 -17t-45.5 17 t-18.5 46zM795 1626q0 29 20.5 46.5t44.5 17.5q27 0 46.5 -17.5t19.5 -46.5t-19.5 -46t-46.5 -17q-25 0 -45 17t-20 46z" />
<glyph unicode="&#xdd;" horiz-adv-x="1183" d="M33 1417h92l469 -755l471 755h86l-520 -835v-582h-80v582zM549 1544l174 311h76l-174 -311h-76z" />
<glyph unicode="&#xde;" horiz-adv-x="1017" d="M221 0v1417h80v-252q31 4 60.5 4h52.5q272 0 411.5 -107.5t139.5 -318.5q0 -213 -139.5 -332.5t-413.5 -119.5q-35 0 -62.5 2t-48.5 4v-297h-80zM301 367q23 -2 49.5 -3.5t61.5 -1.5q229 0 350 94.5t121 286.5q0 74 -23.5 139.5t-79 112.5t-144.5 75t-222 28 q-25 0 -58.5 -2t-54.5 -4v-725z" />
<glyph unicode="&#xdf;" horiz-adv-x="1132" d="M193 0v1270q0 162 88 266t258 104q135 0 224 -76.5t89 -215.5q0 -74 -37 -133.5t-82 -111.5t-83 -100.5t-38 -97.5q0 -55 34 -97t84 -80t107.5 -74t107.5 -83t84 -106t34 -143q0 -72 -23.5 -133.5t-67.5 -108.5t-110.5 -73.5t-150.5 -26.5q-88 0 -151.5 21.5t-104.5 53.5 v90q57 -57 120.5 -77.5t135.5 -20.5q115 0 191.5 69.5t76.5 205.5q0 76 -33 126t-83 92t-107.5 78.5t-107.5 77.5t-84 90.5t-34 118.5q0 55 39 109.5t84 109t84 108.5t39 116q0 94 -65.5 158.5t-171.5 64.5q-127 0 -198 -77t-71 -241v-1253h-77z" />
<glyph unicode="&#xe0;" horiz-adv-x="989" d="M100 287q0 162 140.5 234.5t377.5 72.5h121v154q0 115 -60.5 177t-174.5 62q-88 0 -159 -19.5t-138 -60.5v76q55 33 132 54.5t167 21.5q150 0 230.5 -73t80.5 -228v-742q-53 -16 -119.5 -26t-126.5 -10q-219 0 -345 77.5t-126 229.5zM180 287q0 -61 30 -106.5t83 -74 t124.5 -44t153.5 -15.5q47 0 86 4t82 17v456h-118q-199 0 -320 -52t-121 -185zM270 1585h78l203 -360h-80z" />
<glyph unicode="&#xe1;" horiz-adv-x="989" d="M100 287q0 162 140.5 234.5t377.5 72.5h121v154q0 115 -60.5 177t-174.5 62q-88 0 -159 -19.5t-138 -60.5v76q55 33 132 54.5t167 21.5q150 0 230.5 -73t80.5 -228v-742q-53 -16 -119.5 -26t-126.5 -10q-219 0 -345 77.5t-126 229.5zM180 287q0 -61 30 -106.5t83 -74 t124.5 -44t153.5 -15.5q47 0 86 4t82 17v456h-118q-199 0 -320 -52t-121 -185zM461 1225l203 360h77l-202 -360h-78z" />
<glyph unicode="&#xe2;" horiz-adv-x="989" d="M100 287q0 162 140.5 234.5t377.5 72.5h121v154q0 115 -60.5 177t-174.5 62q-88 0 -159 -19.5t-138 -60.5v76q55 33 132 54.5t167 21.5q150 0 230.5 -73t80.5 -228v-742q-53 -16 -119.5 -26t-126.5 -10q-219 0 -345 77.5t-126 229.5zM180 287q0 -61 30 -106.5t83 -74 t124.5 -44t153.5 -15.5q47 0 86 4t82 17v456h-118q-199 0 -320 -52t-121 -185zM217 1227l252 325h45l252 -325h-80l-194 252l-193 -252h-82z" />
<glyph unicode="&#xe3;" horiz-adv-x="989" d="M100 287q0 162 140.5 234.5t377.5 72.5h121v154q0 115 -60.5 177t-174.5 62q-88 0 -159 -19.5t-138 -60.5v76q55 33 132 54.5t167 21.5q150 0 230.5 -73t80.5 -228v-742q-53 -16 -119.5 -26t-126.5 -10q-219 0 -345 77.5t-126 229.5zM180 287q0 -61 30 -106.5t83 -74 t124.5 -44t153.5 -15.5q47 0 86 4t82 17v456h-118q-199 0 -320 -52t-121 -185zM213 1235q0 104 38 165.5t111 61.5q49 0 83 -26.5t63 -57t56.5 -57.5t60.5 -27q45 0 67.5 45t22.5 115h63q0 -104 -39 -164.5t-110 -60.5q-49 0 -83 26.5t-62.5 57t-56.5 57.5t-62 27 q-45 0 -68 -45t-23 -117h-61z" />
<glyph unicode="&#xe4;" horiz-adv-x="989" d="M100 287q0 162 140.5 234.5t377.5 72.5h121v154q0 115 -60.5 177t-174.5 62q-88 0 -159 -19.5t-138 -60.5v76q55 33 132 54.5t167 21.5q150 0 230.5 -73t80.5 -228v-742q-53 -16 -119.5 -26t-126.5 -10q-219 0 -345 77.5t-126 229.5zM180 287q0 -61 30 -106.5t83 -74 t124.5 -44t153.5 -15.5q47 0 86 4t82 17v456h-118q-199 0 -320 -52t-121 -185zM264 1343q0 29 18.5 46.5t47.5 17.5q27 0 45 -17.5t18 -46.5t-18 -47t-45 -18q-29 0 -47.5 18.5t-18.5 46.5zM618 1343q0 29 18.5 46.5t45.5 17.5t45 -17.5t18 -46.5t-18 -47t-45 -18 t-45.5 18.5t-18.5 46.5z" />
<glyph unicode="&#xe5;" horiz-adv-x="989" d="M100 287q0 162 140.5 234.5t377.5 72.5h121v154q0 115 -60.5 177t-174.5 62q-88 0 -159 -19.5t-138 -60.5v76q55 33 132 54.5t167 21.5q150 0 230.5 -73t80.5 -228v-742q-53 -16 -119.5 -26t-126.5 -10q-219 0 -345 77.5t-126 229.5zM180 287q0 -61 30 -106.5t83 -74 t124.5 -44t153.5 -15.5q47 0 86 4t82 17v456h-118q-199 0 -320 -52t-121 -185zM322 1389q0 76 53 127t131 51q76 0 129 -51.5t53 -126.5q0 -78 -53 -129.5t-129 -51.5q-78 0 -131 51.5t-53 129.5zM383 1389q0 -53 33 -88t90 -35q59 0 91 35t32 88q0 55 -32 87.5t-91 32.5 q-57 0 -90 -32.5t-33 -87.5z" />
<glyph unicode="&#xe6;" horiz-adv-x="1757" d="M100 270q0 82 37 139.5t103.5 95.5t161 56.5t206.5 18.5h150q8 74 24 129q-2 160 -79.5 220t-196.5 60q-90 0 -162 -22.5t-145 -59.5v76q68 35 145.5 55.5t161.5 20.5q127 0 215 -52.5t115 -177.5q61 109 162.5 169.5t230.5 60.5q106 0 186 -37t133.5 -104.5t79 -154.5 t25.5 -192v-53h-824q0 -106 34 -192t91.5 -147.5t136 -95.5t171.5 -34q201 0 346 115v-76q-70 -55 -161 -81.5t-185 -26.5q-135 0 -242 55t-172 158q-63 -90 -164.5 -151.5t-232.5 -61.5q-150 0 -250.5 73.5t-100.5 216.5zM180 270q0 -113 81 -168t190 -55q115 0 209 55.5 t151 153.5q-29 63 -41 128t-14 134h-144q-90 0 -168.5 -13t-138 -42t-92.5 -76t-33 -117zM834 580h741q-2 86 -21.5 160.5t-62.5 131t-108.5 87t-155.5 30.5q-164 0 -270.5 -111.5t-122.5 -297.5z" />
<glyph unicode="&#xe7;" horiz-adv-x="1042" d="M111 522q0 127 41 227.5t112.5 169t164.5 104.5t196 36q170 0 293 -86v-86q-61 51 -138.5 75.5t-154.5 24.5q-88 0 -167 -32.5t-138.5 -92t-93 -145.5t-33.5 -195t33.5 -194.5t92 -147t139.5 -94.5t173 -33q94 0 166.5 20.5t138.5 65.5v-73q-53 -39 -132 -60.5 t-163 -25.5q-8 -98 -53 -188.5t-111 -143.5h-84q76 70 123 155.5t55 180.5q-100 8 -183 52t-144.5 112.5t-97 163t-35.5 210.5z" />
<glyph unicode="&#xe8;" horiz-adv-x="1112" d="M111 524q0 106 36.5 204.5t100 171.5t154 116t192.5 43q195 0 304.5 -123t109.5 -330v-65h-822v-17q0 -111 32 -197.5t90.5 -148t138 -93.5t174.5 -32q102 0 183 25.5t159 93.5v-84q-68 -57 -160 -82.5t-182 -25.5q-104 0 -197.5 36.5t-162 106.5t-109.5 170t-41 231z M193 606h735q0 176 -88 279.5t-246 103.5q-74 0 -142.5 -28.5t-122 -80t-89 -122t-47.5 -152.5zM358 1585h80l203 -360h-78z" />
<glyph unicode="&#xe9;" horiz-adv-x="1112" d="M111 524q0 106 36.5 204.5t100 171.5t154 116t192.5 43q195 0 304.5 -123t109.5 -330v-65h-822v-17q0 -111 32 -197.5t90.5 -148t138 -93.5t174.5 -32q102 0 183 25.5t159 93.5v-84q-68 -57 -160 -82.5t-182 -25.5q-104 0 -197.5 36.5t-162 106.5t-109.5 170t-41 231z M193 606h735q0 176 -88 279.5t-246 103.5q-74 0 -142.5 -28.5t-122 -80t-89 -122t-47.5 -152.5zM551 1225l203 360h80l-203 -360h-80z" />
<glyph unicode="&#xea;" horiz-adv-x="1112" d="M111 524q0 106 36.5 204.5t100 171.5t154 116t192.5 43q195 0 304.5 -123t109.5 -330v-65h-822v-17q0 -111 32 -197.5t90.5 -148t138 -93.5t174.5 -32q102 0 183 25.5t159 93.5v-84q-68 -57 -160 -82.5t-182 -25.5q-104 0 -197.5 36.5t-162 106.5t-109.5 170t-41 231z M193 606h735q0 176 -88 279.5t-246 103.5q-74 0 -142.5 -28.5t-122 -80t-89 -122t-47.5 -152.5zM322 1227l253 325h43l252 -325h-79l-195 252l-193 -252h-81z" />
<glyph unicode="&#xeb;" horiz-adv-x="1112" d="M111 524q0 106 36.5 204.5t100 171.5t154 116t192.5 43q195 0 304.5 -123t109.5 -330v-65h-822v-17q0 -111 32 -197.5t90.5 -148t138 -93.5t174.5 -32q102 0 183 25.5t159 93.5v-84q-68 -57 -160 -82.5t-182 -25.5q-104 0 -197.5 36.5t-162 106.5t-109.5 170t-41 231z M193 606h735q0 176 -88 279.5t-246 103.5q-74 0 -142.5 -28.5t-122 -80t-89 -122t-47.5 -152.5zM356 1343q0 29 18.5 46.5t45.5 17.5t45 -17.5t18 -46.5t-18 -47t-45 -18t-45.5 18.5t-18.5 46.5zM709 1343q0 29 18 46.5t45 17.5t46.5 -17.5t19.5 -46.5t-19.5 -47t-46.5 -18 t-45 18.5t-18 46.5z" />
<glyph unicode="&#xec;" horiz-adv-x="460" d="M-8 1585h80l202 -360h-79zM193 0v1040h77v-1040h-77z" />
<glyph unicode="&#xed;" horiz-adv-x="460" d="M193 0v1040h77v-1040h-77zM193 1225l204 360h76l-201 -360h-79z" />
<glyph unicode="&#xee;" horiz-adv-x="460" d="M-45 1227l252 325h43l254 -325h-82l-193 252l-194 -252h-80zM193 0v1040h77v-1040h-77z" />
<glyph unicode="&#xef;" horiz-adv-x="460" d="M-12 1343q0 29 19.5 46.5t45.5 17.5q27 0 45.5 -17.5t18.5 -46.5t-18.5 -47t-45.5 -18t-46 18.5t-19 46.5zM193 0v1040h77v-1040h-77zM342 1343q0 29 18.5 46.5t45.5 17.5t45 -17.5t18 -46.5t-18 -47t-45 -18t-45.5 18.5t-18.5 46.5z" />
<glyph unicode="&#xf0;" horiz-adv-x="1228" d="M111 518q0 119 37.5 219.5t104 171t160 110.5t203.5 40q117 0 222.5 -53.5t175.5 -196.5q-31 113 -98.5 235.5t-178.5 245.5l-428 -112v59l385 104q-66 70 -145.5 140.5t-169.5 138.5h104q78 -57 148.5 -121.5t136.5 -136.5l240 63v-61l-197 -53q141 -166 225 -361.5 t84 -421.5q0 -119 -38 -221t-105.5 -175t-159.5 -112.5t-201 -39.5q-111 0 -204 39.5t-159.5 111.5t-104 171t-37.5 216zM193 518q0 -104 29.5 -190t87 -147.5t135 -96.5t171.5 -35q92 0 169 35t134.5 96.5t89 147.5t31.5 190t-31.5 190.5t-87 149t-133 97t-172.5 34.5 q-94 0 -171.5 -34.5t-135 -97t-87 -148.5t-29.5 -191z" />
<glyph unicode="&#xf1;" horiz-adv-x="1179" d="M193 0v987q98 35 199.5 53.5t193.5 18.5q199 0 307 -81t108 -263v-715h-79v696q0 88 -27 144.5t-72 88.5t-106.5 44t-130.5 12q-96 0 -175 -14.5t-141 -28.5v-942h-77zM295 1235q0 104 37 165.5t112 61.5q47 0 82 -26.5t63.5 -57t56.5 -57.5t61 -27q45 0 66.5 45 t21.5 115h63q0 -104 -38 -164.5t-111 -60.5q-47 0 -82 26.5t-63.5 57t-56.5 57.5t-61 27q-45 0 -67.5 -45t-22.5 -117h-61z" />
<glyph unicode="&#xf2;" horiz-adv-x="1230" d="M111 520q0 119 36.5 218.5t104 170t161 110.5t203.5 40q111 0 202 -40t160 -110.5t106.5 -170t37.5 -218.5t-37.5 -218t-106.5 -171t-160 -111.5t-202 -39.5t-204 39.5t-160.5 111.5t-104 171t-36.5 218zM193 520q0 -106 29.5 -192t86 -148.5t135 -96.5t172.5 -34 q92 0 171 34t134.5 96.5t87 148.5t31.5 192q0 104 -31.5 191.5t-87 149t-134 95t-171.5 33.5q-94 0 -172.5 -33.5t-135 -95t-86 -148.5t-29.5 -192zM379 1585h80l203 -360h-80z" />
<glyph unicode="&#xf3;" horiz-adv-x="1230" d="M111 520q0 119 36.5 218.5t104 170t161 110.5t203.5 40q111 0 202 -40t160 -110.5t106.5 -170t37.5 -218.5t-37.5 -218t-106.5 -171t-160 -111.5t-202 -39.5t-204 39.5t-160.5 111.5t-104 171t-36.5 218zM193 520q0 -106 29.5 -192t86 -148.5t135 -96.5t172.5 -34 q92 0 171 34t134.5 96.5t87 148.5t31.5 192q0 104 -31.5 191.5t-87 149t-134 95t-171.5 33.5q-94 0 -172.5 -33.5t-135 -95t-86 -148.5t-29.5 -192zM571 1225l201 360h78l-201 -360h-78z" />
<glyph unicode="&#xf4;" horiz-adv-x="1230" d="M111 520q0 119 36.5 218.5t104 170t161 110.5t203.5 40q111 0 202 -40t160 -110.5t106.5 -170t37.5 -218.5t-37.5 -218t-106.5 -171t-160 -111.5t-202 -39.5t-204 39.5t-160.5 111.5t-104 171t-36.5 218zM193 520q0 -106 29.5 -192t86 -148.5t135 -96.5t172.5 -34 q92 0 171 34t134.5 96.5t87 148.5t31.5 192q0 104 -31.5 191.5t-87 149t-134 95t-171.5 33.5q-94 0 -172.5 -33.5t-135 -95t-86 -148.5t-29.5 -192zM342 1227l252 325h43l254 -325h-82l-193 252l-194 -252h-80z" />
<glyph unicode="&#xf5;" horiz-adv-x="1230" d="M111 520q0 119 36.5 218.5t104 170t161 110.5t203.5 40q111 0 202 -40t160 -110.5t106.5 -170t37.5 -218.5t-37.5 -218t-106.5 -171t-160 -111.5t-202 -39.5t-204 39.5t-160.5 111.5t-104 171t-36.5 218zM193 520q0 -106 29.5 -192t86 -148.5t135 -96.5t172.5 -34 q92 0 171 34t134.5 96.5t87 148.5t31.5 192q0 104 -31.5 191.5t-87 149t-134 95t-171.5 33.5q-94 0 -172.5 -33.5t-135 -95t-86 -148.5t-29.5 -192zM334 1235q0 104 39 165.5t110 61.5q47 0 82 -26.5t63.5 -57t56.5 -57.5t60 -27q47 0 70 45t23 115h61q0 -104 -38 -164.5 t-113 -60.5q-47 0 -82 26.5t-63 57t-55.5 57.5t-62.5 27q-45 0 -66.5 -45t-21.5 -117h-63z" />
<glyph unicode="&#xf6;" horiz-adv-x="1230" d="M111 520q0 119 36.5 218.5t104 170t161 110.5t203.5 40q111 0 202 -40t160 -110.5t106.5 -170t37.5 -218.5t-37.5 -218t-106.5 -171t-160 -111.5t-202 -39.5t-204 39.5t-160.5 111.5t-104 171t-36.5 218zM193 520q0 -106 29.5 -192t86 -148.5t135 -96.5t172.5 -34 q92 0 171 34t134.5 96.5t87 148.5t31.5 192q0 104 -31.5 191.5t-87 149t-134 95t-171.5 33.5q-94 0 -172.5 -33.5t-135 -95t-86 -148.5t-29.5 -192zM375 1343q0 29 18.5 46.5t44.5 17.5q29 0 47.5 -17.5t18.5 -46.5t-18.5 -47t-47.5 -18q-27 0 -45 18.5t-18 46.5zM727 1343 q0 29 19.5 46.5t46.5 17.5q25 0 44 -17.5t19 -46.5t-19 -47t-44 -18q-27 0 -46.5 18.5t-19.5 46.5z" />
<glyph unicode="&#xf7;" horiz-adv-x="1036" d="M94 664v69h848v-69h-848zM449 342q0 29 20 49.5t49 20.5q31 0 50.5 -20.5t19.5 -49.5q0 -31 -19.5 -50.5t-50.5 -19.5q-29 0 -49 19.5t-20 50.5zM449 1057q0 29 20 48t49 19q31 0 50.5 -19.5t19.5 -47.5q0 -33 -19.5 -52.5t-50.5 -19.5q-29 0 -49 19.5t-20 52.5z" />
<glyph unicode="&#xf8;" horiz-adv-x="1230" d="M84 0l145 152q-57 70 -87.5 164t-30.5 204q0 119 36.5 218.5t104 170t161 110.5t203.5 40q102 0 189.5 -32t150.5 -95l103 108h86l-144 -153q57 -70 89 -163t32 -204q0 -119 -37.5 -218t-106.5 -171t-160 -111.5t-202 -39.5q-102 0 -189 32.5t-153 93.5l-102 -106h-88z M193 520q0 -195 90 -313l624 674q-113 109 -291 108q-94 0 -172.5 -33.5t-135 -95t-86 -148.5t-29.5 -192zM322 160q115 -111 294 -111q92 0 171 34t134.5 96.5t87 148.5t31.5 192q0 193 -90 314z" />
<glyph unicode="&#xf9;" horiz-adv-x="1148" d="M172 326v714h78v-708q0 -86 33.5 -140.5t89 -86t126 -42t140.5 -10.5q55 0 119.5 6.5t124.5 18.5v962h78v-1020q-86 -20 -166 -30t-156 -10q-229 0 -348 82.5t-119 263.5zM334 1585h78l204 -360h-79z" />
<glyph unicode="&#xfa;" horiz-adv-x="1148" d="M172 326v714h78v-708q0 -86 33.5 -140.5t89 -86t126 -42t140.5 -10.5q55 0 119.5 6.5t124.5 18.5v962h78v-1020q-86 -20 -166 -30t-156 -10q-229 0 -348 82.5t-119 263.5zM524 1225l203 360h78l-201 -360h-80z" />
<glyph unicode="&#xfb;" horiz-adv-x="1148" d="M172 326v714h78v-708q0 -86 33.5 -140.5t89 -86t126 -42t140.5 -10.5q55 0 119.5 6.5t124.5 18.5v962h78v-1020q-86 -20 -166 -30t-156 -10q-229 0 -348 82.5t-119 263.5zM297 1227l252 325h43l254 -325h-82l-193 252l-194 -252h-80z" />
<glyph unicode="&#xfc;" horiz-adv-x="1148" d="M172 326v714h78v-708q0 -86 33.5 -140.5t89 -86t126 -42t140.5 -10.5q55 0 119.5 6.5t124.5 18.5v962h78v-1020q-86 -20 -166 -30t-156 -10q-229 0 -348 82.5t-119 263.5zM330 1343q0 29 18.5 46.5t44.5 17.5q27 0 46.5 -17.5t19.5 -46.5t-19.5 -47t-46.5 -18t-45 18.5 t-18 46.5zM682 1343q0 29 19.5 46.5t43.5 17.5q27 0 46.5 -17.5t19.5 -46.5t-19.5 -47t-46.5 -18q-25 0 -44 18.5t-19 46.5z" />
<glyph unicode="&#xfd;" horiz-adv-x="985" d="M16 1040h84l408 -1005l383 1005h76l-561 -1468h-80l141 362zM467 1225l201 360h77l-202 -360h-76z" />
<glyph unicode="&#xfe;" horiz-adv-x="1183" d="M193 -428v2048h77v-614q39 18 110 35.5t155 17.5q115 0 214 -33t171.5 -100.5t113.5 -168t41 -233.5q0 -125 -40 -227t-112.5 -172t-172 -107.5t-220.5 -37.5q-68 0 -140.5 14t-119.5 39v-461h-77zM270 104q59 -25 123 -40t137 -15q113 0 199 37t144.5 99.5t90 149.5 t31.5 189q0 115 -36.5 202t-98 145.5t-145.5 88t-180 29.5q-86 0 -151 -14t-114 -37v-834z" />
<glyph unicode="&#xff;" horiz-adv-x="985" d="M16 1040h84l408 -1005l383 1005h76l-561 -1468h-80l141 362zM270 1343q0 29 18.5 46.5t45.5 17.5q25 0 45 -17.5t20 -46.5t-20 -47t-45 -18q-27 0 -45.5 18.5t-18.5 46.5zM623 1343q0 29 19.5 46.5t43.5 17.5q27 0 46.5 -17.5t19.5 -46.5t-19.5 -47t-46.5 -18 q-25 0 -44 18.5t-19 46.5z" />
<glyph unicode="&#x152;" horiz-adv-x="1916" d="M119 709q0 162 57 293t157.5 223t233.5 142t285 50h934v-74h-682v-579h641v-74h-641v-618h688v-72h-940q-152 0 -285 50t-233.5 142.5t-157.5 223.5t-57 293zM199 709q0 -150 53 -270t142 -200.5t208 -123.5t250 -43h170v1271h-170q-131 0 -250 -41.5t-208 -122.5 t-142 -201t-53 -269z" />
<glyph unicode="&#x153;" horiz-adv-x="2037" d="M111 520q0 121 36.5 220.5t104 171t161 109.5t203.5 38q164 0 285 -81t178 -224q55 137 172 221t267 84q195 0 304 -122t109 -331v-65h-819v-17q0 -113 33 -198.5t90 -147t138 -93.5t173 -32q102 0 183 26.5t161 94.5v-84q-70 -59 -162 -84.5t-182 -25.5 q-158 0 -283.5 77.5t-185.5 227.5q-57 -145 -177 -225t-284 -80q-111 0 -204 38.5t-160.5 109.5t-104 171t-36.5 221zM193 520q0 -109 29.5 -194.5t86 -147t135 -95.5t172.5 -34q92 0 171 34t134.5 95.5t87 147t31.5 194.5t-31.5 195t-87 146.5t-134 94t-171.5 33.5 q-94 0 -172.5 -33.5t-135 -94t-86 -146.5t-29.5 -195zM1120 606h733q0 178 -89 280.5t-246 102.5q-72 0 -139.5 -28.5t-121 -77.5t-89 -121t-48.5 -156z" />
<glyph unicode="&#x178;" horiz-adv-x="1183" d="M33 1417h92l469 -755l471 755h86l-520 -835v-582h-80v582zM352 1626q0 29 18.5 46.5t43.5 17.5q27 0 46 -17.5t19 -46.5t-19 -46t-46 -17q-25 0 -43.5 17t-18.5 46zM702 1626q0 29 19.5 46.5t46.5 17.5t46.5 -17.5t19.5 -46.5t-19.5 -46t-46.5 -17t-46.5 17t-19.5 46z " />
<glyph unicode="&#x2c6;" horiz-adv-x="1191" d="M322 1227l253 325h43l252 -325h-79l-195 252l-193 -252h-81z" />
<glyph unicode="&#x2dc;" horiz-adv-x="1191" d="M311 1235q0 104 39 165.5t113 61.5q49 0 83 -26.5t62.5 -57t55 -57.5t61.5 -27q45 0 67.5 45t22.5 115h64q0 -104 -39 -164.5t-113 -60.5q-47 0 -82 26.5t-63.5 57t-56 57.5t-58.5 27q-47 0 -69.5 -45t-22.5 -117h-64z" />
<glyph unicode="&#x2000;" horiz-adv-x="927" />
<glyph unicode="&#x2001;" horiz-adv-x="1855" />
<glyph unicode="&#x2002;" horiz-adv-x="927" />
<glyph unicode="&#x2003;" horiz-adv-x="1855" />
<glyph unicode="&#x2004;" horiz-adv-x="618" />
<glyph unicode="&#x2005;" horiz-adv-x="463" />
<glyph unicode="&#x2006;" horiz-adv-x="309" />
<glyph unicode="&#x2007;" horiz-adv-x="309" />
<glyph unicode="&#x2008;" horiz-adv-x="231" />
<glyph unicode="&#x2009;" horiz-adv-x="371" />
<glyph unicode="&#x200a;" horiz-adv-x="103" />
<glyph unicode="&#x2010;" horiz-adv-x="847" d="M152 588v69h542v-69h-542z" />
<glyph unicode="&#x2011;" horiz-adv-x="847" d="M152 588v69h542v-69h-542z" />
<glyph unicode="&#x2012;" horiz-adv-x="847" d="M152 588v69h542v-69h-542z" />
<glyph unicode="&#x2013;" horiz-adv-x="1363" d="M152 592v65h1060v-65h-1060z" />
<glyph unicode="&#x2014;" horiz-adv-x="2271" d="M152 592v65h1966v-65h-1966z" />
<glyph unicode="&#x2018;" horiz-adv-x="462" d="M168 1130q0 139 64.5 248t158.5 158h68q-92 -74 -151.5 -170t-59.5 -236h-80z" />
<glyph unicode="&#x2019;" horiz-adv-x="462" d="M66 1130q90 74 149 171.5t59 234.5h82q0 -137 -64.5 -246.5t-160.5 -159.5h-65z" />
<glyph unicode="&#x201a;" horiz-adv-x="462" d="M-8 -250q90 74 150.5 170t60.5 236h82q0 -139 -64.5 -247t-161.5 -159h-67z" />
<glyph unicode="&#x201c;" horiz-adv-x="712" d="M168 1130q0 139 64.5 248t158.5 158h68q-92 -74 -151.5 -170t-59.5 -236h-80zM416 1130q0 139 65.5 248t159.5 158h68q-90 -74 -150.5 -170t-60.5 -236h-82z" />
<glyph unicode="&#x201d;" horiz-adv-x="712" d="M66 1130q90 74 149 171.5t59 234.5h82q0 -137 -64.5 -246.5t-160.5 -159.5h-65zM313 1130q92 74 151.5 171.5t59.5 234.5h82q0 -137 -64.5 -246.5t-160.5 -159.5h-68z" />
<glyph unicode="&#x201e;" horiz-adv-x="712" d="M-8 -299q90 74 150.5 171t60.5 234h82q0 -137 -64.5 -245.5t-161.5 -159.5h-67zM244 -299q90 74 150.5 171t60.5 234h80q0 -137 -64.5 -245.5t-161.5 -159.5h-65z" />
<glyph unicode="&#x2022;" horiz-adv-x="686" d="M168 625q0 74 51 124t125 50q72 0 123 -50.5t51 -123.5q0 -74 -51 -125t-123 -51q-74 0 -125 51t-51 125z" />
<glyph unicode="&#x2026;" horiz-adv-x="1400" d="M168 61q0 29 18.5 48.5t46.5 19.5q29 0 48.5 -19.5t19.5 -48.5t-19.5 -47t-48.5 -18t-47 18.5t-18 46.5zM633 61q0 29 20.5 48.5t46.5 19.5q31 0 49.5 -19.5t18.5 -48.5t-18.5 -47t-49.5 -18q-27 0 -47 18.5t-20 46.5zM1102 61q0 29 18.5 48.5t48.5 19.5q27 0 46.5 -19.5 t19.5 -48.5t-19.5 -47t-46.5 -18q-31 0 -49 18.5t-18 46.5z" />
<glyph unicode="&#x202f;" horiz-adv-x="371" />
<glyph unicode="&#x2039;" horiz-adv-x="620" d="M119 514l293 377h90l-295 -377l295 -377h-90z" />
<glyph unicode="&#x203a;" horiz-adv-x="620" d="M119 137l293 377l-293 377h88l295 -377l-295 -377h-88z" />
<glyph unicode="&#x205f;" horiz-adv-x="463" />
<glyph unicode="&#x20ac;" horiz-adv-x="1165" d="M47 573v60h146q-4 20 -4.5 37.5t-0.5 38.5v46t5 40h-146v63h150q20 131 67 238.5t121 182.5t171 116t214 41q174 0 311 -103v-88q-63 61 -144 91t-167 30q-201 0 -332 -137t-164 -371h519l-15 -63h-512q-2 -18 -2 -40v-46v-38t2 -38h473l-16 -60h-449q14 -119 57.5 -216 t108 -164.5t149.5 -105.5t181 -38q86 0 169 32t146 93v-92q-137 -102 -315 -102q-119 0 -217 43t-173 119.5t-121 186t-64 244.5h-148z" />
<glyph unicode="&#x2122;" horiz-adv-x="1462" d="M72 1360v57h497v-57h-215v-582h-67v582h-215zM598 776l109 641h81l185 -567l184 567h80l106 -641h-61l-94 557l-182 -561h-66l-184 561l-92 -557h-66z" />
<glyph unicode="&#x25fc;" horiz-adv-x="1044" d="M0 0v1044h1044v-1044h-1044z" />
<glyph unicode="&#xfb01;" horiz-adv-x="1120" d="M57 973v67h158v250q0 158 81 254t243 96q84 0 148.5 -25.5t96.5 -51.5v-88q-49 39 -110.5 66.5t-134.5 27.5q-127 0 -185.5 -79t-58.5 -214v-236h633v-1040h-78v973h-555v-973h-80v973h-158z" />
<glyph unicode="&#xfb02;" horiz-adv-x="1120" d="M57 973v67h158v293q0 147 71.5 227t209.5 80q59 0 103 -13t75 -36v-86q-41 31 -82 47.5t-96 16.5q-98 0 -149.5 -59.5t-51.5 -190.5v-279h315v-67h-315v-973h-80v973h-158zM850 0v1620h78v-1620h-78z" />
<glyph unicode="&#xfb03;" horiz-adv-x="1755" d="M57 973v67h158v271q0 147 71.5 227t209.5 80q59 0 103 -13.5t75 -35.5v-86q-41 31 -82 48t-96 17q-98 0 -149.5 -59t-51.5 -193v-256h555v250q0 158 81 254t243 96q84 0 148 -25.5t97 -51.5v-88q-51 39 -111.5 66.5t-133.5 27.5q-129 0 -187.5 -79t-58.5 -214v-236h635 v-1040h-76v973h-559v-973h-78v973h-555v-973h-80v973h-158z" />
<glyph unicode="&#xfb04;" horiz-adv-x="1755" d="M57 973v67h158v271q0 147 71.5 227t209.5 80q59 0 103 -13.5t75 -35.5v-86q-41 31 -82 48t-96 17q-98 0 -149.5 -59t-51.5 -193v-256h555v293q0 147 71.5 227t208.5 80q59 0 103.5 -13t73.5 -36v-82q-37 31 -80 47.5t-97 16.5q-100 0 -151 -59.5t-51 -190.5v-283h317v-67 h-317v-973h-78v973h-555v-973h-80v973h-158zM1487 0v1620h76v-1620h-76z" />
</font>
</defs>
</svg>
