<?xml version="1.0" standalone="no"?>
<!DOCTYPE svg PUBLIC "-//W3C//DTD SVG 1.1//EN" "http://www.w3.org/Graphics/SVG/1.1/DTD/svg11.dtd" >
<svg xmlns="http://www.w3.org/2000/svg">
<metadata></metadata>
<defs>
<font id="karbonsemibold" horiz-adv-x="595" >
<font-face units-per-em="2048" ascent="1649" descent="-399" />
<missing-glyph horiz-adv-x="454" />
<glyph horiz-adv-x="0" />
<glyph unicode="&#xd;" />
<glyph horiz-adv-x="0" />
<glyph horiz-adv-x="0" />
<glyph unicode=" "  horiz-adv-x="454" />
<glyph unicode="&#x09;" horiz-adv-x="454" />
<glyph unicode="&#xa0;" horiz-adv-x="454" />
<glyph unicode="!" horiz-adv-x="618" d="M117 170q0 78 56 135t134 57q80 0 135.5 -57t55.5 -135q0 -80 -55.5 -135t-135.5 -55q-78 0 -134 55t-56 135zM164 467v950h291v-950h-291z" />
<glyph unicode="&#x22;" horiz-adv-x="862" d="M127 989l47 547h248l-88 -547h-207zM477 989l47 547h248l-92 -547h-203z" />
<glyph unicode="#" horiz-adv-x="1286" d="M72 375v198h207l57 277h-189v201h230l74 366h223l-76 -366h231l76 366h219l-71 -366h161v-201h-202l-58 -277h183v-198h-222l-75 -375h-222l76 375h-231l-76 -375h-223l78 375h-170zM502 573h231l58 277h-232z" />
<glyph unicode="$" horiz-adv-x="1058" d="M53 1010q0 82 29 150.5t78 118.5t117.5 84t146.5 44v213h225v-211q82 -10 147.5 -34.5t123.5 -59.5v-291q-82 68 -174.5 105.5t-204.5 37.5q-90 0 -141.5 -38.5t-51.5 -104.5q0 -80 62.5 -112.5t193.5 -65.5q217 -55 311.5 -156.5t94.5 -277.5q0 -168 -103.5 -265.5 t-257.5 -130.5v-243h-225v229q-104 6 -195.5 36t-154.5 68v293q84 -63 182 -106t213 -43q100 0 170 33.5t70 119.5q0 82 -64.5 120t-183.5 65q-217 55 -312.5 151.5t-95.5 270.5z" />
<glyph unicode="%" horiz-adv-x="1658" d="M59 1085q0 80 29 144.5t77 112t112.5 74t136.5 26.5q76 0 140 -26.5t112.5 -74t76 -112t27.5 -144.5q0 -78 -27.5 -144.5t-76 -112.5t-113 -71.5t-139.5 -25.5q-72 0 -136.5 25.5t-112.5 71.5t-77 112.5t-29 144.5zM276 1085q0 -70 40 -107.5t98 -37.5q63 0 102 38 t39 107q0 70 -39 108t-102 38q-57 0 -97.5 -38t-40.5 -108zM301 0l850 1417h203l-850 -1417h-203zM887 332q0 80 27.5 144.5t76.5 110.5t113.5 72.5t136.5 26.5q76 0 140.5 -26.5t113.5 -72.5t75.5 -110.5t26.5 -144.5t-26.5 -144.5t-75.5 -112.5t-113.5 -74t-140.5 -26 q-72 0 -136.5 26t-113.5 74t-76.5 112.5t-27.5 144.5zM1104 332q0 -70 38 -108t99 -38q63 0 103 38t40 108t-39.5 107.5t-103.5 37.5q-61 0 -99 -38t-38 -107z" />
<glyph unicode="&#x26;" horiz-adv-x="1400" d="M59 375q0 152 79 236.5t204 140.5q-137 152 -137 325q0 80 28.5 146.5t82 116t129 76t165.5 26.5q86 0 159 -24.5t127 -69.5t85 -109.5t31 -148.5q0 -141 -73 -235.5t-181 -152.5l217 -235q33 59 50 127t22 137h245q-4 -127 -41 -240.5t-106 -205.5l260 -285h-348 l-96 102q-90 -59 -194.5 -93t-225.5 -34q-223 0 -352.5 106.5t-129.5 293.5zM346 387q0 -86 56.5 -134t168.5 -48q61 0 119 17.5t109 47.5l-310 326q-78 -41 -110.5 -94t-32.5 -115zM481 1081q0 -49 28 -93t85 -105l22 -23q61 35 98.5 86t37.5 131q-4 61 -40 96t-100 39 q-57 0 -94 -37.5t-37 -93.5z" />
<glyph unicode="'" horiz-adv-x="514" d="M127 989l47 547h248l-88 -547h-207z" />
<glyph unicode="(" horiz-adv-x="940" d="M186 645q0 143 30 278.5t84 261.5t130 237.5t168 197.5h317q-215 -211 -331.5 -455.5t-116.5 -519.5q0 -274 116.5 -519t331.5 -458h-317q-92 88 -168 200t-130 238.5t-84 264t-30 274.5z" />
<glyph unicode=")" horiz-adv-x="940" d="M25 -332q215 213 330.5 458t115.5 519t-115.5 519t-330.5 456h317q92 -86 168 -197.5t130 -237.5t84 -261.5t30 -278.5q0 -137 -30 -274.5t-84 -264t-130 -238.5t-168 -200h-317z" />
<glyph unicode="*" horiz-adv-x="913" d="M72 1260l63 202l230 -84l-7 242h215l-8 -242l230 78l65 -199l-231 -69l143 -193l-168 -127l-137 201l-143 -197l-168 121l145 195z" />
<glyph unicode="+" horiz-adv-x="1093" d="M94 588v217h344v344h217v-344h344v-217h-344v-342h-217v342h-344z" />
<glyph unicode="," horiz-adv-x="630" d="M20 -274q84 123 120 256t36 288h297q0 -190 -70.5 -329.5t-171.5 -214.5h-211z" />
<glyph unicode="-" horiz-adv-x="847" d="M102 494v254h641v-254h-641z" />
<glyph unicode="." horiz-adv-x="630" d="M125 170q0 78 56.5 135t131.5 57q80 0 136.5 -57t56.5 -135q0 -80 -56.5 -135t-136.5 -55q-76 0 -132 55t-56 135z" />
<glyph unicode="/" horiz-adv-x="1058" d="M-14 -330l749 1950h293l-749 -1950h-293z" />
<glyph unicode="0" horiz-adv-x="1261" d="M78 707q0 162 39 296t111.5 232t175 152.5t227.5 54.5q127 0 229.5 -54.5t175 -152.5t110.5 -232.5t38 -295.5q0 -160 -38 -295.5t-110.5 -232.5t-175 -150.5t-229.5 -53.5q-125 0 -227.5 53.5t-175 150.5t-111.5 232.5t-39 295.5zM377 707q0 -233 69.5 -354.5 t184.5 -121.5t185.5 121t70.5 355q0 236 -71 356.5t-185 120.5q-115 0 -184.5 -120.5t-69.5 -356.5z" />
<glyph unicode="1" horiz-adv-x="776" d="M47 1075v268l563 95v-1438h-299v1110z" />
<glyph unicode="2" horiz-adv-x="1058" d="M27 0v221q123 104 232.5 202.5t194.5 192t134 181.5t49 174q0 98 -56.5 146t-154.5 48q-100 0 -197.5 -53t-167.5 -115v289q78 70 191 113t254 43q92 0 175 -26.5t143.5 -80t96 -132.5t35.5 -185q0 -104 -42 -203.5t-114.5 -195t-171 -183.5t-208.5 -172h573v-264h-966z " />
<glyph unicode="3" horiz-adv-x="993" d="M47 80v278q70 -53 157 -93t202 -40q98 0 160.5 42t62.5 126q0 102 -79 144.5t-243 50.5v233q291 20 291 211q0 76 -47 112t-119 36q-106 0 -199.5 -51.5t-158.5 -110.5v280q84 74 187.5 109t215.5 35q201 0 313.5 -100.5t112.5 -272.5q0 -133 -72.5 -222t-185.5 -128 q133 -37 209 -122t76 -222q0 -102 -41 -177t-110.5 -124t-161 -74t-189.5 -25q-127 0 -220 29t-161 76z" />
<glyph unicode="4" horiz-adv-x="1298" d="M53 342v244l668 831h293v-837h213v-238h-213v-342h-289v342h-672zM342 580h383v495z" />
<glyph unicode="5" horiz-adv-x="995" d="M37 78v268q66 -47 152.5 -84t187.5 -37q121 0 190.5 46t69.5 153q0 74 -43 122t-112.5 78.5t-163 46t-193.5 25.5l49 721h713v-268h-473l-17 -240q109 -12 204 -43.5t166 -88t111 -140.5t40 -203q0 -215 -140.5 -337t-386.5 -122q-100 0 -195.5 28t-158.5 75z" />
<glyph unicode="6" horiz-adv-x="1144" d="M66 469q0 72 16 140.5t40.5 131t55.5 118.5t60 102l276 456h311l-221 -362l-102 -158q25 18 59.5 29.5t71.5 11.5q90 0 174 -29.5t147.5 -90t101.5 -147.5t38 -202q0 -102 -37 -192.5t-104.5 -157t-165 -105.5t-216.5 -39q-117 0 -212 39t-159.5 105.5t-99 157 t-34.5 192.5zM346 463q0 -115 66.5 -178.5t162.5 -63.5q100 0 167 63.5t67 178.5q0 113 -66.5 176t-167.5 63q-98 0 -163.5 -63t-65.5 -176z" />
<glyph unicode="7" horiz-adv-x="1044" d="M27 1149v268h936v-270l-551 -1147h-308l541 1149h-618z" />
<glyph unicode="8" horiz-adv-x="1112" d="M61 389q0 68 21.5 122t57.5 97t83 72t94 43q-86 41 -142 123t-56 196q0 94 34.5 169t94 126.5t139.5 78t168 26.5q90 0 169 -26.5t137.5 -78t93 -126t34.5 -169.5q0 -115 -54 -196.5t-140 -122.5q47 -14 92 -43t82 -72t59.5 -97t22.5 -122q0 -98 -40 -175t-106.5 -130 t-157 -81t-192.5 -28q-100 0 -191.5 28t-159 81t-105.5 130t-38 175zM356 401q0 -90 56.5 -137t142.5 -47t143.5 47t57.5 137t-57.5 140.5t-143.5 50.5t-142.5 -50t-56.5 -141zM387 1028q0 -80 48 -125t120 -45q74 0 122 45t48 125q0 82 -48 127t-122 45q-72 0 -120 -45 t-48 -127z" />
<glyph unicode="9" horiz-adv-x="1144" d="M49 948q0 104 38 193.5t105.5 156t165 105.5t217.5 39q119 0 212.5 -39t159 -105.5t99 -155.5t33.5 -194q0 -74 -16 -141.5t-41 -131t-55.5 -118.5t-59.5 -100l-276 -457h-312l222 362l102 158q-25 -18 -59.5 -29.5t-71.5 -11.5q-90 0 -174 30t-147.5 89t-102.5 147.5 t-39 202.5zM336 954q0 -115 66.5 -178t168.5 -63q96 0 162 63t66 178t-66.5 177.5t-161.5 62.5q-102 0 -168.5 -62.5t-66.5 -177.5z" />
<glyph unicode=":" horiz-adv-x="630" d="M125 170q0 78 56.5 135t131.5 57q80 0 136.5 -57t56.5 -135q0 -80 -56.5 -135t-136.5 -55q-76 0 -132 55t-56 135zM125 834q0 76 56.5 133t131.5 57q80 0 136.5 -57.5t56.5 -132.5q0 -80 -56.5 -135.5t-136.5 -55.5q-76 0 -132 55.5t-56 135.5z" />
<glyph unicode=";" horiz-adv-x="630" d="M20 -274q84 123 120 256t36 288h297q0 -190 -70.5 -329.5t-171.5 -214.5h-211zM137 834q0 76 56.5 133t136.5 57t135 -57.5t55 -132.5q0 -80 -55 -135.5t-135 -55.5t-136.5 55.5t-56.5 135.5z" />
<glyph unicode="&#x3c;" horiz-adv-x="837" d="M66 686v16l675 428v-247l-325 -189l325 -188v-250z" />
<glyph unicode="=" horiz-adv-x="1120" d="M106 424v197h906v-197h-906zM106 780v197h906v-197h-906z" />
<glyph unicode="&#x3e;" horiz-adv-x="837" d="M94 256v250l328 188l-328 189v247l678 -428v-16z" />
<glyph unicode="?" horiz-adv-x="907" d="M43 1020v276q57 57 157.5 101.5t235.5 44.5q94 0 174 -24.5t139.5 -75t92 -127t32.5 -181.5q0 -104 -37.5 -178t-94 -122t-122 -76.5t-118.5 -45.5v-145h-269v285q88 27 156 49t111 51t65.5 66.5t22.5 95.5q0 84 -54.5 125t-134.5 41q-102 0 -187 -45t-169 -115zM182 168 q0 80 53.5 137t129.5 57q84 0 141 -57t57 -137q0 -78 -57 -133t-141 -55q-76 0 -129.5 55t-53.5 133z" />
<glyph unicode="@" horiz-adv-x="1837" d="M98 508q0 182 59.5 341t173 273.5t275.5 182t369 67.5q180 0 321.5 -51t238.5 -142.5t148.5 -218t51.5 -278.5q0 -162 -53.5 -285t-146.5 -204.5t-223 -123.5t-282 -42q-123 0 -222 31.5t-171 93t-112 150.5t-40 206q0 113 39 202t106.5 150.5t165 97t212.5 35.5 q84 0 166.5 -16t144.5 -41v-680q106 45 175 152.5t69 273.5q0 127 -41 226.5t-117 168t-184.5 105.5t-245.5 37q-166 0 -297 -52.5t-222 -146.5t-138.5 -225t-47.5 -287q0 -199 71 -333t181.5 -216t251.5 -117t283 -35q135 0 251.5 21.5t231.5 65.5v-158q-86 -37 -212 -59.5 t-271 -22.5q-195 0 -368 50t-305 154.5t-209 265.5t-77 384zM731 506q0 -125 76 -199t205 -74h33.5t48.5 7v520q-37 10 -86 10q-129 0 -203 -74.5t-74 -189.5z" />
<glyph unicode="A" horiz-adv-x="1480" d="M8 0l547 1417h365l555 -1417h-330l-111 301h-600l-110 -301h-316zM524 547h424l-211 577z" />
<glyph unicode="B" horiz-adv-x="1247" d="M160 8v1399q82 12 194.5 23.5t200.5 11.5q123 0 224.5 -21.5t173 -69.5t113.5 -125t42 -184q0 -129 -76 -209.5t-186 -99.5q141 -14 234.5 -100t93.5 -242q0 -195 -154 -304.5t-500 -109.5q-94 0 -191.5 9.5t-168.5 21.5zM451 233q29 -4 63.5 -5t56.5 -1q137 0 217 42 t80 143q0 100 -70.5 138t-189.5 38h-157v-355zM451 834h110q250 0 250 184q0 86 -61.5 128t-167.5 42q-33 0 -69 -3t-62 -5v-346z" />
<glyph unicode="C" horiz-adv-x="1318" d="M82 709q0 162 55.5 296t150.5 231t230 151.5t297 54.5q106 0 203.5 -22.5t183.5 -76.5v-323q-70 70 -167 109.5t-220 39.5q-94 0 -172 -33.5t-133 -95t-86 -145.5t-31 -186q0 -104 33 -189.5t90 -147t137 -93t174 -31.5q123 0 215.5 35.5t184.5 109.5v-311 q-102 -59 -203.5 -83t-208.5 -24q-166 0 -301 53.5t-230.5 150.5t-148.5 232.5t-53 297.5z" />
<glyph unicode="D" horiz-adv-x="1486" d="M160 10v1399q80 12 195.5 22.5t230.5 10.5q391 0 602 -188.5t211 -526.5q0 -180 -55.5 -321.5t-161 -234.5t-256 -143.5t-342.5 -50.5q-117 0 -229.5 7.5t-194.5 25.5zM463 250q33 -4 75 -5t80 -1q104 0 191.5 28.5t149 88t96.5 151.5t35 215q0 217 -130.5 327.5 t-353.5 110.5q-33 0 -71.5 -2t-71.5 -6v-907z" />
<glyph unicode="E" horiz-adv-x="1187" d="M160 0v1417h905v-266h-606v-309h555v-260h-555v-318h618v-264h-917z" />
<glyph unicode="F" horiz-adv-x="1058" d="M160 0v1417h825v-266h-522v-356h469v-260h-469v-535h-303z" />
<glyph unicode="G" horiz-adv-x="1404" d="M82 709q0 162 55.5 296t152.5 231t232 151.5t295 54.5q256 0 428 -109v-315q-76 70 -182.5 111.5t-226.5 41.5q-98 0 -179.5 -33.5t-139.5 -94t-91 -145.5t-33 -189q0 -109 34 -197t93.5 -149.5t139 -93t176.5 -31.5q47 0 91 5t74 17v395h295v-573q-82 -55 -211 -81 t-256 -26q-168 0 -305 52.5t-234 145.5t-152.5 229.5t-55.5 306.5z" />
<glyph unicode="H" horiz-adv-x="1570" d="M160 0v1417h303v-575h647v575h299v-1417h-299v575h-647v-575h-303z" />
<glyph unicode="I" horiz-adv-x="622" d="M160 0v1417h303v-1417h-303z" />
<glyph unicode="J" horiz-adv-x="919" d="M45 68v297q127 -115 272 -115q76 0 121 33.5t45 130.5v1003h305v-1038q0 -203 -118.5 -303.5t-315.5 -100.5q-102 0 -178 25t-131 68z" />
<glyph unicode="K" horiz-adv-x="1341" d="M160 0v1417h303v-1417h-303zM469 698l485 719h353l-504 -692l538 -725h-358z" />
<glyph unicode="L" horiz-adv-x="1067" d="M160 0v1417h303v-1153h555v-264h-858z" />
<glyph unicode="M" horiz-adv-x="1931" d="M80 0l207 1417h366l318 -1038l307 1038h369l208 -1417h-299l-149 989l-305 -989h-277l-303 989l-147 -989h-295z" />
<glyph unicode="N" horiz-adv-x="1558" d="M160 0v1417h307l637 -954v954h293v-1417h-287l-659 942v-942h-291z" />
<glyph unicode="O" horiz-adv-x="1640" d="M82 709q0 162 57.5 296t158.5 231t235.5 151.5t287.5 54.5q154 0 287 -54.5t234.5 -151.5t159 -231.5t57.5 -295.5q0 -162 -57.5 -297.5t-159 -232.5t-234.5 -150.5t-287 -53.5t-288 53.5t-235 150.5t-158.5 232.5t-57.5 297.5zM393 709q0 -104 33 -189.5t90 -147 t136 -93t169 -31.5q88 0 168 31.5t136.5 93t89 147t32.5 189.5t-32.5 189t-89 145.5t-136.5 93t-168 32.5q-90 0 -169 -32.5t-136 -93t-90 -145.5t-33 -189z" />
<glyph unicode="P" horiz-adv-x="1206" d="M160 0v1409q80 12 191.5 22.5t217.5 10.5q270 0 429 -126t159 -378q0 -133 -46 -227.5t-126 -154.5t-184.5 -89t-220.5 -29q-29 0 -63 1t-54 5v-444h-303zM463 700q14 -2 43 -3t55 -1q137 0 214 57.5t77 184.5q0 121 -77 178.5t-210 57.5q-23 0 -52.5 -1.5t-49.5 -5.5 v-467z" />
<glyph unicode="Q" horiz-adv-x="1640" d="M82 709q0 162 57.5 296t158.5 231t235.5 151.5t287.5 54.5q154 0 287 -54.5t234.5 -151.5t159 -231.5t57.5 -295.5q0 -125 -34 -232.5t-95.5 -195.5t-145.5 -151.5t-186 -102.5l315 -367h-354l-277 317q-145 8 -273 64.5t-222 152t-149.5 226.5t-55.5 289zM393 709 q0 -104 33 -189.5t90 -147t136 -93t169 -31.5q88 0 168 31.5t136.5 93t89 147t32.5 189.5t-32.5 189t-89 145.5t-136.5 93t-168 32.5q-90 0 -169 -32.5t-136 -93t-90 -145.5t-33 -189z" />
<glyph unicode="R" horiz-adv-x="1288" d="M160 0v1411q78 12 190.5 21.5t212.5 9.5q276 0 434 -120t158 -359q0 -154 -78 -260.5t-192 -159.5l403 -543h-358l-338 477h-131v-477h-301zM461 725h102q127 0 206 52t79 177q0 115 -77 170.5t-208 55.5q-23 0 -53.5 -1t-48.5 -5v-449z" />
<glyph unicode="S" horiz-adv-x="1075" d="M70 1020q0 102 35.5 180t101 132t151.5 82t183 28q123 0 212 -29t165 -78v-299q-82 72 -171.5 109t-195.5 37q-90 0 -139.5 -40t-49.5 -108q0 -74 60.5 -112.5t185.5 -71.5q213 -59 303 -163.5t90 -283.5q0 -109 -40.5 -190.5t-111.5 -133.5t-167 -78t-205 -26 q-119 0 -217 29t-168 76v299q82 -61 173 -103.5t212 -42.5q92 0 161 36t69 124q0 80 -62.5 119t-175.5 72q-213 59 -306 158.5t-93 277.5z" />
<glyph unicode="T" horiz-adv-x="1241" d="M35 1151v266h1171v-266h-436v-1151h-299v1151h-436z" />
<glyph unicode="U" horiz-adv-x="1454" d="M137 496v921h303v-858q0 -96 21.5 -159.5t61.5 -101.5t95.5 -53.5t122.5 -15.5q80 0 138.5 6.5t113.5 14.5v1167h301v-1372q-47 -14 -114.5 -27.5t-143 -21.5t-151.5 -14.5t-144 -6.5q-121 0 -229.5 26t-191 86t-133 159.5t-50.5 249.5z" />
<glyph unicode="V" horiz-adv-x="1443" d="M8 1417h324l393 -1112l389 1112h322l-531 -1417h-366z" />
<glyph unicode="W" horiz-adv-x="2017" d="M41 1417h303l252 -1077l260 1077h311l265 -1077l249 1077h293l-348 -1417h-377l-241 1006l-244 -1006h-373z" />
<glyph unicode="X" horiz-adv-x="1359" d="M8 0l506 735l-469 682h348l293 -444l293 444h338l-467 -684l504 -733h-346l-328 492l-334 -492h-338z" />
<glyph unicode="Y" horiz-adv-x="1333" d="M8 1417h332l330 -604l325 604h334l-514 -891v-526h-299v526z" />
<glyph unicode="Z" horiz-adv-x="1196" d="M70 0v264l686 887h-674v266h1030v-266l-700 -887h714v-264h-1056z" />
<glyph unicode="[" horiz-adv-x="858" d="M233 -330v1950h506v-221h-237v-1503h237v-226h-506z" />
<glyph unicode="\" horiz-adv-x="1058" d="M31 1620h293l749 -1950h-293z" />
<glyph unicode="]" horiz-adv-x="858" d="M119 -104h237v1503h-237v221h506v-1950h-506v226z" />
<glyph unicode="^" horiz-adv-x="1064" d="M47 805l356 612h259l354 -612h-277l-209 364l-206 -364h-277z" />
<glyph unicode="_" horiz-adv-x="1101" d="M119 -123h864v-233h-864v233z" />
<glyph unicode="`" horiz-adv-x="1191" d="M362 1585h263l202 -360h-262z" />
<glyph unicode="a" horiz-adv-x="1097" d="M84 305q0 166 128 246t351 80h117v65q0 76 -55.5 111t-135.5 35q-96 0 -170.5 -24.5t-136.5 -63.5v247q70 41 162 63.5t195 22.5q92 0 168.5 -18t134 -63t89.5 -118t32 -179v-686q-76 -20 -186.5 -33t-213.5 -13q-100 0 -187 17.5t-151.5 55.5t-102.5 100.5t-38 154.5z M371 319q0 -70 51 -100.5t139 -30.5q23 0 56.5 2.5t62.5 8.5v250h-96q-100 0 -156.5 -30t-56.5 -100z" />
<glyph unicode="b" horiz-adv-x="1282" d="M156 53v1567h284v-586q41 25 105.5 39t134.5 14q115 0 211 -36.5t165.5 -104t109.5 -167t40 -220.5q0 -131 -41 -237.5t-119.5 -184.5t-195.5 -120t-275 -42q-131 0 -234 24t-185 54zM440 246q31 -12 70 -18.5t78 -6.5q70 0 129 19.5t102 60.5t68.5 103.5t25.5 146.5 q0 129 -80.5 203.5t-199.5 74.5q-61 0 -110.5 -17t-82.5 -36v-530z" />
<glyph unicode="c" horiz-adv-x="1034" d="M78 528q0 127 41 229.5t115.5 177.5t178 113.5t224.5 38.5q90 0 161.5 -18t141.5 -59v-273q-68 55 -133.5 77t-138.5 22q-133 0 -218 -79t-85 -222q0 -135 85 -220.5t230 -85.5t270 95v-269q-72 -43 -149.5 -61.5t-161.5 -18.5q-127 0 -232.5 40t-178 112t-111.5 175.5 t-39 225.5z" />
<glyph unicode="d" horiz-adv-x="1275" d="M78 528q0 127 40 230.5t113.5 177.5t177 112.5t224.5 38.5q55 0 110.5 -7t92.5 -25v565h286v-1593q-98 -27 -212.5 -39.5t-223.5 -12.5q-137 0 -249.5 36t-192.5 106.5t-123 175t-43 235.5zM367 539q0 -152 88 -235t241 -83q27 0 65 3t75 9v568q-72 35 -179 35 q-131 0 -210.5 -77t-79.5 -220z" />
<glyph unicode="e" horiz-adv-x="1144" d="M78 520q0 131 39 235.5t108.5 179.5t163.5 113.5t207 38.5q125 0 212 -37.5t143.5 -106.5t81 -161t24.5 -196v-131h-701v-6q6 -57 36 -99.5t73 -71t97 -43t106 -14.5q109 0 192.5 24.5t161.5 71.5v-243q-72 -51 -174.5 -75t-208.5 -24q-127 0 -232.5 39t-178 110 t-111.5 172t-39 224zM356 625h435q-2 100 -51.5 162.5t-151.5 62.5q-92 0 -151.5 -59.5t-80.5 -165.5z" />
<glyph unicode="f" horiz-adv-x="753" d="M27 825v240h166v164q0 217 109.5 317.5t281.5 100.5q66 0 118 -14.5t101 -39.5v-262q-47 25 -87 40t-93 15q-141 0 -142 -153v-168h260v-240h-260v-825h-288v825h-166z" />
<glyph unicode="g" horiz-adv-x="1253" d="M78 543q0 256 157.5 400t440.5 144q123 0 232.5 -22.5t199.5 -56.5v-992q0 -135 -50 -226t-129 -145.5t-172 -77t-184 -22.5q-203 0 -366 80v269q98 -55 181 -81t185 -26q104 0 174 57.5t70 180.5v20q-25 -14 -78 -24.5t-116 -10.5q-121 0 -221.5 35t-172 102.5 t-111.5 166t-40 229.5zM367 543q0 -137 78.5 -215t209.5 -78q47 0 86 10t76 23v532q-27 10 -64.5 16.5t-76.5 6.5q-145 0 -227 -74t-82 -221z" />
<glyph unicode="h" horiz-adv-x="1257" d="M156 0v1620h284v-578q39 14 108.5 29.5t153.5 15.5q88 0 164 -21.5t132.5 -69.5t89 -128t32.5 -200v-668h-291v649q0 180 -188 180q-53 0 -105.5 -7t-95.5 -23v-799h-284z" />
<glyph unicode="i" d="M127 1386q0 72 50 123.5t122 51.5q68 0 119 -51.5t51 -123.5q0 -70 -51 -119.5t-119 -49.5q-72 0 -122 50t-50 119zM156 0v1065h284v-1065h-284z" />
<glyph unicode="j" d="M-137 -176q39 -16 80 -24.5t73 -8.5q66 0 103 32t37 122v1120h284v-1163q0 -184 -106.5 -270.5t-276.5 -86.5q-55 0 -105 11.5t-89 27.5v240zM127 1386q0 72 50 123.5t122 51.5q68 0 119 -51.5t51 -123.5q0 -70 -51 -119.5t-119 -49.5q-72 0 -122 50t-50 119z" />
<glyph unicode="k" horiz-adv-x="1212" d="M156 0v1620h284v-1620h-284zM455 575l397 490h344l-418 -483l428 -582h-334z" />
<glyph unicode="l" d="M156 0v1620h284v-1620h-284z" />
<glyph unicode="m" horiz-adv-x="1841" d="M156 0v995q111 41 235.5 66.5t241.5 25.5q94 0 171 -21.5t124 -59.5q72 31 157.5 56t202.5 25q96 0 172 -20t129 -67.5t82 -126t29 -195.5v-678h-289v666q0 170 -162 170q-57 0 -110.5 -11.5t-87.5 -29.5q6 -18 12 -45t6 -64v-686h-287v666q0 170 -161 170 q-51 0 -94.5 -7.5t-86.5 -19.5v-809h-284z" />
<glyph unicode="n" horiz-adv-x="1257" d="M156 0v995q115 41 250 66.5t258 25.5q104 0 188 -21.5t143.5 -69.5t92 -128t32.5 -200v-668h-291v649q0 180 -188 180q-53 0 -104.5 -8t-96.5 -22v-799h-284z" />
<glyph unicode="o" horiz-adv-x="1263" d="M78 530q0 125 41 227.5t115.5 176.5t177 113.5t219.5 39.5q121 0 222 -39.5t176 -113.5t118 -176.5t43 -227.5q0 -121 -43 -224t-118 -176t-176 -114t-222 -41q-117 0 -219.5 41t-177 114t-115.5 176t-41 224zM365 530q0 -141 75.5 -223t190.5 -82q117 0 192.5 82 t75.5 223q0 145 -75.5 227.5t-192.5 82.5q-115 0 -190.5 -82t-75.5 -228z" />
<glyph unicode="p" horiz-adv-x="1271" d="M145 -428v1427q86 35 209 61.5t256 26.5q131 0 238.5 -35.5t185.5 -104t119 -168t41 -226.5q0 -279 -155.5 -428.5t-434.5 -149.5q-55 0 -99 6.5t-71 16.5v-426h-289zM434 248q29 -10 68 -15.5t80 -5.5q139 0 231 76t92 240q0 139 -83 212.5t-216 73.5q-43 0 -90 -6 t-82 -20v-555z" />
<glyph unicode="q" horiz-adv-x="1269" d="M78 528q0 129 41 231.5t119.5 176.5t191.5 112.5t256 38.5q127 0 236.5 -23.5t199.5 -55.5v-1436h-286v432q-35 -12 -84.5 -20.5t-110.5 -8.5q-125 0 -230.5 37t-179 109t-113.5 175t-40 232zM369 528q0 -139 80.5 -220t218.5 -81q51 0 89 8.5t79 18.5v557 q-33 10 -71 16.5t-79 6.5q-147 0 -232 -77t-85 -229z" />
<glyph unicode="r" horiz-adv-x="839" d="M156 0v983q88 47 197.5 71.5t226.5 24.5q61 0 111 -5t110 -21v-277q-53 18 -107.5 26.5t-107.5 8.5q-39 0 -76 -6t-70 -17v-788h-284z" />
<glyph unicode="s" horiz-adv-x="966" d="M98 745q0 90 31 154t86 106t128 62t161 20q94 0 167.5 -18t143.5 -59v-256q-76 49 -147.5 75.5t-153.5 26.5q-74 0 -105.5 -26.5t-31.5 -63.5q0 -41 30.5 -64.5t108.5 -44.5q205 -37 286 -118.5t81 -227.5q0 -174 -119 -255t-303 -81q-98 0 -189.5 24t-156.5 62v265 q78 -53 169 -86t171 -33q66 0 105.5 21.5t39.5 72.5q0 47 -37 71.5t-125 41.5q-182 35 -261 110.5t-79 220.5z" />
<glyph unicode="t" horiz-adv-x="856" d="M10 825v240h160v262h287v-262h301v-240h-301v-426q0 -92 39 -125.5t102 -33.5q55 0 101 15t96 44v-264q-113 -59 -275 -60q-70 0 -133 18.5t-111.5 58.5t-77 107.5t-28.5 162.5v503h-160z" />
<glyph unicode="u" horiz-adv-x="1226" d="M131 387v678h289v-653q0 -104 48 -151.5t163 -47.5q31 0 70.5 3t80.5 11v838h287v-1034q-90 -27 -213 -41.5t-225 -14.5q-113 0 -206 20.5t-159.5 68t-100.5 127t-34 196.5z" />
<glyph unicode="v" horiz-adv-x="1179" d="M12 1065h310l272 -780l272 780h301l-409 -1065h-336z" />
<glyph unicode="w" horiz-adv-x="1658" d="M12 1065h297l197 -754l203 754h252l198 -754l197 754h291l-308 -1065h-321l-191 694l-194 -694h-314z" />
<glyph unicode="x" horiz-adv-x="1142" d="M14 0l396 547l-375 518h342l198 -301l203 301h330l-373 -516l391 -549h-331l-232 334l-231 -334h-318z" />
<glyph unicode="y" horiz-adv-x="1177" d="M12 1065h312l272 -764l266 764h303l-583 -1493h-283l150 395z" />
<glyph unicode="z" horiz-adv-x="1019" d="M74 0v233l501 592h-485v240h832v-242l-508 -583h547v-240h-887z" />
<glyph unicode="{" horiz-adv-x="915" d="M115 528v236h67q78 0 129 43t51 158v305q0 178 90.5 264t247.5 86h117v-221h-78q-70 0 -89 -39t-19 -94v-281q0 -80 -23.5 -140.5t-62.5 -104.5t-89 -67.5t-104 -27.5q53 -2 103.5 -25.5t89.5 -67.5t62.5 -104.5t23.5 -140.5v-280q0 -53 19.5 -92t88.5 -39h78v-226h-117 q-158 0 -248 87t-90 268v301q0 115 -51 158.5t-129 43.5h-67z" />
<glyph unicode="|" horiz-adv-x="706" d="M219 -330v1950h266v-1950h-266z" />
<glyph unicode="}" horiz-adv-x="915" d="M98 -104h78q70 0 89.5 38.5t19.5 92.5v280q0 80 23.5 140.5t63.5 104.5t90 67.5t103 25.5q-53 4 -103 27.5t-90 67.5t-63.5 104.5t-23.5 140.5v281q0 55 -19.5 94t-89.5 39h-78v221h117q156 0 247 -86t91 -264v-305q0 -115 51 -158t131 -43h66v-236h-66q-80 0 -131 -44 t-51 -158v-301q0 -180 -91 -267.5t-247 -87.5h-117v226z" />
<glyph unicode="~" horiz-adv-x="1019" d="M104 467q0 170 63.5 263t180.5 93q53 0 91 -19.5t69 -43t59.5 -43t61.5 -19.5q35 0 54 27t19 88h213q0 -170 -62 -262t-179 -92q-53 0 -92 19.5t-70 42t-58.5 43t-56.5 20.5q-80 0 -80 -117h-213z" />
<glyph unicode="&#xa1;" horiz-adv-x="618" d="M117 909q0 80 56 135.5t134 55.5q80 0 135.5 -55.5t55.5 -135.5q0 -76 -55.5 -133t-135.5 -57q-78 0 -134 57t-56 133zM164 -336v948h291v-948h-291z" />
<glyph unicode="&#xa2;" horiz-adv-x="1030" d="M70 528q0 109 30.5 199t86 162t134 118t171.5 66v211h223v-203q119 -12 221 -71v-273q-68 55 -133.5 77t-138.5 22q-135 0 -220.5 -79t-85.5 -222q0 -135 85 -220.5t231 -85.5q147 0 270 95v-269q-104 -63 -229 -75v-207h-223v217q-195 41 -308.5 181t-113.5 357z" />
<glyph unicode="&#xa3;" horiz-adv-x="1085" d="M70 -2v262q90 47 129 119t43 201h-172v231h172v145q0 123 33.5 214.5t95 150.5t144.5 90t181 31q104 0 187.5 -31t128.5 -70v-307q-55 63 -125 97t-156 34q-205 0 -205 -227v-127h324v-231h-324q-4 -121 -48 -198t-99 -122h651v-262h-960z" />
<glyph unicode="&#xa4;" horiz-adv-x="1388" d="M131 279l174 178q-39 55 -59.5 123.5t-20.5 146.5t20.5 149.5t61.5 124.5l-172 177l113 112l174 -174q57 39 126.5 59.5t145.5 20.5t144.5 -20.5t124.5 -59.5l176 172l114 -114l-174 -175q43 -55 64.5 -124.5t21.5 -147.5q0 -82 -21.5 -150.5t-64.5 -121.5l178 -172 l-118 -115l-174 172q-57 -39 -126 -61.5t-145 -22.5t-145.5 22.5t-126.5 61.5l-176 -176zM473 725q0 -100 63.5 -165.5t157.5 -65.5q96 0 158.5 65.5t62.5 165.5q0 102 -62 169t-159 67q-94 0 -157.5 -67t-63.5 -169z" />
<glyph unicode="&#xa5;" horiz-adv-x="1286" d="M31 1417h323l295 -594l283 594h325l-399 -735h236v-156h-303v-125h303v-155h-303v-246h-297v246h-301v155h301v125h-301v156h233z" />
<glyph unicode="&#xa6;" horiz-adv-x="706" d="M219 -330v813h266v-813h-266zM219 809v811h266v-811h-266z" />
<glyph unicode="&#xa7;" horiz-adv-x="1134" d="M74 569q0 117 60.5 194t154.5 118q-100 84 -101 233q0 80 31 141.5t85 102.5t129 62.5t161 21.5q96 0 170 -21.5t141 -60.5v-252q-72 49 -145.5 74.5t-153.5 25.5q-76 0 -107.5 -25.5t-31.5 -66.5t41 -67.5t162 -65.5q94 -31 165.5 -65.5t123 -78.5t78 -103.5 t26.5 -141.5q0 -121 -62.5 -196.5t-154.5 -114.5q96 -90 96 -236q0 -80 -30.5 -141.5t-86 -103.5t-129 -61.5t-159.5 -19.5q-98 0 -172 20.5t-144 63.5v252q76 -49 149.5 -76.5t153.5 -27.5q74 0 107 25.5t33 66.5q0 39 -39 66.5t-158 68.5q-96 29 -168 64t-122 79 t-76.5 103t-26.5 143zM342 594q0 -33 11.5 -57.5t41 -47t77.5 -42t120 -44.5l33 -12q72 29 121 71t49 107q0 61 -54.5 102.5t-199.5 86.5l-29 10q-74 -27 -122 -69t-48 -105z" />
<glyph unicode="&#xa8;" horiz-adv-x="1191" d="M215 1384q0 70 48 116t116 46t116 -46t48 -116t-48 -118.5t-116 -48.5t-116 49t-48 118zM645 1384q0 70 48 116t116 46q70 0 118 -46t48 -116t-48 -118.5t-118 -48.5q-68 0 -116 49t-48 118z" />
<glyph unicode="&#xa9;" horiz-adv-x="1665" d="M106 709q0 154 55.5 287.5t153 233t229.5 156t290 56.5q156 0 289.5 -56.5t230 -156t151 -233.5t54.5 -287q0 -156 -54.5 -289t-151 -232.5t-230.5 -156t-289 -56.5q-158 0 -290 56.5t-229.5 156t-153 232.5t-55.5 289zM203 709q0 -139 47 -258t132 -205t199.5 -133 t252.5 -47q133 0 249.5 47t200.5 133t131 204.5t47 258.5q0 141 -47 258.5t-131 203.5t-200.5 133.5t-249.5 47.5q-137 0 -252 -47.5t-200 -133.5t-132 -203.5t-47 -258.5zM412 707q0 104 32.5 190t94 148.5t147.5 97.5t195 35q68 0 127 -16.5t114 -49.5v-254 q-45 45 -103 70.5t-126 25.5q-109 0 -172.5 -69.5t-63.5 -177.5q0 -111 63.5 -178.5t172.5 -67.5q68 0 128 25.5t103 68.5v-254q-55 -31 -115.5 -46t-127.5 -15q-109 0 -195 33.5t-147.5 96t-94 148.5t-32.5 189z" />
<glyph unicode="&#xaa;" horiz-adv-x="829" d="M55 840q0 127 98.5 188.5t270.5 61.5h90v34q0 59 -43 85t-104 26q-70 0 -127.5 -17.5t-108.5 -46.5v203q115 68 275 68q72 0 133 -16.5t108 -50.5t72.5 -90t25.5 -140v-527q-59 -12 -151 -23t-170 -11t-144.5 13t-116.5 43t-79 79t-29 121zM299 850q0 -49 36 -69.5 t93 -20.5q45 0 86 8v174h-68q-70 0 -108.5 -22.5t-38.5 -69.5z" />
<glyph unicode="&#xab;" horiz-adv-x="1173" d="M90 514l293 377h279l-293 -377l293 -377h-279zM514 514l291 377h276l-288 -377l288 -377h-276z" />
<glyph unicode="&#xad;" horiz-adv-x="847" d="M102 494v254h641v-254h-641z" />
<glyph unicode="&#xae;" horiz-adv-x="1085" d="M94 987q0 94 34 178t94.5 145.5t142 96.5t176.5 35q98 0 180 -35t141.5 -96.5t93 -145.5t33.5 -178t-33.5 -177t-93 -143.5t-141.5 -95t-180 -34.5q-94 0 -176 34.5t-142.5 95t-94.5 143.5t-34 177zM188 987q0 -78 27 -143.5t73 -115.5t110.5 -78.5t142.5 -28.5 q80 0 145.5 28.5t112.5 78.5t72.5 115.5t25.5 143.5q0 80 -25.5 146.5t-72.5 115.5t-112.5 78t-145.5 29q-78 0 -142.5 -29t-110.5 -78t-73 -115.5t-27 -146.5zM369 770v438q29 8 72.5 13.5t88.5 5.5q90 0 148.5 -40t58.5 -122q0 -53 -25.5 -88t-66.5 -49l123 -158h-147 l-93 133h-32v-133h-127zM496 1001h30q74 0 74 56q0 25 -18.5 40t-46.5 15q-18 0 -39 -4v-107z" />
<glyph unicode="&#xaf;" horiz-adv-x="1191" d="M317 1241v213h555v-213h-555z" />
<glyph unicode="&#xb0;" horiz-adv-x="718" d="M59 1145q0 61 22.5 115.5t63.5 93.5t96.5 61.5t114.5 22.5q66 0 120 -22.5t95 -61.5t63.5 -93.5t22.5 -115.5q0 -63 -22.5 -116.5t-63.5 -92.5t-95 -62.5t-120 -23.5q-59 0 -114.5 23.5t-96.5 62.5t-63.5 92.5t-22.5 116.5zM219 1145q0 -59 38 -101.5t99 -42.5 q68 0 105 42t37 102q0 61 -37 102t-105 41q-61 0 -99 -41t-38 -102z" />
<glyph unicode="&#xb1;" horiz-adv-x="1093" d="M113 197v215h870v-215h-870zM113 756v217h325v248h217v-248h328v-217h-328v-248h-217v248h-325z" />
<glyph unicode="&#xb2;" horiz-adv-x="657" d="M27 571v166q66 53 127 104.5t107 99.5t73.5 94t27.5 89q0 100 -106 101q-59 0 -117.5 -30t-101.5 -65v211q55 45 125.5 68t150.5 23q131 0 209 -68t78 -190q0 -119 -77 -216.5t-206 -191.5h306v-195h-596z" />
<glyph unicode="&#xb3;" horiz-adv-x="630" d="M33 618v220q39 -35 95 -64t124 -29q47 0 75.5 19.5t28.5 58.5q0 51 -42 66.5t-128 17.5v162q156 0 156 90q0 70 -88 70q-51 0 -105.5 -24.5t-95.5 -65.5v215q111 78 252 78q121 0 195.5 -57.5t74.5 -172.5q0 -78 -47 -133t-114 -72q78 -20 126 -71.5t48 -130.5 q0 -63 -29 -110.5t-72 -76t-99 -41t-112 -12.5q-84 0 -140 18.5t-103 44.5z" />
<glyph unicode="&#xb4;" horiz-adv-x="1191" d="M362 1225l203 360h262l-202 -360h-263z" />
<glyph unicode="&#xb5;" horiz-adv-x="1226" d="M131 -428v1493h289v-653q0 -104 48 -151.5t163 -47.5q31 0 70.5 3t80.5 11v838h287v-1034q-45 -10 -99.5 -21.5t-110.5 -18.5t-109.5 -11.5t-94.5 -4.5q-80 0 -136 11.5t-99 38.5v-453h-289z" />
<glyph unicode="&#xb6;" horiz-adv-x="1224" d="M55 989q0 111 40 191t105.5 132t152.5 78.5t184 26.5h221v-1669h-221v815q-96 0 -183.5 26.5t-153 79t-105.5 132.5t-40 188zM862 -252v1669h225v-1669h-225z" />
<glyph unicode="&#xb7;" horiz-adv-x="643" d="M131 621q0 78 56.5 135t134.5 57q80 0 136 -57.5t56 -134.5q0 -80 -56.5 -134.5t-135.5 -54.5q-78 0 -134.5 54.5t-56.5 134.5z" />
<glyph unicode="&#xb8;" horiz-adv-x="1191" d="M371 -348q90 82 139 181t49 204h234q0 -57 -13.5 -114.5t-36 -110t-54.5 -93.5t-66 -67h-252z" />
<glyph unicode="&#xb9;" horiz-adv-x="497" d="M27 1165v203l383 64v-861h-230v611z" />
<glyph unicode="&#xba;" horiz-adv-x="962" d="M53 1014q0 96 32 174t89 134t136 88t171 32q94 0 173 -32t136.5 -88t88 -134t30.5 -174t-30.5 -175t-88 -136.5t-136.5 -88t-173 -30.5q-92 0 -171 30.5t-136 88t-89 136.5t-32 175zM297 1014q0 -100 52 -157.5t132 -57.5q82 0 133.5 57.5t51.5 157.5t-51.5 156.5 t-133.5 56.5q-80 0 -132 -56.5t-52 -156.5z" />
<glyph unicode="&#xbb;" horiz-adv-x="1173" d="M90 137l291 377l-291 377h277l295 -377l-295 -377h-277zM514 137l289 377l-289 377h277l290 -377l-290 -377h-277z" />
<glyph unicode="&#xbc;" horiz-adv-x="1720" d="M94 1165v203l379 64v-861h-227v611zM264 0l840 1417h203l-840 -1417h-203zM866 180v168l391 500h220v-500h127v-168h-127v-180h-217v180h-394zM1053 348h207v262z" />
<glyph unicode="&#xbd;" horiz-adv-x="1746" d="M94 1165v203l379 64v-861h-227v611zM264 0l840 1417h203l-840 -1417h-203zM1032 0v170q68 51 128.5 102.5t107.5 100.5t73.5 95t26.5 85q0 100 -104 100q-59 0 -119 -28.5t-101 -63.5v209q55 45 125 67.5t152 22.5q129 0 208 -64.5t79 -191.5q0 -121 -77 -217t-208 -192 h305v-195h-596z" />
<glyph unicode="&#xbe;" horiz-adv-x="1814" d="M119 618v220q39 -35 95 -64t126 -29q43 0 73.5 19.5t30.5 58.5q0 51 -44 66.5t-128 17.5v162q154 0 154 90q0 70 -84 70q-53 0 -106.5 -24.5t-98.5 -65.5v215q113 78 254 78q123 0 197 -57.5t74 -172.5q0 -78 -46.5 -133t-113.5 -72q74 -20 124 -71.5t50 -130.5 q0 -63 -29 -110.5t-74 -76t-101 -41t-110 -12.5q-86 0 -142 18.5t-101 44.5zM371 0l841 1417h201l-838 -1417h-204zM961 180v168l391 500h219v-500h127v-168h-127v-180h-217v180h-393zM1147 348h207v262z" />
<glyph unicode="&#xbf;" horiz-adv-x="907" d="M47 45q0 104 39 179t96.5 124t122 78t117.5 41v145h266v-282q-88 -25 -153.5 -49.5t-110.5 -53t-67.5 -65.5t-22.5 -94q0 -84 55 -125t135 -41q104 0 187.5 44t169.5 113v-276q-57 -57 -158.5 -99t-237.5 -42q-94 0 -174 23.5t-138 72.5t-92 126t-34 181zM358 913 q0 76 57.5 131.5t143.5 55.5q74 0 128 -55.5t54 -131.5q0 -80 -54 -137t-128 -57q-86 0 -143.5 57.5t-57.5 136.5z" />
<glyph unicode="&#xc0;" horiz-adv-x="1480" d="M8 0l547 1417h365l555 -1417h-330l-111 301h-600l-110 -301h-316zM406 1880h264l192 -346h-264zM524 547h424l-211 577z" />
<glyph unicode="&#xc1;" horiz-adv-x="1480" d="M8 0l547 1417h365l555 -1417h-330l-111 301h-600l-110 -301h-316zM524 547h424l-211 577zM612 1534l193 346h264l-190 -346h-267z" />
<glyph unicode="&#xc2;" horiz-adv-x="1480" d="M8 0l547 1417h365l555 -1417h-330l-111 301h-600l-110 -301h-316zM362 1526l277 354h190l279 -354h-238l-135 178l-137 -178h-236zM524 547h424l-211 577z" />
<glyph unicode="&#xc3;" horiz-adv-x="1480" d="M8 0l547 1417h365l555 -1417h-330l-111 301h-600l-110 -301h-316zM389 1528q0 145 53.5 227t153.5 82q45 0 79 -16.5t62.5 -37t53 -37.5t51.5 -17q33 0 48 23.5t15 78.5h185q0 -145 -53.5 -227t-153.5 -82q-45 0 -79 17t-62.5 36.5t-53 36t-51.5 16.5q-33 0 -49.5 -22.5 t-16.5 -77.5h-182zM524 547h424l-211 577z" />
<glyph unicode="&#xc4;" horiz-adv-x="1480" d="M8 0l547 1417h365l555 -1417h-330l-111 301h-600l-110 -301h-316zM356 1671q0 68 50.5 117t115.5 49q70 0 118 -49t48 -117t-48 -116t-118 -48q-66 0 -116 48.5t-50 115.5zM524 547h424l-211 577zM791 1671q0 68 47 117t114 49q68 0 119 -49t51 -117t-51 -116t-119 -48 t-114.5 48.5t-46.5 115.5z" />
<glyph unicode="&#xc5;" horiz-adv-x="1480" d="M8 0l547 1417h365l555 -1417h-330l-111 301h-600l-110 -301h-316zM506 1718q0 94 62.5 161t170.5 67q111 0 173.5 -67t62.5 -161q0 -98 -62.5 -162.5t-173.5 -64.5q-109 0 -171 64.5t-62 162.5zM524 547h424l-211 577zM643 1718q0 -43 25.5 -71.5t70.5 -28.5 q49 0 74 28.5t25 71.5q0 39 -25 68t-74 29q-45 0 -70.5 -29t-25.5 -68z" />
<glyph unicode="&#xc6;" horiz-adv-x="2041" d="M8 0l815 1417h1094v-266h-606v-309h557v-260h-557v-318h620v-264h-917v301h-516l-172 -301h-318zM641 547h373v647z" />
<glyph unicode="&#xc7;" horiz-adv-x="1318" d="M82 709q0 162 55.5 296t150.5 231t230 151.5t297 54.5q106 0 203.5 -22.5t183.5 -76.5v-323q-70 70 -167 109.5t-220 39.5q-94 0 -172 -33.5t-133 -95t-86 -145.5t-31 -186q0 -104 33 -189.5t90 -147t137 -93t174 -31.5q123 0 215.5 35.5t184.5 109.5v-311 q-84 -51 -169 -74.5t-175 -30.5q-12 -100 -57.5 -189t-110.5 -136h-248q74 72 122 160t60 178q-131 27 -235.5 88t-178 154.5t-113.5 215t-40 261.5z" />
<glyph unicode="&#xc8;" horiz-adv-x="1187" d="M160 0v1417h905v-266h-606v-309h555v-260h-555v-318h618v-264h-917zM301 1870h268l191 -346h-264z" />
<glyph unicode="&#xc9;" horiz-adv-x="1187" d="M160 0v1417h905v-266h-606v-309h555v-260h-555v-318h618v-264h-917zM467 1534l190 346h265l-191 -346h-264z" />
<glyph unicode="&#xca;" horiz-adv-x="1187" d="M160 0v1417h905v-266h-606v-309h555v-260h-555v-318h618v-264h-917zM254 1526l276 354h193l276 -354h-235l-135 178l-137 -178h-238z" />
<glyph unicode="&#xcb;" horiz-adv-x="1187" d="M160 0v1417h905v-266h-606v-309h555v-260h-555v-318h618v-264h-917zM246 1671q0 68 49 117t117 49t115.5 -49t47.5 -117t-47.5 -116t-115.5 -48t-117 48.5t-49 115.5zM678 1671q0 68 47 117t115 49t119 -49t51 -117t-51 -116t-119 -48t-115 48.5t-47 115.5z" />
<glyph unicode="&#xcc;" horiz-adv-x="622" d="M-10 1880h264l195 -346h-265zM160 0v1417h303v-1417h-303z" />
<glyph unicode="&#xcd;" horiz-adv-x="622" d="M160 0v1417h303v-1417h-303zM162 1534l194 346h265l-195 -346h-264z" />
<glyph unicode="&#xce;" horiz-adv-x="622" d="M-61 1526l276 354h191l276 -354h-236l-137 178l-135 -178h-235zM160 0v1417h303v-1417h-303z" />
<glyph unicode="&#xcf;" horiz-adv-x="622" d="M-72 1671q0 68 49.5 117t114.5 49q70 0 119 -49t49 -117t-49 -116t-119 -48q-66 0 -115 48.5t-49 115.5zM160 0v1417h303v-1417h-303zM358 1671q0 68 49.5 117t114.5 49q70 0 119 -49t49 -117t-49 -116t-119 -48q-66 0 -115 48.5t-49 115.5z" />
<glyph unicode="&#xd0;" horiz-adv-x="1511" d="M59 588v248h127v573q78 12 195 22.5t231 10.5q393 0 603 -188.5t210 -526.5q0 -180 -55 -321.5t-160.5 -234.5t-257 -143.5t-342.5 -50.5q-117 0 -230.5 7.5t-193.5 25.5v578h-127zM489 250q33 -4 75 -5t79 -1q104 0 191.5 28.5t150 88t97 151.5t34.5 215 q0 217 -130 327.5t-355 110.5q-33 0 -71 -2t-71 -6v-321h275v-248h-275v-338z" />
<glyph unicode="&#xd1;" horiz-adv-x="1558" d="M160 0v1417h307l637 -954v954h293v-1417h-287l-659 942v-942h-291zM434 1528q0 145 53.5 227t153.5 82q45 0 79 -16.5t62.5 -37t53 -37.5t51.5 -17q33 0 49 23.5t16 78.5h183q0 -145 -53.5 -227t-153.5 -82q-45 0 -79 17t-62.5 36.5t-53 36t-51.5 16.5q-33 0 -49.5 -22.5 t-16.5 -77.5h-182z" />
<glyph unicode="&#xd2;" horiz-adv-x="1640" d="M82 709q0 162 57.5 296t158.5 231t235.5 151.5t287.5 54.5q154 0 287 -54.5t234.5 -151.5t159 -231.5t57.5 -295.5q0 -162 -57.5 -297.5t-159 -232.5t-234.5 -150.5t-287 -53.5t-288 53.5t-235 150.5t-158.5 232.5t-57.5 297.5zM393 709q0 -104 33 -189.5t90 -147 t136 -93t169 -31.5q88 0 168 31.5t136.5 93t89 147t32.5 189.5t-32.5 189t-89 145.5t-136.5 93t-168 32.5q-90 0 -169 -32.5t-136 -93t-90 -145.5t-33 -189zM502 1880h264l195 -346h-267z" />
<glyph unicode="&#xd3;" horiz-adv-x="1640" d="M82 709q0 162 57.5 296t158.5 231t235.5 151.5t287.5 54.5q154 0 287 -54.5t234.5 -151.5t159 -231.5t57.5 -295.5q0 -162 -57.5 -297.5t-159 -232.5t-234.5 -150.5t-287 -53.5t-288 53.5t-235 150.5t-158.5 232.5t-57.5 297.5zM393 709q0 -104 33 -189.5t90 -147 t136 -93t169 -31.5q88 0 168 31.5t136.5 93t89 147t32.5 189.5t-32.5 189t-89 145.5t-136.5 93t-168 32.5q-90 0 -169 -32.5t-136 -93t-90 -145.5t-33 -189zM670 1534l192 346h264l-190 -346h-266z" />
<glyph unicode="&#xd4;" horiz-adv-x="1640" d="M82 709q0 162 57.5 296t158.5 231t235.5 151.5t287.5 54.5q154 0 287 -54.5t234.5 -151.5t159 -231.5t57.5 -295.5q0 -162 -57.5 -297.5t-159 -232.5t-234.5 -150.5t-287 -53.5t-288 53.5t-235 150.5t-158.5 232.5t-57.5 297.5zM393 709q0 -104 33 -189.5t90 -147 t136 -93t169 -31.5q88 0 168 31.5t136.5 93t89 147t32.5 189.5t-32.5 189t-89 145.5t-136.5 93t-168 32.5q-90 0 -169 -32.5t-136 -93t-90 -145.5t-33 -189zM449 1526l276 354h190l277 -354h-236l-135 178l-135 -178h-237z" />
<glyph unicode="&#xd5;" horiz-adv-x="1640" d="M82 709q0 162 57.5 296t158.5 231t235.5 151.5t287.5 54.5q154 0 287 -54.5t234.5 -151.5t159 -231.5t57.5 -295.5q0 -162 -57.5 -297.5t-159 -232.5t-234.5 -150.5t-287 -53.5t-288 53.5t-235 150.5t-158.5 232.5t-57.5 297.5zM393 709q0 -104 33 -189.5t90 -147 t136 -93t169 -31.5q88 0 168 31.5t136.5 93t89 147t32.5 189.5t-32.5 189t-89 145.5t-136.5 93t-168 32.5q-90 0 -169 -32.5t-136 -93t-90 -145.5t-33 -189zM469 1528q0 145 53 227t156 82q45 0 79 -16.5t62.5 -37t53 -37.5t49.5 -17q35 0 50 23.5t15 78.5h184 q0 -145 -53 -227t-155 -82q-45 0 -79 17t-61.5 36.5t-53.5 36t-50 16.5q-33 0 -50.5 -22.5t-17.5 -77.5h-182z" />
<glyph unicode="&#xd6;" horiz-adv-x="1640" d="M82 709q0 162 57.5 296t158.5 231t235.5 151.5t287.5 54.5q154 0 287 -54.5t234.5 -151.5t159 -231.5t57.5 -295.5q0 -162 -57.5 -297.5t-159 -232.5t-234.5 -150.5t-287 -53.5t-288 53.5t-235 150.5t-158.5 232.5t-57.5 297.5zM393 709q0 -104 33 -189.5t90 -147 t136 -93t169 -31.5q88 0 168 31.5t136.5 93t89 147t32.5 189.5t-32.5 189t-89 145.5t-136.5 93t-168 32.5q-90 0 -169 -32.5t-136 -93t-90 -145.5t-33 -189zM434 1671q0 68 48 117t116 49q70 0 119 -49t49 -117t-49 -116t-119 -48q-68 0 -116 48.5t-48 115.5zM866 1671 q0 68 47.5 117t114.5 49q70 0 119 -49t49 -117t-49 -116t-119 -48q-68 0 -115 48.5t-47 115.5z" />
<glyph unicode="&#xd7;" horiz-adv-x="948" d="M80 446l246 248l-246 248l145 148l246 -248l250 248l147 -148l-247 -248l247 -248l-147 -145l-250 246l-246 -246z" />
<glyph unicode="&#xd8;" horiz-adv-x="1662" d="M88 0l188 213q-84 94 -133 220t-49 276q0 162 57.5 296t159 231t234.5 151.5t284 54.5q121 0 226.5 -33t193.5 -92l92 100h232l-187 -215q84 -94 133.5 -219t49.5 -274q0 -162 -57.5 -297.5t-158 -232.5t-234.5 -150.5t-290 -53.5q-119 0 -223 33t-194 90l-90 -98h-234z M399 709q0 -78 18.5 -147.5t51.5 -125.5l600 672q-104 70 -240 70q-90 0 -168.5 -34t-136 -96.5t-91.5 -148.5t-34 -190zM592 307q104 -66 237 -65q90 0 170 32.5t138.5 95t92.5 148.5t34 191q0 80 -18.5 148.5t-53.5 121.5z" />
<glyph unicode="&#xd9;" horiz-adv-x="1454" d="M137 496v921h303v-858q0 -96 21.5 -159.5t61.5 -101.5t95.5 -53.5t122.5 -15.5q80 0 138.5 6.5t113.5 14.5v1167h301v-1372q-47 -14 -114.5 -27.5t-143 -21.5t-151.5 -14.5t-144 -6.5q-121 0 -229.5 26t-191 86t-133 159.5t-50.5 249.5zM401 1880h265l192 -346h-264z" />
<glyph unicode="&#xda;" horiz-adv-x="1454" d="M137 496v921h303v-858q0 -96 21.5 -159.5t61.5 -101.5t95.5 -53.5t122.5 -15.5q80 0 138.5 6.5t113.5 14.5v1167h301v-1372q-47 -14 -114.5 -27.5t-143 -21.5t-151.5 -14.5t-144 -6.5q-121 0 -229.5 26t-191 86t-133 159.5t-50.5 249.5zM569 1534l191 346h264l-190 -346 h-265z" />
<glyph unicode="&#xdb;" horiz-adv-x="1454" d="M137 496v921h303v-858q0 -96 21.5 -159.5t61.5 -101.5t95.5 -53.5t122.5 -15.5q80 0 138.5 6.5t113.5 14.5v1167h301v-1372q-47 -14 -114.5 -27.5t-143 -21.5t-151.5 -14.5t-144 -6.5q-121 0 -229.5 26t-191 86t-133 159.5t-50.5 249.5zM344 1526l277 354h190l276 -354 h-237l-135 178l-135 -178h-236z" />
<glyph unicode="&#xdc;" horiz-adv-x="1454" d="M137 496v921h303v-858q0 -96 21.5 -159.5t61.5 -101.5t95.5 -53.5t122.5 -15.5q80 0 138.5 6.5t113.5 14.5v1167h301v-1372q-47 -14 -114.5 -27.5t-143 -21.5t-151.5 -14.5t-144 -6.5q-121 0 -229.5 26t-191 86t-133 159.5t-50.5 249.5zM332 1671q0 68 48 117t116 49 q70 0 119 -49t49 -117t-49 -116t-119 -48q-68 0 -116 48.5t-48 115.5zM764 1671q0 68 47 117t115 49q70 0 119 -49t49 -117t-49 -116t-119 -48q-68 0 -115 48.5t-47 115.5z" />
<glyph unicode="&#xdd;" horiz-adv-x="1333" d="M8 1417h332l330 -604l325 604h334l-514 -891v-526h-299v526zM518 1534l193 346h264l-193 -346h-264z" />
<glyph unicode="&#xde;" horiz-adv-x="1206" d="M160 0v1417h303v-215q27 2 52.5 2h53.5q268 0 428 -125t160 -379q0 -129 -46 -224t-126 -154.5t-184.5 -88t-220.5 -28.5q-29 0 -63 1t-54 3v-209h-303zM463 467q14 -4 43 -4h55q137 0 214 56t77 181q0 123 -78 180.5t-205 57.5q-27 0 -56.5 -1t-49.5 -7v-463z" />
<glyph unicode="&#xdf;" horiz-adv-x="1349" d="M156 0v1126q0 242 127 381.5t358 139.5q111 0 196 -31t145 -80t93 -117.5t33 -144.5q0 -86 -33 -145.5t-71.5 -105.5t-69.5 -80t-31 -69q0 -39 59.5 -76.5t132 -91t133 -134t60.5 -210.5q0 -86 -30.5 -156.5t-86 -121.5t-133 -80t-178.5 -29q-72 0 -143.5 17.5 t-118.5 52.5v256q70 -49 126 -70.5t124 -21.5q72 0 118 39t46 110q0 51 -29 87t-72 69t-93 63.5t-93 69.5t-71.5 87t-28.5 116q0 63 30.5 113.5t69.5 95.5t69.5 90t30.5 100q0 70 -49 111t-131 41q-106 0 -155.5 -72t-49.5 -186v-1143h-284z" />
<glyph unicode="&#xe0;" horiz-adv-x="1097" d="M84 305q0 166 128 246t351 80h117v65q0 76 -55.5 111t-135.5 35q-96 0 -170.5 -24.5t-136.5 -63.5v247q70 41 162 63.5t195 22.5q92 0 168.5 -18t134 -63t89.5 -118t32 -179v-686q-76 -20 -186.5 -33t-213.5 -13q-100 0 -187 17.5t-151.5 55.5t-102.5 100.5t-38 154.5z M233 1585h263l202 -360h-262zM371 319q0 -70 51 -100.5t139 -30.5q23 0 56.5 2.5t62.5 8.5v250h-96q-100 0 -156.5 -30t-56.5 -100z" />
<glyph unicode="&#xe1;" horiz-adv-x="1097" d="M84 305q0 166 128 246t351 80h117v65q0 76 -55.5 111t-135.5 35q-96 0 -170.5 -24.5t-136.5 -63.5v247q70 41 162 63.5t195 22.5q92 0 168.5 -18t134 -63t89.5 -118t32 -179v-686q-76 -20 -186.5 -33t-213.5 -13q-100 0 -187 17.5t-151.5 55.5t-102.5 100.5t-38 154.5z M371 319q0 -70 51 -100.5t139 -30.5q23 0 56.5 2.5t62.5 8.5v250h-96q-100 0 -156.5 -30t-56.5 -100zM397 1225l201 360h262l-203 -360h-260z" />
<glyph unicode="&#xe2;" horiz-adv-x="1097" d="M84 305q0 166 128 246t351 80h117v65q0 76 -55.5 111t-135.5 35q-96 0 -170.5 -24.5t-136.5 -63.5v247q70 41 162 63.5t195 22.5q92 0 168.5 -18t134 -63t89.5 -118t32 -179v-686q-76 -20 -186.5 -33t-213.5 -13q-100 0 -187 17.5t-151.5 55.5t-102.5 100.5t-38 154.5z M180 1214l277 365h188l277 -365h-236l-135 175l-137 -175h-234zM371 319q0 -70 51 -100.5t139 -30.5q23 0 56.5 2.5t62.5 8.5v250h-96q-100 0 -156.5 -30t-56.5 -100z" />
<glyph unicode="&#xe3;" horiz-adv-x="1097" d="M84 305q0 166 128 246t351 80h117v65q0 76 -55.5 111t-135.5 35q-96 0 -170.5 -24.5t-136.5 -63.5v247q70 41 162 63.5t195 22.5q92 0 168.5 -18t134 -63t89.5 -118t32 -179v-686q-76 -20 -186.5 -33t-213.5 -13q-100 0 -187 17.5t-151.5 55.5t-102.5 100.5t-38 154.5z M193 1214q0 139 53 223.5t153 84.5q45 0 79 -16.5t62.5 -38t53 -39t49.5 -17.5q66 0 66 102h184q0 -141 -54.5 -225t-152.5 -84q-47 0 -80 16.5t-61.5 39t-53 39t-53.5 16.5q-68 0 -67 -101h-178zM371 319q0 -70 51 -100.5t139 -30.5q23 0 56.5 2.5t62.5 8.5v250h-96 q-100 0 -156.5 -30t-56.5 -100z" />
<glyph unicode="&#xe4;" horiz-adv-x="1097" d="M84 305q0 166 128 246t351 80h117v65q0 76 -55.5 111t-135.5 35q-96 0 -170.5 -24.5t-136.5 -63.5v247q70 41 162 63.5t195 22.5q92 0 168.5 -18t134 -63t89.5 -118t32 -179v-686q-76 -20 -186.5 -33t-213.5 -13q-100 0 -187 17.5t-151.5 55.5t-102.5 100.5t-38 154.5z M164 1384q0 70 49 116t117 46t116 -46t48 -116t-48 -118.5t-116 -48.5t-117 49t-49 118zM371 319q0 -70 51 -100.5t139 -30.5q23 0 56.5 2.5t62.5 8.5v250h-96q-100 0 -156.5 -30t-56.5 -100zM596 1384q0 70 47 116t115 46q70 0 119 -46t49 -116t-49 -118.5t-119 -48.5 q-68 0 -115 49t-47 118z" />
<glyph unicode="&#xe5;" horiz-adv-x="1097" d="M84 305q0 166 128 246t351 80h117v65q0 76 -55.5 111t-135.5 35q-96 0 -170.5 -24.5t-136.5 -63.5v247q70 41 162 63.5t195 22.5q92 0 168.5 -18t134 -63t89.5 -118t32 -179v-686q-76 -20 -186.5 -33t-213.5 -13q-100 0 -187 17.5t-151.5 55.5t-102.5 100.5t-38 154.5z M309 1399q0 96 63.5 161.5t170.5 65.5q111 0 174 -65.5t63 -161.5t-63.5 -160.5t-173.5 -64.5q-106 0 -170 64.5t-64 160.5zM371 319q0 -70 51 -100.5t139 -30.5q23 0 56.5 2.5t62.5 8.5v250h-96q-100 0 -156.5 -30t-56.5 -100zM449 1399q0 -39 24.5 -67.5t69.5 -28.5 q49 0 73.5 28.5t24.5 67.5q0 43 -24.5 69.5t-73.5 26.5q-45 0 -69.5 -26.5t-24.5 -69.5z" />
<glyph unicode="&#xe6;" horiz-adv-x="1761" d="M84 301q0 166 129 241.5t350 75.5h144q4 18 5 34t7 34q-10 86 -67.5 124t-145.5 38q-106 0 -184 -27.5t-140 -66.5v247q70 41 161 63.5t187 22.5q109 0 194 -31.5t136 -103.5q137 135 352 135q127 0 213 -38.5t140.5 -108.5t81 -162t26.5 -203v-131h-706 q12 -66 44.5 -107.5t75.5 -67t94.5 -37t102.5 -11.5q106 0 191.5 24.5t162.5 71.5v-243q-76 -51 -176 -75t-209 -24q-121 0 -218 35t-169 96q-72 -53 -164 -92t-206 -39q-80 0 -153 19.5t-130 58.5t-93 101.5t-36 146.5zM371 309q0 -61 45 -92t106 -31q70 0 125 22.5 t101 61.5q-35 86 -41 174h-132q-92 0 -148 -31.5t-56 -103.5zM967 618h438q-4 100 -49 166t-152 66q-84 0 -149.5 -56.5t-87.5 -175.5z" />
<glyph unicode="&#xe7;" horiz-adv-x="1034" d="M78 528q0 127 41 229.5t115.5 177.5t178 113.5t224.5 38.5q90 0 161.5 -18t141.5 -59v-273q-68 55 -133.5 77t-138.5 22q-133 0 -218 -79t-85 -222q0 -135 85 -220.5t230 -85.5t270 95v-269q-104 -63 -231 -75q-12 -102 -57.5 -191.5t-110.5 -136.5h-250q78 72 124 160 t58 180q-188 43 -296.5 184t-108.5 352z" />
<glyph unicode="&#xe8;" horiz-adv-x="1144" d="M78 520q0 131 39 235.5t108.5 179.5t163.5 113.5t207 38.5q125 0 212 -37.5t143.5 -106.5t81 -161t24.5 -196v-131h-701v-6q6 -57 36 -99.5t73 -71t97 -43t106 -14.5q109 0 192.5 24.5t161.5 71.5v-243q-72 -51 -174.5 -75t-208.5 -24q-127 0 -232.5 39t-178 110 t-111.5 172t-39 224zM291 1585h262l203 -360h-262zM356 625h435q-2 100 -51.5 162.5t-151.5 62.5q-92 0 -151.5 -59.5t-80.5 -165.5z" />
<glyph unicode="&#xe9;" horiz-adv-x="1144" d="M78 520q0 131 39 235.5t108.5 179.5t163.5 113.5t207 38.5q125 0 212 -37.5t143.5 -106.5t81 -161t24.5 -196v-131h-701v-6q6 -57 36 -99.5t73 -71t97 -43t106 -14.5q109 0 192.5 24.5t161.5 71.5v-243q-72 -51 -174.5 -75t-208.5 -24q-127 0 -232.5 39t-178 110 t-111.5 172t-39 224zM356 625h435q-2 100 -51.5 162.5t-151.5 62.5q-92 0 -151.5 -59.5t-80.5 -165.5zM479 1225l203 360h262l-203 -360h-262z" />
<glyph unicode="&#xea;" horiz-adv-x="1144" d="M78 520q0 131 39 235.5t108.5 179.5t163.5 113.5t207 38.5q125 0 212 -37.5t143.5 -106.5t81 -161t24.5 -196v-131h-701v-6q6 -57 36 -99.5t73 -71t97 -43t106 -14.5q109 0 192.5 24.5t161.5 71.5v-243q-72 -51 -174.5 -75t-208.5 -24q-127 0 -232.5 39t-178 110 t-111.5 172t-39 224zM217 1214l277 365h192l275 -365h-236l-137 175l-133 -175h-238zM356 625h435q-2 100 -51.5 162.5t-151.5 62.5q-92 0 -151.5 -59.5t-80.5 -165.5z" />
<glyph unicode="&#xeb;" horiz-adv-x="1144" d="M78 520q0 131 39 235.5t108.5 179.5t163.5 113.5t207 38.5q125 0 212 -37.5t143.5 -106.5t81 -161t24.5 -196v-131h-701v-6q6 -57 36 -99.5t73 -71t97 -43t106 -14.5q109 0 192.5 24.5t161.5 71.5v-243q-72 -51 -174.5 -75t-208.5 -24q-127 0 -232.5 39t-178 110 t-111.5 172t-39 224zM219 1384q0 70 49 116t115 46q68 0 117 -46t49 -116t-49 -118.5t-117 -48.5q-66 0 -115 49t-49 118zM356 625h435q-2 100 -51.5 162.5t-151.5 62.5q-92 0 -151.5 -59.5t-80.5 -165.5zM651 1384q0 70 47 116t115 46q70 0 118 -46t48 -116t-48 -118.5 t-118 -48.5q-68 0 -115 49t-47 118z" />
<glyph unicode="&#xec;" d="M-35 1585h262l201 -360h-260zM156 0v1065h284v-1065h-284z" />
<glyph unicode="&#xed;" d="M156 0v1065h284v-1065h-284zM172 1225l203 360h262l-203 -360h-262z" />
<glyph unicode="&#xee;" d="M-74 1214l277 365h190l277 -365h-236l-135 175l-137 -175h-236zM156 0v1065h284v-1065h-284z" />
<glyph unicode="&#xef;" d="M-82 1384q0 70 48 116t116 46q66 0 115 -46t49 -116t-49 -118.5t-115 -48.5q-68 0 -116 49t-48 118zM156 0v1065h284v-1065h-284zM348 1384q0 70 48 116t116 46t117 -46t49 -116t-49 -118.5t-117 -48.5t-116 49t-48 118z" />
<glyph unicode="&#xf0;" horiz-adv-x="1263" d="M78 524q0 121 40 222.5t111.5 172t170 109.5t212.5 39q51 0 104.5 -16.5t88.5 -51.5q-23 47 -65 104.5t-97 123.5l-401 -123v184l270 80q-66 68 -138.5 131.5t-146.5 120.5h357q102 -80 188 -172l283 86v-184l-156 -47q131 -166 210 -350.5t79 -387.5q0 -139 -42 -247.5 t-117 -184.5t-176 -117t-222 -41q-117 0 -219.5 40t-177 112t-115.5 174t-41 223zM365 528q0 -141 75.5 -222t190.5 -81q117 0 192.5 81t75.5 222q0 145 -75.5 226.5t-192.5 81.5q-115 0 -190.5 -81t-75.5 -227z" />
<glyph unicode="&#xf1;" horiz-adv-x="1257" d="M156 0v995q115 41 250 66.5t258 25.5q104 0 188 -21.5t143.5 -69.5t92 -128t32.5 -200v-668h-291v649q0 180 -188 180q-53 0 -104.5 -8t-96.5 -22v-799h-284zM283 1214q0 139 53 223.5t153 84.5q45 0 78 -16.5t61.5 -38t54.5 -39t52 -17.5q63 0 64 102h184 q0 -141 -54.5 -225t-152.5 -84q-45 0 -78.5 16.5t-62.5 39t-54.5 39t-52.5 16.5q-66 0 -65 -101h-180z" />
<glyph unicode="&#xf2;" horiz-adv-x="1263" d="M78 530q0 125 41 227.5t115.5 176.5t177 113.5t219.5 39.5q121 0 222 -39.5t176 -113.5t118 -176.5t43 -227.5q0 -121 -43 -224t-118 -176t-176 -114t-222 -41q-117 0 -219.5 41t-177 114t-115.5 176t-41 224zM309 1585h264l203 -360h-262zM365 530q0 -141 75.5 -223 t190.5 -82q117 0 192.5 82t75.5 223q0 145 -75.5 227.5t-192.5 82.5q-115 0 -190.5 -82t-75.5 -228z" />
<glyph unicode="&#xf3;" horiz-adv-x="1263" d="M78 530q0 125 41 227.5t115.5 176.5t177 113.5t219.5 39.5q121 0 222 -39.5t176 -113.5t118 -176.5t43 -227.5q0 -121 -43 -224t-118 -176t-176 -114t-222 -41q-117 0 -219.5 41t-177 114t-115.5 176t-41 224zM365 530q0 -141 75.5 -223t190.5 -82q117 0 192.5 82 t75.5 223q0 145 -75.5 227.5t-192.5 82.5q-115 0 -190.5 -82t-75.5 -228zM494 1225l202 360h265l-205 -360h-262z" />
<glyph unicode="&#xf4;" horiz-adv-x="1263" d="M78 530q0 125 41 227.5t115.5 176.5t177 113.5t219.5 39.5q121 0 222 -39.5t176 -113.5t118 -176.5t43 -227.5q0 -121 -43 -224t-118 -176t-176 -114t-222 -41q-117 0 -219.5 41t-177 114t-115.5 176t-41 224zM260 1214l277 365h190l279 -365h-238l-137 175l-135 -175 h-236zM365 530q0 -141 75.5 -223t190.5 -82q117 0 192.5 82t75.5 223q0 145 -75.5 227.5t-192.5 82.5q-115 0 -190.5 -82t-75.5 -228z" />
<glyph unicode="&#xf5;" horiz-adv-x="1263" d="M78 530q0 125 41 227.5t115.5 176.5t177 113.5t219.5 39.5q121 0 222 -39.5t176 -113.5t118 -176.5t43 -227.5q0 -121 -43 -224t-118 -176t-176 -114t-222 -41q-117 0 -219.5 41t-177 114t-115.5 176t-41 224zM283 1214q0 139 53 223.5t153 84.5q45 0 78 -16.5t61.5 -38 t54.5 -39t52 -17.5q63 0 64 102h184q0 -141 -54.5 -225t-152.5 -84q-45 0 -78.5 16.5t-62.5 39t-54.5 39t-52.5 16.5q-66 0 -65 -101h-180zM365 530q0 -141 75.5 -223t190.5 -82q117 0 192.5 82t75.5 223q0 145 -75.5 227.5t-192.5 82.5q-115 0 -190.5 -82t-75.5 -228z" />
<glyph unicode="&#xf6;" horiz-adv-x="1263" d="M78 530q0 125 41 227.5t115.5 176.5t177 113.5t219.5 39.5q121 0 222 -39.5t176 -113.5t118 -176.5t43 -227.5q0 -121 -43 -224t-118 -176t-176 -114t-222 -41q-117 0 -219.5 41t-177 114t-115.5 176t-41 224zM252 1384q0 70 50 116t114 46q68 0 117 -46t49 -116 t-49 -118.5t-117 -48.5q-63 0 -113.5 49t-50.5 118zM365 530q0 -141 75.5 -223t190.5 -82q117 0 192.5 82t75.5 223q0 145 -75.5 227.5t-192.5 82.5q-115 0 -190.5 -82t-75.5 -228zM686 1384q0 70 47 116t115 46t117 -46t49 -116t-49 -118.5t-117 -48.5t-115 49t-47 118z " />
<glyph unicode="&#xf7;" horiz-adv-x="1093" d="M94 588v217h905v-217h-905zM393 322q0 61 45 108t109 47q61 0 107 -47t46 -108t-46 -106.5t-107 -45.5q-63 0 -108.5 45.5t-45.5 106.5zM393 1069q0 66 45 112t109 46q61 0 107 -46t46 -112q0 -59 -46 -105t-107 -46q-63 0 -108.5 46t-45.5 105z" />
<glyph unicode="&#xf8;" horiz-adv-x="1284" d="M59 -8l154 172q-63 70 -97 163t-34 203q0 125 43 227.5t117.5 176.5t176 113.5t220.5 39.5q184 0 317 -90l66 72h199l-152 -166q61 -74 94 -167t33 -206q0 -121 -41 -224t-116.5 -176t-178 -114t-221.5 -41q-90 0 -169 25t-146 66l-64 -74h-201zM365 530q0 -92 34 -159 l389 438q-61 39 -149 39q-119 0 -196.5 -84t-77.5 -234zM494 254q66 -37 145 -37q121 0 200 83t79 230q0 92 -33 164z" />
<glyph unicode="&#xf9;" horiz-adv-x="1226" d="M131 387v678h289v-653q0 -104 48 -151.5t163 -47.5q31 0 70.5 3t80.5 11v838h287v-1034q-90 -27 -213 -41.5t-225 -14.5q-113 0 -206 20.5t-159.5 68t-100.5 127t-34 196.5zM283 1585h260l202 -360h-262z" />
<glyph unicode="&#xfa;" horiz-adv-x="1226" d="M131 387v678h289v-653q0 -104 48 -151.5t163 -47.5q31 0 70.5 3t80.5 11v838h287v-1034q-90 -27 -213 -41.5t-225 -14.5q-113 0 -206 20.5t-159.5 68t-100.5 127t-34 196.5zM457 1225l200 360h263l-201 -360h-262z" />
<glyph unicode="&#xfb;" horiz-adv-x="1226" d="M131 387v678h289v-653q0 -104 48 -151.5t163 -47.5q31 0 70.5 3t80.5 11v838h287v-1034q-90 -27 -213 -41.5t-225 -14.5q-113 0 -206 20.5t-159.5 68t-100.5 127t-34 196.5zM229 1214l277 365h190l277 -365h-236l-137 175l-133 -175h-238z" />
<glyph unicode="&#xfc;" horiz-adv-x="1226" d="M131 387v678h289v-653q0 -104 48 -151.5t163 -47.5q31 0 70.5 3t80.5 11v838h287v-1034q-90 -27 -213 -41.5t-225 -14.5q-113 0 -206 20.5t-159.5 68t-100.5 127t-34 196.5zM231 1384q0 70 49.5 116t116.5 46q66 0 115 -46t49 -116t-49 -118.5t-115 -48.5q-68 0 -117 49 t-49 118zM664 1384q0 70 47 116t114 46q70 0 119 -46t49 -116t-49 -118.5t-119 -48.5q-68 0 -114.5 49t-46.5 118z" />
<glyph unicode="&#xfd;" horiz-adv-x="1177" d="M12 1065h312l272 -764l266 764h303l-583 -1493h-283l150 395zM451 1225l202 360h262l-202 -360h-262z" />
<glyph unicode="&#xfe;" horiz-adv-x="1282" d="M156 -428v2048h284v-586q41 25 105.5 39t134.5 14q115 0 211 -36.5t165.5 -104t109.5 -167t40 -220.5q0 -281 -156.5 -432.5t-437.5 -151.5q-53 0 -99 6.5t-73 16.5v-426h-284zM440 248q31 -10 71 -15.5t81 -5.5q143 0 232 80t89 244q0 129 -78.5 203.5t-201.5 74.5 q-61 0 -110.5 -17t-82.5 -36v-528z" />
<glyph unicode="&#xff;" horiz-adv-x="1177" d="M12 1065h312l272 -764l266 764h303l-583 -1493h-283l150 395zM215 1384q0 70 48 116t116 46t116 -46t48 -116t-48 -118.5t-116 -48.5t-116 49t-48 118zM645 1384q0 70 48 116t116 46q70 0 118 -46t48 -116t-48 -118.5t-118 -48.5q-68 0 -116 49t-48 118z" />
<glyph unicode="&#x152;" horiz-adv-x="1949" d="M82 709q0 160 57.5 288.5t158.5 223t235.5 145.5t287.5 51h1006v-266h-606v-309h557v-260h-557v-318h620v-264h-1020q-154 0 -288 51t-235 144.5t-158.5 224.5t-57.5 289zM393 709q0 -102 33 -185.5t90 -141.5t136 -89t169 -31h101v893h-101q-90 0 -169 -31.5t-136 -90 t-90 -140.5t-33 -184z" />
<glyph unicode="&#x153;" horiz-adv-x="1959" d="M78 530q0 125 41 227.5t115.5 176.5t177 113.5t219.5 39.5q123 0 226.5 -44t176.5 -121q70 80 166 122.5t211 42.5q125 0 212 -37.5t143.5 -106.5t81 -161t24.5 -196v-131h-701v-6q8 -57 37 -99.5t72 -71t97.5 -43t105.5 -14.5q109 0 193.5 24.5t160.5 71.5v-243 q-72 -51 -173 -75t-208 -24q-135 0 -241.5 45.5t-180.5 120.5q-74 -74 -177 -120t-226 -46q-117 0 -219.5 41t-177 114t-115.5 176.5t-41 223.5zM365 530q0 -141 75.5 -223t190.5 -82q117 0 192.5 82t75.5 223q0 145 -75.5 227.5t-192.5 82.5q-115 0 -190.5 -82t-75.5 -228z M1178 625h428q-2 100 -50.5 162.5t-150.5 62.5q-94 0 -152.5 -59.5t-74.5 -165.5z" />
<glyph unicode="&#x178;" horiz-adv-x="1333" d="M8 1417h332l330 -604l325 604h334l-514 -891v-526h-299v526zM285 1671q0 68 48 117t116 49q70 0 118.5 -49t48.5 -117t-48.5 -116t-118.5 -48q-68 0 -116 48.5t-48 115.5zM715 1671q0 68 48 117t116 49q70 0 119 -49t49 -117t-49 -116t-119 -48q-68 0 -116 48.5 t-48 115.5z" />
<glyph unicode="&#x2c6;" horiz-adv-x="1191" d="M225 1214l277 365h188l277 -365h-234l-137 175l-135 -175h-236z" />
<glyph unicode="&#x2dc;" horiz-adv-x="1191" d="M246 1214q0 139 54 223.5t155 84.5q43 0 76.5 -16.5t62.5 -38t54.5 -39t49.5 -17.5q66 0 66 102h184q0 -141 -54 -225t-155 -84q-45 0 -77.5 16.5t-61.5 39t-54.5 39t-51.5 16.5q-68 0 -68 -101h-180z" />
<glyph unicode="&#x2000;" horiz-adv-x="973" />
<glyph unicode="&#x2001;" horiz-adv-x="1946" />
<glyph unicode="&#x2002;" horiz-adv-x="973" />
<glyph unicode="&#x2003;" horiz-adv-x="1946" />
<glyph unicode="&#x2004;" horiz-adv-x="648" />
<glyph unicode="&#x2005;" horiz-adv-x="486" />
<glyph unicode="&#x2006;" horiz-adv-x="324" />
<glyph unicode="&#x2007;" horiz-adv-x="324" />
<glyph unicode="&#x2008;" horiz-adv-x="243" />
<glyph unicode="&#x2009;" horiz-adv-x="389" />
<glyph unicode="&#x200a;" horiz-adv-x="108" />
<glyph unicode="&#x2010;" horiz-adv-x="847" d="M102 494v254h641v-254h-641z" />
<glyph unicode="&#x2011;" horiz-adv-x="847" d="M102 494v254h641v-254h-641z" />
<glyph unicode="&#x2012;" horiz-adv-x="847" d="M102 494v254h641v-254h-641z" />
<glyph unicode="&#x2013;" horiz-adv-x="1363" d="M102 528v217h1160v-217h-1160z" />
<glyph unicode="&#x2014;" horiz-adv-x="2271" d="M102 528v217h2065v-217h-2065z" />
<glyph unicode="&#x2018;" horiz-adv-x="571" d="M127 997q0 94 21.5 177t57.5 151t83 122t98 89h195q-86 -123 -128 -251t-42 -288h-285z" />
<glyph unicode="&#x2019;" horiz-adv-x="571" d="M43 997q86 123 128 250t42 289h285q0 -94 -20.5 -177t-58.5 -151.5t-84 -122t-95 -88.5h-197z" />
<glyph unicode="&#x201a;" horiz-adv-x="571" d="M4 -270q86 123 128 249.5t42 290.5h287q0 -96 -22.5 -178t-58.5 -150.5t-83 -121.5t-98 -90h-195z" />
<glyph unicode="&#x201c;" horiz-adv-x="1005" d="M127 997q0 94 21.5 177t57.5 151t83 122t98 89h195q-86 -123 -128 -251t-42 -288h-285zM559 997q0 94 20.5 177t58.5 151t84 122t95 89h197q-86 -123 -126 -251t-40 -288h-289z" />
<glyph unicode="&#x201d;" horiz-adv-x="1005" d="M43 997q86 123 128 250t42 289h285q0 -94 -20.5 -177t-58.5 -151.5t-84 -122t-95 -88.5h-197zM477 997q86 123 126 250t40 289h289q0 -94 -20.5 -177t-58.5 -151.5t-84 -122t-95 -88.5h-197z" />
<glyph unicode="&#x201e;" horiz-adv-x="1005" d="M4 -270q86 123 128 249.5t42 290.5h287q0 -96 -22.5 -178t-58.5 -150.5t-83 -121.5t-98 -90h-195zM438 -270q86 123 127 249.5t41 290.5h289q0 -96 -22.5 -178t-58.5 -150.5t-82 -121.5t-99 -90h-195z" />
<glyph unicode="&#x2022;" horiz-adv-x="804" d="M131 621q0 57 21.5 107t57.5 86t85 58.5t106 22.5t107.5 -22.5t86.5 -58.5t58.5 -86t22.5 -107t-22.5 -105.5t-58.5 -85.5t-86 -57.5t-108 -20.5q-57 0 -106 20.5t-85 57.5t-57.5 85.5t-21.5 105.5z" />
<glyph unicode="&#x2026;" horiz-adv-x="1884" d="M125 168q0 80 54 137t128 57q84 0 141.5 -57t57.5 -137q0 -78 -57.5 -133t-141.5 -55q-74 0 -128 55t-54 133zM752 168q0 80 54 137t132 57q82 0 138.5 -57t56.5 -137q0 -78 -56.5 -133t-138.5 -55q-78 0 -132 55t-54 133zM1378 168q0 80 55.5 137t129.5 57q86 0 142 -57 t56 -137q0 -78 -56 -133t-142 -55q-74 0 -129.5 55t-55.5 133z" />
<glyph unicode="&#x202f;" horiz-adv-x="389" />
<glyph unicode="&#x2039;" horiz-adv-x="751" d="M90 514l293 377h279l-293 -377l293 -377h-279z" />
<glyph unicode="&#x203a;" horiz-adv-x="751" d="M90 137l291 377l-291 377h277l295 -377l-295 -377h-277z" />
<glyph unicode="&#x205f;" horiz-adv-x="486" />
<glyph unicode="&#x20ac;" horiz-adv-x="1216" d="M37 489v154h131q-4 18 -4 32.5v33.5v31.5t4 31.5h-131v156h151q27 117 81.5 211t133 160.5t179 104.5t217.5 38q94 0 177 -21.5t159 -72.5v-328q-59 70 -140.5 109.5t-185.5 39.5q-119 0 -194.5 -64.5t-110.5 -176.5h366l-30 -156h-367q-2 -16 -2 -31.5v-31.5v-32.5 t2 -33.5h344l-29 -154h-284q39 -115 117.5 -178t193.5 -63q111 0 186.5 35.5t153.5 109.5v-311q-86 -59 -174 -83t-182 -24q-119 0 -220.5 37t-179 104.5t-131 161t-80.5 211.5h-151z" />
<glyph unicode="&#x2122;" horiz-adv-x="1683" d="M59 1247v170h592v-170h-200v-491h-191v491h-201zM666 756l112 661h219l127 -420l121 420h219l109 -661h-184l-72 389l-121 -389h-152l-124 389l-68 -389h-186z" />
<glyph unicode="&#x25fc;" horiz-adv-x="1064" d="M0 0v1065h1065v-1065h-1065z" />
<glyph unicode="&#xfb01;" horiz-adv-x="1302" d="M27 825v240h166v117q0 117 36.5 205t99 145t144.5 86t176 29q102 0 170 -20.5t117 -55.5v-268q-51 37 -108.5 57t-141.5 20q-86 0 -145.5 -46t-59.5 -154v-115h670v-1065h-289v825h-381v-825h-288v825h-166z" />
<glyph unicode="&#xfb02;" horiz-adv-x="1302" d="M27 825v240h166v174q0 209 108.5 308.5t267.5 99.5q51 0 90 -9.5t74 -23.5v-264q-31 14 -59.5 21t-67.5 7q-125 0 -125 -149v-164h217v-240h-217v-825h-288v825h-166zM862 0v1620h289v-1620h-289z" />
<glyph unicode="&#xfb03;" horiz-adv-x="1972" d="M27 825v240h166v139q0 207 108.5 306.5t267.5 99.5q98 0 174 -39v-264q-55 37 -135 36q-59 0 -93 -36.5t-34 -114.5v-127h381v117q0 117 38 205t100.5 145t144.5 86t174 29q102 0 169.5 -20.5t115.5 -55.5v-268q-51 37 -106.5 57t-141.5 20q-84 0 -144.5 -46t-60.5 -154 v-115h670v-1065h-289v825h-381v-825h-289v825h-381v-825h-288v825h-166z" />
<glyph unicode="&#xfb04;" horiz-adv-x="1972" d="M27 825v240h166v139q0 207 108.5 306.5t267.5 99.5q98 0 174 -39v-264q-55 37 -135 36q-59 0 -93 -36.5t-34 -114.5v-127h381v174q0 209 107.5 308.5t267.5 99.5q96 0 162 -33v-264q-25 14 -54.5 21t-70.5 7q-123 0 -123 -149v-164h217v-240h-217v-825h-289v825h-381 v-825h-288v825h-166zM1532 0v1620h289v-1620h-289z" />
</font>
</defs>
</svg>
